<?xml version="1.0" standalone="no"?>
<!DOCTYPE svg PUBLIC "-//W3C//DTD SVG 1.1//EN" "http://www.w3.org/Graphics/SVG/1.1/DTD/svg11.dtd" >
<svg xmlns="http://www.w3.org/2000/svg" xmlns:xlink="http://www.w3.org/1999/xlink" version="1.1">
<metadata>
Created by FontForge 20170731 at Tue Nov 23 23:52:23 2021
 By Aleksey,,,
Copyright (c) 2020 by Bagas Ardiatma. All rights reserved.
</metadata>
<defs>
<font id="CaustenRound-Bold" horiz-adv-x="1163" >
  <font-face
    font-family="CaustenRound-Regular Bold"
    font-weight="700"
    font-stretch="normal"
    units-per-em="2048"
    panose-1="0 0 8 0 0 0 0 0 0 0"
    ascent="1638"
    descent="-410"
    x-height="942"
    cap-height="1331"
    bbox="-721.4 -410 2630 1794"
    underline-thickness="102"
    underline-position="-307"
    unicode-range="U+0020-25CA"
  />
<missing-glyph horiz-adv-x="972"
d="M799 1536v-1946h-619v1946h619zM647 1405h-319v-64h125v-71h-127v-64h321v64h-127v71h127v64zM520 1155h-194v-203h321v66h-127v137zM453 1090v-72h-64v72h64zM647 899h-321v-63h127v-72h-127v-64h194v136h127v63zM647 782h-63v-127h-258v-67h321v194zM647 545h-194v-109
h67v45h64v-92h-195v156h-63v-219h321v219zM647 209h-321v-219h321v219zM584 145v-92h-195v92h195zM647 -55h-321v-64h135l-135 -92v-63h321v63h-198l137 92h61v64z" />
    <glyph glyph-name="f_f.liga" unicode="ff" horiz-adv-x="1357"
d="M203 0q-49 0 -49 49v699h-74q-49 0 -49 49v96q0 49 49 49h74v84q0 150 75 227.5t224 77.5h125q49 0 49 -49v-100q0 -49 -49 -49h-46q-20 0 -38.5 -4.5t-39 -16t-32.5 -37.5t-12 -63v-70h393v84q0 149 73 227t211 78h158q49 0 49 -49v-100q0 -49 -49 -49h-63
q-20 0 -38.5 -4.5t-39 -16t-33 -37.5t-12.5 -63v-70h164q49 0 49 -49v-96q0 -49 -49 -49h-164v-699q0 -49 -49 -49h-158q-49 0 -49 49v699h-393v-699q0 -23 -13.5 -36t-36.5 -13h-157z" />
    <glyph glyph-name="t_t.liga" unicode="tt" horiz-adv-x="1327"
d="M428 0q-138 0 -206 69.5t-68 202.5v476h-74q-49 0 -49 49v96q0 49 49 49h74v240q0 49 49 49h157q23 0 36.5 -13t13.5 -36v-240h389v240q0 49 49 49h158q49 0 49 -49v-240h151q49 0 49 -49v-96q0 -49 -49 -49h-151v-435q0 -39 10.5 -64t32 -35t38 -12.5t44.5 -2.5h16
q49 0 49 -49v-101q0 -49 -49 -49h-123q-274 0 -274 272v476h-389v-435q0 -39 10.5 -64t32 -35t38.5 -12.5t46 -2.5h14q49 0 49 -49v-101q0 -49 -49 -49h-123z" />
    <glyph glyph-name=".notdef" horiz-adv-x="972"
d="M799 1536v-1946h-619v1946h619zM647 1405h-319v-64h125v-71h-127v-64h321v64h-127v71h127v64zM520 1155h-194v-203h321v66h-127v137zM453 1090v-72h-64v72h64zM647 899h-321v-63h127v-72h-127v-64h194v136h127v63zM647 782h-63v-127h-258v-67h321v194zM647 545h-194v-109
h67v45h64v-92h-195v156h-63v-219h321v219zM647 209h-321v-219h321v219zM584 145v-92h-195v92h195zM647 -55h-321v-64h135l-135 -92v-63h321v63h-198l137 92h61v64z" />
    <glyph glyph-name=".null" horiz-adv-x="0"
 />
    <glyph glyph-name="nonmarkingreturn" horiz-adv-x="682"
 />
    <glyph glyph-name="space" unicode=" " horiz-adv-x="409"
 />
    <glyph glyph-name="exclam" unicode="!" horiz-adv-x="458"
d="M121 379q-49 0 -49 49l-17 854q0 49 49 49h168q23 0 36.5 -13t13.5 -36l-19 -854q0 -49 -49 -49h-133zM188 -12q-58 0 -97.5 39t-39.5 98t39.5 98t97.5 39q59 0 98.5 -39.5t39.5 -97.5t-39.5 -97.5t-98.5 -39.5z" />
    <glyph glyph-name="quotedbl" unicode="&#x22;" horiz-adv-x="757"
d="M125 967q-48 0 -51 47l-19 266q-3 51 47 51h148q51 0 45 -51l-27 -266q-3 -47 -51 -47h-92zM532 967q-48 0 -51 47l-18 266q-3 51 47 51h145q51 0 45 -51l-26 -266q-3 -47 -51 -47h-91z" />
    <glyph glyph-name="numbersign" unicode="#" horiz-adv-x="1478"
d="M221 -6q-25 0 -37 13.5t-6 39.5l49 227h-127q-23 0 -36 13.5t-13 36.5v129q0 49 49 49h176l68 305h-166q-49 0 -49 49v129q0 49 49 49h215l53 248q8 43 56 43h143q25 0 37 -13.5t6 -39.5l-51 -238h340l53 248q8 43 55 43h144q25 0 37 -13.5t6 -39.5l-51 -238h116
q49 0 49 -49v-129q0 -49 -49 -49h-166l-67 -305h156q49 0 49 -49v-129q0 -23 -13 -36.5t-36 -13.5h-205l-51 -237q-8 -43 -56 -43h-143q-25 0 -37 13.5t-6 39.5l49 227h-340l-51 -237q-8 -43 -55 -43h-144zM520 502h340l68 305h-340z" />
    <glyph glyph-name="dollar" unicode="$" horiz-adv-x="1271"
d="M549 -102q-49 0 -49 49v94q-137 22 -239.5 85t-149.5 157q-20 39 20 65l141 88q39 23 66 -14q45 -56 128.5 -99.5t168.5 -43.5q188 0 188 116q0 25 -13 46t-30.5 35t-48 27.5t-52.5 20.5t-58 17.5t-50 15.5q-1 0 -34.5 10.5t-46.5 15t-50.5 18.5t-56.5 24.5t-53.5 30
t-54 37.5t-44.5 45t-38.5 54.5t-23 63t-9.5 74.5q0 143 93.5 231.5t246.5 114.5v92q0 49 49 49h149q23 0 36.5 -13t13.5 -36v-92q119 -22 216.5 -77t149.5 -128q26 -39 -16 -67l-129 -84q-34 -22 -68 12q-44 48 -121.5 83.5t-152.5 35.5q-82 0 -123 -28.5t-41 -76.5
q0 -25 13 -46.5t28.5 -35.5t48 -29t51 -21.5t58.5 -19t51 -16.5q6 -2 34.5 -11t46 -15t51 -19t56 -24.5t54 -30t53.5 -37.5t45.5 -44.5t37.5 -53t23.5 -62.5t9.5 -73q0 -157 -100 -252t-276 -119v-90q0 -23 -13.5 -36t-36.5 -13h-149z" />
    <glyph glyph-name="percent" unicode="%" horiz-adv-x="1767"
d="M414 688q-139 0 -230.5 93t-91.5 233q0 145 91 237t231 92q139 0 230 -92t91 -237q0 -140 -91.5 -233t-229.5 -93zM471 0q-29 0 -39 17t4 42l670 1237q17 35 57 35h92q29 0 39 -17t-4 -42l-669 -1237q-17 -35 -58 -35h-92zM414 856q69 0 111 45t42 113q0 70 -42 116
t-111 46q-68 0 -111 -46t-43 -116q0 -67 43 -112.5t111 -45.5zM1313 -14q-139 0 -230.5 93t-91.5 234q0 145 91 237.5t231 92.5q139 0 230 -92.5t91 -237.5q0 -141 -91.5 -234t-229.5 -93zM1313 154q69 0 111 45t42 114q0 70 -42 116t-111 46q-68 0 -111 -46t-43 -116
q0 -68 43 -113.5t111 -45.5z" />
    <glyph glyph-name="ampersand" unicode="&#x26;" horiz-adv-x="1337"
d="M551 -18q-217 0 -338 102.5t-121 265.5q0 110 61.5 200t206.5 187l-2 4q-81 100 -118 168t-37 150q0 119 93.5 205t252.5 86q80 0 147 -25.5t109.5 -67t66 -94t23.5 -108.5t-17 -107t-41 -88t-61.5 -72.5t-67.5 -57.5t-69 -46q166 -205 244 -299q57 99 57 227q0 19 49 19
h96q50 0 50 -21q0 -216 -125 -383l145 -178q20 -25 11 -42t-40 -17h-129q-37 0 -59 28q-9 11 -30.5 36t-33.5 40q-146 -112 -323 -112zM516 834q81 51 127.5 99.5t46.5 108.5q0 61 -40.5 98.5t-100.5 37.5t-101.5 -38t-41.5 -98q0 -15 2 -28.5t9 -28.5t11 -25t17 -28.5
t19 -27t23.5 -32t24.5 -32.5zM555 178q104 0 199 68q-232 290 -271 338q-53 -41 -86.5 -78t-45.5 -69t-14.5 -47.5t-2.5 -39.5q0 -70 56.5 -121t164.5 -51z" />
    <glyph glyph-name="quotesingle" unicode="'" horiz-adv-x="352"
d="M121 967q-46 0 -49 47l-17 266q-3 51 47 51h148q51 0 45 -51l-29 -266q-6 -47 -53 -47h-92z" />
    <glyph glyph-name="parenleft" unicode="(" horiz-adv-x="585"
d="M270 -98q-40 0 -59 32q-105 181 -143 452t0 543t143 455q20 33 59 33h152q29 0 38 -16t-5 -41q-101 -173 -137.5 -437.5t0.5 -528t137 -435.5q15 -25 6.5 -41t-37.5 -16h-154z" />
    <glyph glyph-name="parenright" unicode=")" horiz-adv-x="606"
d="M141 -98q-29 0 -37 16t7 41q100 172 136.5 436t0 528t-136.5 437q-14 25 -5.5 41t37.5 16h152q39 0 59 -33q105 -183 143 -455t0 -543t-143 -452q-19 -32 -59 -32h-154z" />
    <glyph glyph-name="asterisk" unicode="*" horiz-adv-x="786"
d="M371 672q-49 0 -49 49v160l-148 -88q-43 -26 -68 16l-18 31q-24 43 16 67l162 99l-160 102q-39 26 -14 68l21 30q25 43 67 15l142 -91v152q0 49 49 49h45q49 0 49 -49v-160l147 88q43 26 68 -16l18 -29q25 -43 -16 -67l-160 -97l158 -102q39 -26 14 -68l-20 -32
q-24 -41 -68 -15l-141 93v-156q0 -49 -49 -49h-45z" />
    <glyph glyph-name="plus" unicode="+" horiz-adv-x="1054"
d="M451 244q-23 0 -36.5 13t-13.5 36v260h-260q-49 0 -49 49v113q0 49 49 49h260v260q0 23 13.5 36t36.5 13h112q49 0 49 -49v-260h260q23 0 36.5 -13t13.5 -36v-113q0 -23 -13.5 -36t-36.5 -13h-260v-260q0 -49 -49 -49h-112z" />
    <glyph glyph-name="comma" unicode="," horiz-adv-x="430"
d="M106 -209q-25 0 -36.5 14t-6.5 39l60 281q8 43 53 43h141q26 0 37 -15.5t2 -41.5l-106 -281q-14 -39 -55 -39h-89z" />
    <glyph glyph-name="hyphen" unicode="-" horiz-adv-x="829"
d="M141 446q-23 0 -36 13.5t-13 36.5v143q0 49 49 49h506q49 0 49 -49v-143q0 -23 -13 -36.5t-36 -13.5h-506z" />
    <glyph glyph-name="period" unicode="." horiz-adv-x="374"
d="M188 -12q-60 0 -98.5 38.5t-38.5 98.5q0 58 38.5 95.5t98.5 37.5q59 0 97.5 -37.5t38.5 -95.5q0 -60 -38.5 -98.5t-97.5 -38.5z" />
    <glyph glyph-name="slash" unicode="/" horiz-adv-x="765"
d="M109 -96q-26 0 -37.5 15t-3.5 40l405 1417q12 41 55 41h150q26 0 37.5 -15t3.5 -40l-406 -1417q-12 -41 -55 -41h-149z" />
    <glyph glyph-name="zero" unicode="0" horiz-adv-x="1306"
d="M639 -16q-169 0 -298.5 88t-199 242.5t-69.5 351.5t69.5 351.5t199 242.5t298.5 88q170 0 301.5 -88t202.5 -243t71 -351t-71 -351t-202.5 -243t-301.5 -88zM639 242q130 0 216.5 112.5t86.5 311.5q0 201 -86 309t-217 108q-130 0 -216.5 -108.5t-86.5 -308.5
q0 -199 87 -311.5t216 -112.5z" />
    <glyph glyph-name="one" unicode="1" horiz-adv-x="712"
d="M365 0q-23 0 -36.5 13t-13.5 36v1041h-239q-49 0 -49 49v143q0 49 49 49h454q23 0 36.5 -13t13.5 -36v-1233q0 -23 -13.5 -36t-36.5 -13h-165z" />
    <glyph glyph-name="two" unicode="2" horiz-adv-x="1069"
d="M113 0q-23 0 -36.5 13t-13.5 36l-2 131q0 38 27 62l205 176q10 9 32 28q59 52 91 80.5t87 80t86.5 88t66 81.5t50 84.5t15.5 73.5q0 75 -50 119.5t-147 44.5q-71 0 -128 -33.5t-87 -83.5q-23 -42 -65 -25l-150 70q-45 22 -26 64q23 48 61.5 92t94 83.5t133.5 63t167 23.5
q217 0 344 -109.5t127 -292.5q0 -85 -35.5 -170.5t-106.5 -169.5t-114 -127t-121 -112q-8 -7 -12 -11l-135 -118h475q49 0 49 -49v-144q0 -49 -49 -49h-833z" />
    <glyph glyph-name="three" unicode="3" horiz-adv-x="1144"
d="M518 -16q-130 0 -249 47t-189 123q-28 32 2 67l102 109q29 33 68 2q49 -39 118.5 -64.5t147.5 -25.5q116 0 188 54.5t72 149.5q0 98 -72 154.5t-188 56.5q-96 0 -178 -20q-55 -16 -55 41l2 96q0 38 28 60l322 256h-442q-23 0 -36.5 13t-13.5 36v143q0 23 13.5 36t36.5 13
h763q23 0 36.5 -13t13.5 -36v-139q0 -38 -27 -62l-272 -233q68 -16 124.5 -46t105 -77.5t76 -118.5t27.5 -160q0 -96 -29.5 -174.5t-79.5 -131t-118 -88.5t-142.5 -52t-154.5 -16z" />
    <glyph glyph-name="four" unicode="4" horiz-adv-x="1212"
d="M770 0q-49 0 -49 49v191h-621q-49 0 -49 49v88q0 32 21 59l626 864q22 31 60 31h176q49 0 49 -49v-850h109q49 0 49 -49v-94q0 -49 -49 -49h-109v-191q0 -49 -49 -49h-164zM311 432h410v561z" />
    <glyph glyph-name="five" unicode="5" horiz-adv-x="1134"
d="M520 -16q-263 0 -436 159q-33 33 0 70l106 115q31 35 72 2q103 -90 240 -90q112 2 188 52.5t76 149.5q0 97 -79.5 150t-192.5 53q-121 0 -203 -33q-44 -15 -68 19l-41 55q-19 28 -14 64l96 536q9 45 53 45h611q49 0 49 -49v-143q0 -49 -49 -49h-447l-43 -232q23 2 62 2
q136 0 240 -33.5t166.5 -93.5t94 -137t31.5 -168q0 -210 -143 -327t-369 -117z" />
    <glyph glyph-name="six" unicode="6" horiz-adv-x="1134"
d="M553 -16q-135 0 -246 64.5t-173 175.5t-62 245q0 160 86 285l352 544q20 33 59 33h176q29 0 38.5 -17t-5.5 -42l-205 -318q131 -5 236 -69.5t164 -174t59 -241.5q0 -204 -137 -344.5t-342 -140.5zM553 233q100 0 164.5 66.5t64.5 169.5q0 104 -64.5 172t-164.5 68
q-102 0 -166.5 -67.5t-64.5 -172.5q0 -103 64.5 -169.5t166.5 -66.5z" />
    <glyph glyph-name="seven" unicode="7" horiz-adv-x="980"
d="M164 0q-28 0 -38.5 16t1.5 41l475 1033h-506q-49 0 -49 49v143q0 49 49 49h764q49 0 49 -49v-94q0 -34 -12 -62l-504 -1089q-16 -37 -57 -37h-172z" />
    <glyph glyph-name="eight" unicode="8" horiz-adv-x="1146"
d="M561 -20q-237 0 -363 112t-126 293q0 93 49 174.5t143 132.5q-84 52 -126 130.5t-42 164.5q0 53 16.5 103.5t53 98.5t89.5 84t132 57.5t174 21.5q116 0 207.5 -32.5t145 -86.5t81 -117t27.5 -129q0 -86 -42 -164.5t-126 -130.5q93 -53 141.5 -134t48.5 -173
q0 -181 -124 -293t-359 -112zM561 782q107 0 162 54t55 133q0 77 -55.5 132.5t-161.5 55.5q-109 0 -166 -55.5t-57 -132.5q0 -79 56.5 -133t166.5 -54zM561 197q110 0 170 56.5t60 143.5q0 86 -60.5 143.5t-169.5 57.5q-112 0 -173.5 -57.5t-61.5 -143.5q0 -83 62 -141.5
t173 -58.5z" />
    <glyph glyph-name="nine" unicode="9" horiz-adv-x="1134"
d="M358 0q-29 0 -38 17t6 42l200 318q-197 9 -325.5 147t-128.5 338q0 204 137 345t342 141t343 -141t138 -345q0 -147 -100 -303l-338 -526q-20 -33 -59 -33h-177zM551 623q118 0 184 88l2 4q45 61 45 147q0 103 -65 169.5t-166 66.5q-100 0 -164.5 -66.5t-64.5 -169.5
q0 -104 64.5 -171.5t164.5 -67.5z" />
    <glyph glyph-name="colon" unicode=":" horiz-adv-x="405"
d="M188 602q-60 0 -98.5 38.5t-38.5 98.5t38.5 97.5t98.5 37.5q59 0 97.5 -37.5t38.5 -97.5t-38.5 -98.5t-97.5 -38.5zM188 -12q-60 0 -98.5 38.5t-38.5 98.5q0 58 38.5 95.5t98.5 37.5q59 0 97.5 -37.5t38.5 -95.5q0 -60 -38.5 -98.5t-97.5 -38.5z" />
    <glyph glyph-name="semicolon" unicode=";" horiz-adv-x="464"
d="M242 602q-57 0 -97.5 39.5t-40.5 95.5q0 57 40.5 97t97.5 40q56 0 95.5 -40t39.5 -97q0 -55 -39.5 -95t-95.5 -40zM106 -209q-25 0 -36.5 14t-6.5 39l60 281q8 43 55 43h144q27 0 37 -16t1 -41l-110 -281q-14 -39 -55 -39h-89z" />
    <glyph glyph-name="less" unicode="&#x3c;" horiz-adv-x="901"
d="M768 367q0 -26 -16 -37t-41 -2l-580 215q-39 14 -39 55v121q0 41 39 55l580 215q25 9 41 -2t16 -37v-96q0 -41 -39 -55l-379 -140l379 -141q39 -14 39 -55v-96z" />
    <glyph glyph-name="equal" unicode="=" horiz-adv-x="1056"
d="M141 776q-49 0 -49 49v97q0 49 49 49h733q23 0 36.5 -13t13.5 -36v-97q0 -23 -13.5 -36t-36.5 -13h-733zM141 348q-49 0 -49 49v99q0 49 49 49h733q23 0 36.5 -13t13.5 -36v-99q0 -23 -13.5 -36t-36.5 -13h-733z" />
    <glyph glyph-name="greater" unicode="&#x3e;" horiz-adv-x="901"
d="M150 328q-25 -9 -41.5 2t-16.5 37v96q0 41 39 55l379 141l-379 140q-39 14 -39 55v96q0 26 16.5 37t41.5 2l579 -215q39 -14 39 -55v-121q0 -41 -39 -55z" />
    <glyph glyph-name="question" unicode="?" horiz-adv-x="1034"
d="M393 379q-49 0 -49 35q0 101 38 171t101 130l36 36t35.5 36.5t29 32t27.5 35.5t18.5 33.5t14 38.5t3.5 40q0 63 -43.5 104t-126.5 41q-59 0 -115 -33t-88 -82q-28 -41 -65 -22l-139 67q-45 22 -23 64q55 108 166.5 178t263.5 70q197 0 321 -95.5t124 -269.5
q0 -59 -12.5 -107.5t-41 -91.5t-47.5 -65t-59 -63q-91 -97 -116 -135q-38 -58 -38 -113q0 -35 -49 -35h-166zM479 -16q-60 0 -98.5 39t-38.5 98t38.5 98t98.5 39t98.5 -39t38.5 -98t-38.5 -98t-98.5 -39z" />
    <glyph glyph-name="at" unicode="@" horiz-adv-x="1630"
d="M797 -61q-199 0 -361 95.5t-253 261t-91 366.5q0 155 55 289.5t149 229.5t224.5 149t276.5 54q195 0 355.5 -89.5t252.5 -248t92 -352.5q0 -82 -14.5 -153.5t-46 -134.5t-90 -99.5t-138.5 -36.5q-88 0 -156 42t-98 122q-63 -110 -204 -110q-51 0 -101 21t-93 60.5
t-70 104.5t-27 145t27 145t70 104t93 60t101 21q117 0 186 -82v23q0 49 49 49h66q49 0 49 -49v-357q0 -161 108 -161q60 0 92.5 64t32.5 222q0 107 -30 195.5t-81.5 148.5t-120.5 101.5t-145.5 60.5t-158.5 19q-102 0 -197.5 -37.5t-172 -106.5t-123 -176.5t-46.5 -236.5
q0 -128 46.5 -236t123 -177.5t172.5 -108t197 -38.5q129 0 211 35q45 19 65 -22l35 -64q26 -47 -16 -63q-128 -49 -295 -49zM780 487q70 0 113 48.5t43 119.5q0 69 -43 116.5t-113 47.5t-112.5 -47t-42.5 -117q0 -71 42.5 -119.5t112.5 -48.5z" />
    <glyph glyph-name="A" unicode="A" horiz-adv-x="1361"
d="M92 0q-28 0 -39 16t0 41l502 1235q16 39 57 39h119q41 0 57 -39l500 -1235q11 -25 0 -41t-39 -16h-178q-39 0 -55 39l-72 180h-547l-71 -180q-16 -39 -56 -39h-178zM494 461h356l-178 452z" />
    <glyph glyph-name="B" unicode="B" horiz-adv-x="1236"
d="M141 0q-49 0 -49 49v1233q0 49 49 49h572q162 0 274.5 -100.5t112.5 -274.5q0 -179 -125 -266q81 -45 127.5 -122t46.5 -183q0 -88 -33.5 -162t-89.5 -122t-127.5 -74.5t-148.5 -26.5h-609zM356 793h314q72 0 114.5 40t42.5 109t-42.5 108.5t-114.5 39.5h-314v-297z
M356 242h351q77 0 123.5 47.5t46.5 118.5q0 70 -47.5 117.5t-122.5 47.5h-351v-331z" />
    <glyph glyph-name="C" unicode="C" horiz-adv-x="1366"
d="M743 -16q-146 0 -271 51.5t-213 141.5t-137.5 216.5t-49.5 272.5t49.5 272.5t137.5 216.5t213 141.5t271 51.5q160 0 290 -60t220 -170q28 -39 -10 -67l-135 -101q-36 -26 -70 8q-52 57 -128.5 91t-166.5 34q-182 0 -294.5 -117t-112.5 -300t112.5 -300.5t294.5 -117.5
q168 0 295 131q31 39 70 8l135 -104q38 -31 14 -66q-90 -111 -221.5 -172t-292.5 -61z" />
    <glyph glyph-name="D" unicode="D" horiz-adv-x="1341"
d="M141 0q-49 0 -49 49v1233q0 49 49 49h445q292 0 472.5 -184.5t180.5 -480.5q0 -297 -181 -481.5t-472 -184.5h-445zM356 258h230q44 0 91.5 10t102.5 38.5t97 72t70.5 118t27.5 169.5q-1 94 -29 168.5t-70.5 118.5t-97 72.5t-101.5 39t-91 10.5h-230v-817z" />
    <glyph glyph-name="E" unicode="E" horiz-adv-x="1116"
d="M141 0q-49 0 -49 49v1233q0 49 49 49h803q49 0 49 -49v-143q0 -49 -49 -49h-588v-304h545q49 0 49 -49v-143q0 -49 -49 -49h-545v-303h588q49 0 49 -49v-144q0 -49 -49 -49h-803z" />
    <glyph glyph-name="F" unicode="F" horiz-adv-x="1120"
d="M141 0q-49 0 -49 49v1233q0 49 49 49h809q49 0 49 -49v-152q0 -49 -49 -49h-594v-329h555q23 0 36.5 -13.5t13.5 -36.5v-149q0 -23 -13.5 -36t-36.5 -13h-555v-455q0 -49 -49 -49h-166z" />
    <glyph glyph-name="G" unicode="G" horiz-adv-x="1495"
d="M743 -16q-146 0 -271 51.5t-213 141.5t-137.5 216.5t-49.5 272.5t49.5 272.5t137.5 216.5t213 141.5t271 51.5q158 0 289 -60t219 -168q30 -37 -10 -67l-135 -101q-35 -26 -70 9q-57 61 -133.5 91.5t-159.5 30.5q-182 0 -294.5 -117t-112.5 -300t112.5 -300.5
t294.5 -117.5q123 0 218.5 69t119.5 193h-305q-49 0 -49 49v143q0 23 13 36.5t36 13.5h555q23 0 36 -13.5t13 -36.5l2 -67q-11 -289 -183 -470t-456 -181z" />
    <glyph glyph-name="H" unicode="H" horiz-adv-x="1323"
d="M141 0q-49 0 -49 49v1233q0 49 49 49h166q49 0 49 -49v-487h568v487q0 49 49 49h168q49 0 49 -49v-1233q0 -49 -49 -49h-168q-49 0 -49 49v488h-568v-488q0 -49 -49 -49h-166z" />
    <glyph glyph-name="I" unicode="I" horiz-adv-x="489"
d="M141 0q-49 0 -49 49v1233q0 49 49 49h166q49 0 49 -49v-1233q0 -49 -49 -49h-166z" />
    <glyph glyph-name="J" unicode="J" horiz-adv-x="1069"
d="M489 -16q-174 0 -283.5 80t-144.5 215q-11 44 33 59l166 59q47 15 62 -32q42 -123 167 -123q87 0 135 51.5t48 138.5v850q0 49 49 49h166q49 0 49 -49v-887q0 -191 -122.5 -301t-324.5 -110z" />
    <glyph glyph-name="K" unicode="K"
d="M141 0q-49 0 -49 49v1233q0 49 49 49h166q49 0 49 -49v-502l404 523q22 28 59 28h191q31 0 40 -17t-10 -42l-460 -606l485 -607q20 -25 10 -42t-41 -17h-194q-37 0 -60 29l-424 526v-506q0 -49 -49 -49h-166z" />
    <glyph glyph-name="L" unicode="L" horiz-adv-x="1081"
d="M141 0q-49 0 -49 49v1233q0 49 49 49h166q49 0 49 -49v-1040h584q49 0 49 -49v-144q0 -49 -49 -49h-799z" />
    <glyph glyph-name="M" unicode="M" horiz-adv-x="1556"
d="M141 0q-49 0 -49 49v1233q0 49 49 49h181q40 0 57 -35l379 -755l379 755q17 35 57 35h180q49 0 49 -49v-1233q0 -49 -49 -49h-168q-49 0 -49 49v748l-291 -607q-16 -36 -57 -36h-102q-42 0 -58 36l-293 609v-750q0 -49 -49 -49h-166z" />
    <glyph glyph-name="N" unicode="N" horiz-adv-x="1306"
d="M141 0q-49 0 -49 49v1233q0 49 49 49h170q40 0 60 -33l538 -835v819q0 49 49 49h166q23 0 36.5 -13t13.5 -36v-1233q0 -23 -13.5 -36t-36.5 -13h-168q-39 0 -59 33l-539 833v-817q0 -49 -49 -49h-168z" />
    <glyph glyph-name="O" unicode="O" horiz-adv-x="1513"
d="M743 -16q-146 0 -271 51.5t-213 141.5t-137.5 216.5t-49.5 272.5t49.5 272.5t137.5 216.5t213 141.5t271 51.5q195 0 347.5 -88t236.5 -243t84 -351t-84 -351t-236.5 -243t-347.5 -88zM743 248q181 0 291.5 117t110.5 301q0 183 -110.5 300t-291.5 117
q-182 0 -294.5 -117t-112.5 -300t112.5 -300.5t294.5 -117.5z" />
    <glyph glyph-name="P" unicode="P" horiz-adv-x="1210"
d="M141 0q-49 0 -49 49v1233q0 49 49 49h572q76 0 147.5 -28.5t129.5 -82t93 -138.5t35 -189q0 -103 -35 -188t-93 -138.5t-129.5 -82.5t-147.5 -29h-357v-406q0 -49 -49 -49h-166zM356 713h310q78 0 133 49.5t55 130.5q0 82 -54 132t-130 50h-314v-362z" />
    <glyph glyph-name="Q" unicode="Q" horiz-adv-x="1513"
d="M1055 -168q-38 0 -60 31l-92 137q-78 -16 -160 -16q-146 0 -271 51.5t-213 141.5t-137.5 216.5t-49.5 272.5q0 195 86.5 351t240 243.5t344.5 87.5q195 0 348 -88t236.5 -243t83.5 -351q0 -177 -69 -321t-193 -236l145 -218q17 -26 7.5 -42.5t-39.5 -16.5h-207zM739 248
l-77 117q-17 26 -7.5 42.5t39.5 16.5h205q37 0 59 -31l41 -61q146 121 146 334q0 183 -110.5 300t-291.5 117q-182 0 -294.5 -117t-112.5 -300q0 -182 111.5 -299.5t291.5 -118.5z" />
    <glyph glyph-name="R" unicode="R" horiz-adv-x="1255"
d="M141 0q-49 0 -49 49v1233q0 49 49 49h590q76 0 147.5 -28.5t130 -82t93.5 -138.5t35 -189q0 -158 -77.5 -266t-197.5 -150l264 -418q15 -25 6 -42t-38 -17h-197q-39 0 -59 33l-267 422h-215v-406q0 -49 -49 -49h-166zM356 713h332q76 0 129 49.5t53 130.5q0 82 -53 132
t-129 50h-332v-362z" />
    <glyph glyph-name="S" unicode="S" horiz-adv-x="1247"
d="M625 -25q-198 0 -342.5 81.5t-212.5 201.5q-22 42 18 68l135 96q38 27 68 -10q55 -66 153.5 -118t208.5 -52q115 0 161 36.5t46 104.5q0 32 -21 57.5t-61 45t-73.5 31.5t-85.5 27t-70 21q-11 4 -48.5 15t-65.5 20t-72 27.5t-76.5 37.5t-68.5 49t-59.5 63.5t-39 79.5
t-15.5 99q0 103 43 182t117 125.5t165 69.5t196 23q166 0 303 -72t196 -174q21 -40 -20 -66l-131 -83q-35 -23 -68 10q-46 49 -131 85t-182 36q-89 0 -136.5 -32t-47.5 -89q0 -27 16 -49.5t38.5 -38t58 -30t63.5 -23t67.5 -20t57.5 -17.5q5 -2 46.5 -15.5t66 -22.5
t71.5 -29.5t77.5 -40t69 -51t61 -64.5t38.5 -79t16 -96q0 -203 -142.5 -311.5t-387.5 -108.5z" />
    <glyph glyph-name="T" unicode="T" horiz-adv-x="1206"
d="M500 0q-49 0 -49 49v1041h-351q-49 0 -49 49v143q0 49 49 49h965q49 0 49 -49v-143q0 -49 -49 -49h-348v-1041q0 -49 -49 -49h-168z" />
    <glyph glyph-name="U" unicode="U" horiz-adv-x="1257"
d="M608 -16q-161 0 -280 67.5t-177.5 176.5t-58.5 243v811q0 49 49 49h166q49 0 49 -49v-782q0 -130 71 -194t181 -64t181 64t71 194v782q0 49 49 49h166q49 0 49 -49v-811q0 -134 -58.5 -243t-177.5 -176.5t-280 -67.5z" />
    <glyph glyph-name="V" unicode="V" horiz-adv-x="1341"
d="M596 0q-39 0 -55 39l-488 1235q-9 25 1.5 41t37.5 16h178q42 0 56 -39l336 -856l333 856q14 39 56 39h178q27 0 37.5 -16t1.5 -41l-488 -1235q-16 -39 -55 -39h-129z" />
    <glyph glyph-name="W" unicode="W" horiz-adv-x="1945"
d="M518 0q-45 0 -57 41l-412 1235q-8 25 3.5 40t37.5 15h178q46 0 58 -41l268 -807l266 807q12 41 55 41h109q45 0 57 -41l260 -774l258 774q12 41 58 41h178q26 0 37.5 -15t3.5 -40l-412 -1235q-12 -41 -57 -41h-141q-46 0 -58 41l-245 743l-246 -743q-12 -41 -58 -41h-141
z" />
    <glyph glyph-name="X" unicode="X" horiz-adv-x="1300"
d="M102 0q-30 0 -38.5 16.5t8.5 42.5l405 607l-405 606q-17 26 -8.5 42.5t38.5 16.5h197q37 0 59 -31l273 -405l272 405q22 31 60 31h194q30 0 40 -16.5t-7 -42.5l-406 -606l406 -607q17 -26 7 -42.5t-40 -16.5h-194q-38 0 -60 31l-272 405l-273 -405q-22 -31 -59 -31h-197z
" />
    <glyph glyph-name="Y" unicode="Y" horiz-adv-x="1280"
d="M541 0q-49 0 -49 49v516l-437 707q-15 26 -5.5 42.5t38.5 16.5h195q41 0 59 -33l281 -456l280 456q18 33 60 33h196q29 0 38.5 -16.5t-5.5 -42.5l-436 -707v-516q0 -49 -49 -49h-166z" />
    <glyph glyph-name="Z" unicode="Z" horiz-adv-x="1110"
d="M121 0q-49 0 -49 49v139q0 34 20 60l596 839h-555q-23 0 -36 13.5t-13 36.5v145q0 49 49 49h836q49 0 49 -49v-141q0 -33 -21 -60l-602 -837l561 -2q23 0 36.5 -13t13.5 -36v-144q0 -23 -13.5 -36t-36.5 -13h-835z" />
    <glyph glyph-name="bracketleft" unicode="[" horiz-adv-x="643"
d="M141 -98q-49 0 -49 49v1417q0 49 49 49h320q49 0 49 -49v-90q0 -49 -49 -49h-127v-1139h127q49 0 49 -49v-90q0 -49 -49 -49h-320z" />
    <glyph glyph-name="backslash" unicode="\" horiz-adv-x="755"
d="M508 -98q-43 0 -55 41l-406 1417q-8 25 3.5 40t37.5 15h150q43 0 55 -41l405 -1417q8 -25 -3.5 -40t-37.5 -15h-149z" />
    <glyph glyph-name="bracketright" unicode="]" horiz-adv-x="643"
d="M141 -98q-49 0 -49 49v90q0 49 49 49h127v1139h-127q-49 0 -49 49v90q0 49 49 49h320q49 0 49 -49v-1417q0 -49 -49 -49h-320z" />
    <glyph glyph-name="asciicircum" unicode="^" horiz-adv-x="884"
d="M152 713q-26 0 -37 16t-2 41l184 522q13 39 57 39h131q42 0 56 -39l190 -522q9 -25 -2 -41t-37 -16h-94q-41 0 -55 39l-121 333l-119 -333q-13 -39 -55 -39h-96z" />
    <glyph glyph-name="underscore" unicode="_" horiz-adv-x="935"
d="M141 0q-49 0 -49 49v144q0 49 49 49h613q49 0 49 -49v-144q0 -49 -49 -49h-613z" />
    <glyph glyph-name="grave" unicode="`" horiz-adv-x="411"
d="M199 1100q-41 0 -58 35l-69 139q-12 25 -3 41t37 16h113q41 0 57 -37l66 -137q12 -25 2.5 -41t-37.5 -16h-108z" />
    <glyph glyph-name="a" unicode="a"
d="M504 -16q-193 0 -320 138t-127 349q0 213 126.5 349t320.5 136q170 0 270 -114v51q0 49 49 49h158q49 0 49 -49v-844q0 -49 -49 -49h-158q-49 0 -49 49v49q-100 -114 -270 -114zM541 225q104 0 168.5 69.5t64.5 176.5t-64.5 176.5t-168.5 69.5q-105 0 -170.5 -69.5
t-65.5 -176.5t65.5 -176.5t170.5 -69.5z" />
    <glyph glyph-name="b" unicode="b"
d="M618 -16q-170 0 -270 114v-49q0 -49 -49 -49h-158q-49 0 -49 49v1233q0 49 49 49h158q49 0 49 -49v-440q100 114 270 114q194 0 320.5 -136t126.5 -349q0 -211 -127 -349t-320 -138zM582 225q105 0 170 69.5t65 176.5t-65 176.5t-170 69.5t-169.5 -69.5t-64.5 -176.5
t64.5 -176.5t169.5 -69.5z" />
    <glyph glyph-name="c" unicode="c" horiz-adv-x="999"
d="M539 -18q-213 0 -347.5 137.5t-134.5 351.5t134.5 350.5t347.5 136.5q220 0 352 -151q31 -39 -8 -70l-107 -82q-34 -24 -69 4q-65 58 -162 58q-105 0 -171.5 -69.5t-66.5 -176.5t66.5 -176.5t171.5 -69.5q97 0 162 54q35 28 69 4l107 -80q39 -29 12 -64
q-135 -157 -356 -157z" />
    <glyph glyph-name="d" unicode="d"
d="M504 -16q-193 0 -320 138t-127 349q0 213 126.5 349t320.5 136q170 0 270 -114v440q0 49 49 49h158q49 0 49 -49v-1233q0 -49 -49 -49h-158q-49 0 -49 49v49q-100 -114 -270 -114zM541 225q104 0 168.5 69.5t64.5 176.5t-64.5 176.5t-168.5 69.5q-105 0 -170.5 -69.5
t-65.5 -176.5t65.5 -176.5t170.5 -69.5z" />
    <glyph glyph-name="e" unicode="e" horiz-adv-x="1077"
d="M537 -20q-214 0 -347 139t-133 352q0 214 129 352t340 138q207 0 330 -137.5t123 -352.5v-20q0 -23 -13 -36.5t-36 -13.5h-627q19 -94 82 -148t152 -54q117 0 192 67q35 30 68 6l96 -71q41 -30 14 -64q-64 -75 -159.5 -116t-210.5 -41zM307 563h432q-18 88 -72 141.5
t-141 53.5q-86 0 -143 -52t-76 -143z" />
    <glyph glyph-name="f" unicode="f" horiz-adv-x="716"
d="M203 0q-49 0 -49 49v699h-74q-49 0 -49 49v96q0 49 49 49h74v84q0 150 75 227.5t224 77.5h143q49 0 49 -49v-100q0 -49 -49 -49h-64q-122 0 -122 -121v-70h163q23 0 36.5 -13t13.5 -36v-96q0 -23 -13.5 -36t-36.5 -13h-163v-699q0 -23 -13.5 -36t-36.5 -13h-157z" />
    <glyph glyph-name="g" unicode="g"
d="M526 -401q-221 0 -364 133q-36 33 4 69l92 78q32 28 70 0q81 -65 198 -65q29 0 59.5 6.5t65.5 24t61.5 44.5t44 73t17.5 104v34q-102 -116 -272 -116q-193 0 -319 138t-126 349t126 348t319 137q173 0 272 -116v53q0 49 49 49h158q49 0 49 -49v-827q0 -208 -133 -337.5
t-371 -129.5zM539 225q105 0 170 69.5t65 176.5t-65 176.5t-170 69.5t-169.5 -69.5t-64.5 -176.5t64.5 -176.5t169.5 -69.5z" />
    <glyph glyph-name="h" unicode="h" horiz-adv-x="1112"
d="M141 0q-49 0 -49 49v1233q0 49 49 49h158q49 0 49 -49v-430q96 104 264 104q54 0 104 -11.5t98.5 -39.5t84.5 -70.5t58 -109t22 -150.5v-526q0 -49 -49 -49h-158q-49 0 -49 49v488q0 48 -13 85t-32.5 59t-45.5 36t-49.5 19t-47.5 5t-48 -5t-49.5 -19t-45 -36t-32 -59
t-12.5 -85v-488q0 -49 -49 -49h-158z" />
    <glyph glyph-name="i" unicode="i" horiz-adv-x="507"
d="M233 1081q-56 0 -98.5 40t-42.5 104q0 63 42 99t99 36q56 0 99 -36.5t43 -98.5q0 -64 -43.5 -104t-98.5 -40zM154 0q-23 0 -36.5 13t-13.5 36v844q0 23 13.5 36t36.5 13h159q49 0 49 -49l-2 -844q0 -49 -49 -49h-157z" />
    <glyph glyph-name="j" unicode="j" horiz-adv-x="528"
d="M256 1081q-56 0 -99.5 40t-43.5 104q0 63 42 99t99 36q55 0 98 -36.5t43 -98.5q0 -64 -42.5 -104t-96.5 -40zM2 -377q-49 0 -49 49v101q0 49 45 49q31 0 50 3.5t40 14.5t31 37.5t10 67.5v948q0 49 49 49h158q49 0 49 -49v-1004q0 -118 -73 -192t-224 -74h-86z" />
    <glyph glyph-name="k" unicode="k" horiz-adv-x="1044"
d="M141 0q-49 0 -49 49v1233q0 49 49 49h158q49 0 49 -49v-700l279 331q26 29 61 29h184q31 0 39 -17t-12 -42l-324 -387l367 -437q20 -25 12 -42t-39 -17h-184q-35 0 -61 29l-322 381v-361q0 -49 -49 -49h-158z" />
    <glyph glyph-name="l" unicode="l" horiz-adv-x="483"
d="M141 0q-49 0 -49 49v1233q0 49 49 49h160q49 0 49 -49l-2 -1233q0 -49 -49 -49h-158z" />
    <glyph glyph-name="m" unicode="m" horiz-adv-x="1683"
d="M141 0q-49 0 -49 49v844q0 49 49 49h158q49 0 49 -47v-47q99 108 250 108q199 0 291 -143q56 76 138.5 109.5t170.5 33.5q53 0 101 -11t94.5 -38.5t80.5 -69.5t55 -109.5t21 -152.5v-526q0 -49 -49 -49h-158q-49 0 -49 49v492q0 58 -18.5 98.5t-48 59.5t-56 26.5
t-53.5 7.5q-26 0 -51.5 -7.5t-54 -26.5t-46.5 -59.5t-18 -98.5v-492q0 -49 -49 -49h-158q-49 0 -49 49v492q0 58 -18 98.5t-47.5 59.5t-55.5 26.5t-53 7.5q-26 0 -52 -7.5t-54.5 -26.5t-46 -59.5t-17.5 -98.5v-492q0 -49 -49 -49h-158z" />
    <glyph glyph-name="n" unicode="n" horiz-adv-x="1112"
d="M141 0q-49 0 -49 49v844q0 49 49 49h158q49 0 49 -45v-45q96 104 264 104q54 0 104 -11.5t98.5 -39.5t84.5 -70.5t58 -109t22 -150.5v-526q0 -49 -49 -49h-158q-49 0 -49 49v488q0 48 -13 85t-32.5 59t-45.5 36t-49.5 19t-47.5 5t-48 -5t-49.5 -19t-45 -36t-32 -59
t-12.5 -85v-488q0 -49 -49 -49h-158z" />
    <glyph glyph-name="o" unicode="o" horiz-adv-x="1126"
d="M543 -20q-213 0 -349.5 139.5t-136.5 351.5q0 214 136.5 352t349.5 138q214 0 349.5 -137.5t135.5 -352.5q0 -212 -135.5 -351.5t-349.5 -139.5zM543 225q104 0 168.5 69.5t64.5 176.5t-64.5 176.5t-168.5 69.5q-103 0 -168.5 -69.5t-65.5 -176.5t65.5 -176.5
t168.5 -69.5z" />
    <glyph glyph-name="p" unicode="p"
d="M141 -377q-49 0 -49 49v1221q0 49 49 49h158q49 0 49 -49v-51q100 114 270 114q193 0 320 -138t127 -349q0 -213 -126.5 -349t-320.5 -136q-170 0 -270 114v-426q0 -49 -49 -49h-158zM582 225q105 0 170 68.5t65 175.5t-65.5 177.5t-169.5 70.5t-169 -70.5t-65 -177.5
t64.5 -175.5t169.5 -68.5z" />
    <glyph glyph-name="q" unicode="q"
d="M823 -377q-49 0 -49 49v426q-100 -114 -270 -114q-194 0 -320.5 136t-126.5 349q0 211 127 349t320 138q170 0 270 -114v51q0 49 49 49h158q49 0 49 -49v-1221q0 -49 -49 -49h-158zM541 225q105 0 169 68.5t64 175.5t-64.5 177.5t-168.5 70.5q-105 0 -170.5 -70.5
t-65.5 -177.5t65.5 -175.5t170.5 -68.5z" />
    <glyph glyph-name="r" unicode="r" horiz-adv-x="751"
d="M141 0q-49 0 -49 49v844q0 49 49 49h158q49 0 49 -49v-121q98 156 281 180q51 6 51 -47v-141q0 -46 -47 -49q-285 -26 -285 -283v-383q0 -49 -49 -49h-158z" />
    <glyph glyph-name="s" unicode="s" horiz-adv-x="923"
d="M459 -29q-144 0 -248 53t-154 134q-23 39 19 67l96 64q35 22 66 -13q37 -41 98.5 -70.5t126.5 -29.5q135 0 135 88q0 22 -12 39t-37 30t-44 20t-54.5 17.5t-47.5 14.5q-3 1 -34.5 11t-48 16t-52 21.5t-56.5 29t-49.5 37t-45 47.5t-28 58t-11.5 71q0 73 30.5 129t83.5 90
t120 51t145 17q126 0 220.5 -44.5t143.5 -113.5q28 -42 -16 -68l-86 -55q-35 -22 -70 8q-37 32 -91 55t-109 23q-61 0 -91 -21.5t-30 -58.5q0 -18 9.5 -33.5t22.5 -26t36 -20.5t39.5 -15.5t43.5 -13.5t39 -12q2 -1 30 -10t42 -14t46 -17.5t51 -24.5t47 -29.5t45.5 -37.5
t35 -44t25.5 -53.5t8 -62.5q0 -147 -102.5 -225t-286.5 -78z" />
    <glyph glyph-name="t" unicode="t" horiz-adv-x="698"
d="M430 0q-276 0 -276 272v476h-74q-49 0 -49 49v96q0 49 49 49h74v240q0 49 49 49h157q23 0 36.5 -13t13.5 -36v-240h151q49 0 49 -49v-96q0 -49 -49 -49h-151v-435q0 -39 10.5 -64t32 -35t38.5 -12.5t46 -2.5h14q49 0 49 -49v-101q0 -49 -49 -49h-121z" />
    <glyph glyph-name="u" unicode="u" horiz-adv-x="1112"
d="M461 -16q-54 0 -104 11.5t-99 39.5t-85 70.5t-58.5 109t-22.5 150.5v528q0 49 49 49h158q49 0 49 -49v-487q0 -59 19 -101.5t49.5 -63.5t61 -30.5t61.5 -9.5t60.5 9t58.5 30.5t47 64t18 101.5v487q0 49 49 49h158q49 0 49 -49v-844q0 -49 -49 -49h-158q-49 0 -49 43v43
q-97 -102 -262 -102z" />
    <glyph glyph-name="v" unicode="v" horiz-adv-x="1056"
d="M422 0q-39 0 -55 39l-334 846q-9 25 1.5 41t37.5 16h161q42 0 56 -39l217 -557l221 557q16 39 55 39h162q28 0 39 -16t0 -41l-338 -846q-16 -39 -55 -39h-168z" />
    <glyph glyph-name="w" unicode="w" horiz-adv-x="1558"
d="M367 0q-45 0 -56 41l-272 846q-7 26 4 40.5t37 14.5h162q44 0 55 -41l170 -539l188 541q12 39 58 39h104q45 0 57 -39l189 -541l168 539q11 41 55 41h162q26 0 37 -14.5t4 -40.5l-277 -846q-11 -41 -55 -41h-164q-45 0 -57 41l-174 512l-174 -512q-12 -41 -58 -41h-163z
" />
    <glyph glyph-name="x" unicode="x" horiz-adv-x="1073"
d="M104 0q-31 0 -39 17t9 42l295 412l-295 412q-17 25 -9 42t39 17h187q37 0 59 -31l166 -233l166 233q22 31 59 31h187q31 0 39 -17t-9 -42l-292 -412l292 -412q17 -25 9 -42t-39 -17h-187q-37 0 -59 31l-166 233l-166 -233q-22 -31 -59 -31h-187z" />
    <glyph glyph-name="y" unicode="y" horiz-adv-x="1056"
d="M293 -377q-27 0 -37.5 16.5t-1.5 41.5l127 319l-348 885q-9 25 1.5 41t37.5 16h161q40 0 56 -39l217 -549l219 549q16 39 57 39h162q28 0 39 -16t0 -41l-487 -1223q-16 -39 -56 -39h-147z" />
    <glyph glyph-name="z" unicode="z" horiz-adv-x="868"
d="M100 0q-49 0 -49 49v107q0 34 21 61l381 516h-349q-49 0 -49 49v111q0 49 49 49h623q49 0 49 -49v-107q0 -35 -20 -61l-381 -514h348q49 0 49 -49v-113q0 -49 -49 -49h-623z" />
    <glyph glyph-name="braceleft" unicode="{" horiz-adv-x="747"
d="M395 -98q-198 0 -198 233v340q0 50 -21.5 76.5t-52.5 26.5q-14 0 -22.5 13t-8.5 36v65q0 49 31 49t52.5 26.5t21.5 76.5v340q0 125 51 179t147 54h170q49 0 49 -49v-90q0 -49 -49 -49h-51q-68 0 -68 -88v-297q0 -139 -112 -185q112 -49 112 -184v-297q0 -88 68 -88h51
q49 0 49 -49v-90q0 -49 -49 -49h-170z" />
    <glyph glyph-name="bar" unicode="|" horiz-adv-x="466"
d="M141 -98q-49 0 -49 49v1417q0 49 49 49h144q49 0 49 -49v-1417q0 -49 -49 -49h-144z" />
    <glyph glyph-name="braceright" unicode="}" horiz-adv-x="747"
d="M141 -98q-49 0 -49 49v90q0 49 49 49h52q67 0 67 88v297q0 134 113 184q-113 46 -113 185v297q0 88 -67 88h-52q-49 0 -49 49v90q0 49 49 49h170q96 0 147.5 -54t51.5 -179v-340q0 -50 21.5 -76.5t52.5 -26.5q30 0 30 -49v-65q0 -49 -30 -49q-31 0 -52.5 -26.5
t-21.5 -76.5v-340q0 -233 -199 -233h-170z" />
    <glyph glyph-name="asciitilde" unicode="~" horiz-adv-x="1198"
d="M754 469q-55 0 -101 16.5t-70 34t-57 47.5q-7 7 -23.5 22.5t-22 20t-17.5 14t-20 12.5t-20.5 6t-25.5 3q-81 0 -104 -96q-9 -47 -51 -47h-99q-24 0 -37 13.5t-12 37.5q13 133 89 214t208 81q51 0 95 -17t67.5 -35.5t53.5 -45.5l9 -9q44 -41 74 -58t64 -17q93 0 112 100
q9 49 52 49h96q24 0 37 -12t12 -35q-11 -135 -89.5 -217t-219.5 -82z" />
    <glyph glyph-name="exclamdown" unicode="&#xa1;" horiz-adv-x="417"
d="M178 1069q-57 0 -97 40.5t-40 98.5q0 56 40 95.5t97 39.5t97 -39.5t40 -95.5q0 -58 -40 -98.5t-97 -40.5zM94 0q-49 0 -49 49l18 834q0 49 50 49h133q49 0 49 -49l16 -834q0 -49 -49 -49h-168z" />
    <glyph glyph-name="cent" unicode="&#xa2;" horiz-adv-x="1327"
d="M592 -98q-49 0 -49 49v119q-214 46 -332.5 213.5t-118.5 392.5q0 224 118.5 391t332.5 213v98q0 49 49 49h143q49 0 49 -49v-88q228 -27 379 -221q30 -40 -12 -68l-137 -90q-38 -24 -68 13q-104 116 -250 116q-70 0 -131 -22t-110 -65.5t-77 -114.5t-28 -162t28 -162
t77 -114.5t110 -66t131 -22.5q154 0 250 107q29 37 68 12l135 -82q44 -27 14 -67q-151 -195 -379 -222v-108q0 -49 -49 -49h-143z" />
    <glyph glyph-name="sterling" unicode="&#xa3;" horiz-adv-x="1077"
d="M141 0q-49 0 -49 49v98q0 49 49 52q312 24 207 397h-194q-23 0 -36.5 13t-13.5 36v37q0 23 13.5 36t36.5 13h147q-53 132 -59 242t34 188.5t123 130t206.5 65.5t283.5 -5q47 -6 47 -52v-90q0 -51 -55 -45q-98 12 -169.5 7.5t-116 -31t-67.5 -64.5t-25 -91.5t12 -114
t44 -130.5l4 -10h266q23 0 36.5 -13t13.5 -36v-37q0 -23 -13.5 -36t-36.5 -13h-221q58 -261 -98 -399h385q23 0 36 -13.5t13 -36.5v-98q0 -49 -49 -49h-754z" />
    <glyph glyph-name="currency" unicode="&#xa4;" horiz-adv-x="1191"
d="M961 217q-35 -35 -70 0l-113 113q-86 -56 -198 -56q-116 0 -205 58l-111 -111q-32 -32 -67 -2l-66 60q-39 32 -2 69l119 119q-45 85 -45 195q0 113 47 196l-117 117q-35 35 0 69l64 62q36 31 69 -2l113 -113q86 56 201 56q106 0 196 -52l109 109q34 34 69 2l64 -57
q37 -32 2 -70l-115 -117q49 -90 49 -200q0 -113 -47 -199l117 -117q34 -34 -2 -70zM580 471q77 0 128.5 52.5t51.5 138.5t-51.5 138t-128.5 52t-129 -52t-52 -138t52 -138.5t129 -52.5z" />
    <glyph glyph-name="yen" unicode="&#xa5;" horiz-adv-x="1280"
d="M541 0q-49 0 -49 49v166h-232q-49 0 -49 49v37q0 49 49 49h232v148h-232q-49 0 -49 49v35q0 49 49 49h189l-394 641q-15 25 -5.5 42t38.5 17h195q41 0 59 -33l281 -456l280 456q18 33 60 33h196q29 0 38.5 -16.5t-5.5 -42.5l-395 -641h188q49 0 49 -49v-35q0 -49 -49 -49
h-229v-148h229q49 0 49 -49v-37q0 -49 -49 -49h-229v-166q0 -49 -49 -49h-166z" />
    <glyph glyph-name="brokenbar" unicode="&#xa6;" horiz-adv-x="466"
d="M141 786q-23 0 -36 13.5t-13 36.5v532q0 49 49 49h144q49 0 49 -49v-532q0 -23 -13 -36.5t-36 -13.5h-144zM141 -98q-49 0 -49 49v530q0 49 49 49h144q49 0 49 -49v-530q0 -49 -49 -49h-144z" />
    <glyph glyph-name="section" unicode="&#xa7;" horiz-adv-x="964"
d="M481 -63q-140 0 -232 54.5t-136 145.5q-22 48 28 64l107 35q36 13 61 -29q28 -39 78 -56.5t100 -17.5q62 0 103 24t41 79q0 44 -40 74.5t-124 60.5q-32 11 -51 18t-57 23.5t-63 31.5t-57 39t-50.5 49t-32 59t-13.5 71q0 162 131 227q-122 70 -122 211q0 125 93 202.5
t240 77.5q114 0 191 -43t115 -114q21 -41 -27 -64l-90 -41q-33 -15 -64 21q-44 47 -125 47q-67 0 -103 -24.5t-36 -61.5q0 -64 143 -113q12 -4 43.5 -14t53.5 -17t55.5 -21.5t57 -28.5t50.5 -37t43.5 -48t27.5 -60t11 -75q0 -169 -137 -233q133 -76 133 -217
q0 -81 -30.5 -141t-82 -93.5t-110 -49t-123.5 -15.5zM487 569q70 0 109 30.5t39 86.5q0 113 -154 113q-67 0 -104 -30.5t-37 -82.5q0 -53 43 -85t104 -32z" />
    <glyph glyph-name="dieresis" unicode="&#xa8;" horiz-adv-x="704"
d="M160 1178q-46 0 -82.5 32.5t-36.5 85.5q0 51 36.5 82t82.5 31q45 0 80.5 -31t35.5 -82q0 -53 -36 -85.5t-80 -32.5zM545 1178q-45 0 -81 33t-36 85q0 51 36 82t81 31q46 0 82.5 -31t36.5 -82q0 -53 -36.5 -85.5t-82.5 -32.5z" />
    <glyph glyph-name="copyright" unicode="&#xa9;" horiz-adv-x="1566"
d="M764 -16q-198 0 -352 88t-237 243t-83 351q0 146 50 272.5t137.5 216.5t213 141.5t271.5 51.5t271 -51.5t212.5 -141.5t137 -216.5t49.5 -272.5q0 -197 -84.5 -352.5t-237.5 -242.5t-348 -87zM764 119q134 0 239 48t168 127.5t95 174.5t32 197t-32 197.5t-95 175
t-168 127.5t-239 48t-239.5 -48t-169 -127.5t-96 -175t-32.5 -197.5t34 -197.5t98 -174.5t169.5 -127t235.5 -48zM782 303q-155 0 -253.5 103.5t-98.5 261.5t98 260t254 102q160 0 254 -102q35 -38 -8 -70l-35 -27q-32 -23 -69 9q-58 55 -142 55q-32 0 -66.5 -11.5t-70 -36
t-58 -71.5t-22.5 -108q0 -62 22.5 -109.5t58 -72t70 -36.5t66.5 -12q80 0 142 56q33 29 67 6l35 -25q21 -14 25 -31t-11 -32q-95 -109 -258 -109z" />
    <glyph glyph-name="guillemotleft" unicode="&#xab;" horiz-adv-x="1413"
d="M461 276q-38 0 -62 27l-295 320q-30 35 0 69l295 320q23 26 62 26h188q32 0 40.5 -18t-13.5 -43l-295 -320l295 -319q22 -25 13.5 -43.5t-40.5 -18.5h-188zM1030 276q-37 0 -61 27l-295 320q-30 35 0 69l295 320q23 26 61 26h189q32 0 40 -18t-14 -43l-295 -320l295 -319
q22 -25 14 -43.5t-40 -18.5h-189z" />
    <glyph glyph-name="logicalnot" unicode="&#xac;" horiz-adv-x="1118"
d="M793 377q-23 0 -36.5 13t-13.5 36v207h-602q-49 0 -49 49v143q0 49 49 49h795q49 0 49 -49v-399q0 -49 -49 -49h-143z" />
    <glyph glyph-name="registered" unicode="&#xae;" horiz-adv-x="1564"
d="M764 -16q-194 0 -348 89.5t-239 245t-85 347.5t85 347.5t239 245t348 89.5t347 -89.5t237 -245t84 -347.5t-84 -347.5t-237 -245t-347 -89.5zM764 119q106 0 195.5 32.5t150 86.5t103 125t62 147.5t19.5 155.5t-19.5 155.5t-62 148t-103 125.5t-150 86.5t-195.5 32.5
q-107 0 -197 -32.5t-152 -86.5t-105 -125.5t-63 -148t-20 -155.5t20 -155.5t63 -147.5t105 -125t152 -86.5t197 -32.5zM541 309q-49 0 -49 49v603q0 49 49 49h290q83 0 148 -63t65 -167q0 -82 -40 -139t-101 -82l119 -190q15 -26 5.5 -43t-38.5 -17h-53q-39 0 -59 33
l-127 205h-117v-189q0 -49 -49 -49h-43zM633 686h176q37 0 64.5 26t27.5 68q0 41 -27.5 67.5t-64.5 26.5h-176v-188z" />
    <glyph glyph-name="macron" unicode="&#xaf;" horiz-adv-x="485"
d="M90 1167q-23 0 -36 13.5t-13 36.5v65q0 49 49 49h305q49 0 49 -49v-65q0 -23 -13 -36.5t-36 -13.5h-305z" />
    <glyph glyph-name="degree" unicode="&#xb0;" horiz-adv-x="657"
d="M330 850q-110 0 -181 69.5t-71 178.5q0 110 71 180t181 70q107 0 178.5 -70.5t71.5 -179.5q0 -108 -71.5 -178t-178.5 -70zM330 983q48 0 82 33t34 82t-34 81.5t-82 32.5t-83.5 -32.5t-35.5 -81.5t35.5 -82t83.5 -33z" />
    <glyph glyph-name="plusminus" unicode="&#xb1;" horiz-adv-x="960"
d="M412 530q-23 0 -36.5 13.5t-13.5 36.5v125h-221q-49 0 -49 49v65q0 49 49 49h221v123q0 23 13.5 36t36.5 13h98q49 0 49 -49v-123h219q49 0 49 -49v-65q0 -49 -49 -49h-219v-125q0 -23 -13 -36.5t-36 -13.5h-98zM141 260q-49 0 -49 49v68q0 49 49 49h637q49 0 49 -49v-68
q0 -49 -49 -49h-637z" />
    <glyph glyph-name="uni00B2" unicode="&#xb2;" horiz-adv-x="698"
d="M92 537q-29 0 -29 28l-2 80q0 23 17 37l123 106q47 41 69 60.5t65.5 61.5t65 69t40 61t18.5 60q0 46 -29.5 72t-89.5 26q-42 0 -76 -20t-53 -50q-16 -26 -39 -14l-90 41q-28 15 -16 39q31 64 101 111t173 47q131 0 208 -66t77 -176q0 -43 -18.5 -90t-38.5 -78.5
t-62 -76.5t-57.5 -59.5t-57.5 -51.5l-82 -72h287q29 0 29 -29v-88q0 -28 -29 -28h-504z" />
    <glyph glyph-name="uni00B3" unicode="&#xb3;" horiz-adv-x="757"
d="M340 518q-78 0 -150 29t-114 74q-20 21 0 41l61 65q18 21 41 2q70 -55 162 -55q69 0 112.5 33t43.5 90q0 60 -43.5 94.5t-112.5 34.5q-46 0 -109 -13q-32 -10 -32 25v57q0 23 18 35l195 156h-269q-28 0 -28 28v89q0 28 28 28h461q31 0 31 -28v-84q0 -22 -17 -39
l-163 -140q87 -21 143.5 -80t56.5 -163q0 -72 -27 -127t-72.5 -87.5t-100 -48.5t-115.5 -16z" />
    <glyph glyph-name="acute" unicode="&#xb4;" horiz-adv-x="411"
d="M104 1100q-28 0 -37 16t3 41l65 137q16 37 58 37h112q28 0 37.5 -16t-2.5 -41l-70 -139q-17 -35 -57 -35h-109z" />
    <glyph glyph-name="paragraph" unicode="&#xb6;" horiz-adv-x="1214"
d="M459 0q-49 0 -49 49v617q-154 0 -240 84.5t-86 236.5q0 154 87.5 249t231.5 95h199q49 0 49 -49v-1233q0 -49 -49 -49h-143zM889 0q-49 0 -49 49v1233q0 49 49 49h143q49 0 49 -49v-1233q0 -49 -49 -49h-143z" />
    <glyph glyph-name="periodcentered" unicode="&#xb7;" horiz-adv-x="380"
d="M190 528q-61 0 -100 39t-39 101q0 60 39 98.5t100 38.5q60 0 100 -38.5t40 -98.5q0 -61 -40 -100.5t-100 -39.5z" />
    <glyph glyph-name="cedilla" unicode="&#xb8;" horiz-adv-x="423"
d="M174 -397q-49 0 -90 8t-41 55v29q0 48 53 39q39 -8 78 -8q80 0 80 41q0 38 -90 38q-19 0 -33 -2q-51 -6 -51 41l-2 52q2 0 2 2l43 69q20 33 59 33h39q29 0 40.5 -12.5t0.5 -32.5l-26 -45q145 -25 145 -143q0 -85 -56 -124.5t-151 -39.5z" />
    <glyph glyph-name="uni00B9" unicode="&#xb9;" horiz-adv-x="493"
d="M229 528q-28 0 -28 29v629h-146q-28 0 -28 28v89q0 28 28 28h275q30 0 30 -28v-746q0 -29 -30 -29h-101z" />
    <glyph glyph-name="guillemotright" unicode="&#xbb;" horiz-adv-x="1357"
d="M133 276q-32 0 -40.5 18.5t13.5 43.5l295 319l-295 320q-22 25 -13.5 43t40.5 18h180q39 0 62 -26l295 -320q30 -34 0 -69l-295 -320q-24 -27 -62 -27h-180zM696 276q-32 0 -40 18.5t14 43.5l295 319l-295 320q-22 25 -14 43t40 18h181q38 0 61 -26l295 -320
q30 -34 0 -69l-295 -320q-24 -27 -61 -27h-181z" />
    <glyph glyph-name="onequarter" unicode="&#xbc;" horiz-adv-x="1048"
d="M190 659q-24 0 -24 25v524h-121q-25 0 -25 27v72q0 24 25 24h229q11 0 18 -7t7 -17v-623q0 -10 -7.5 -17.5t-17.5 -7.5h-84zM123 0q-28 0 -36 16.5t7 42.5l764 1239q18 33 60 33h22q29 0 38.5 -16.5t-5.5 -42.5l-764 -1239q-18 -33 -59 -33h-27zM840 0q-25 0 -25 25v94
h-307q-25 0 -25 24v43q0 13 11 31l311 428q8 14 29 14h88q24 0 24 -24v-420h53q11 0 18 -7.5t7 -17.5v-47q0 -24 -25 -24h-53v-94q0 -25 -24 -25h-82zM612 215h203v277z" />
    <glyph glyph-name="onehalf" unicode="&#xbd;" horiz-adv-x="1157"
d="M190 659q-24 0 -24 25v524h-121q-25 0 -25 27v72q0 24 25 24h229q11 0 18 -7t7 -17v-623q0 -10 -7.5 -17.5t-17.5 -7.5h-84zM119 0q-28 0 -36 16.5t7 42.5l764 1239q18 33 59 33h23q29 0 38.5 -16.5t-5.5 -42.5l-764 -1239q-18 -33 -60 -33h-26zM684 0q-25 0 -25 25v63
q0 19 13 29l100 86q116 103 153 147q53 63 54 105q0 36 -24 58t-70 22q-35 0 -63.5 -16.5t-41.5 -41.5q-12 -18 -32 -12l-74 35q-22 11 -12 30q26 51 83.5 90t139.5 39q105 0 167 -53t62 -143q0 -43 -18.5 -86t-53.5 -83.5t-59 -63.5t-59 -54l-66 -59h232q24 0 24 -23v-69
q0 -25 -24 -25h-406z" />
    <glyph glyph-name="threequarters" unicode="&#xbe;" horiz-adv-x="1157"
d="M258 659q-65 0 -124 23t-95 61q-14 16 2 35l51 53q15 18 33 3q57 -46 133 -46q58 0 93.5 27t35.5 76t-35.5 76.5t-93.5 27.5q-47 0 -88 -10q-29 -6 -29 21l2 47q0 18 15 30l159 127h-221q-10 0 -17 7t-7 18v72q0 24 24 24h381q25 0 25 -24v-70q0 -18 -13 -31l-137 -116
q73 -17 120.5 -66t47.5 -133q0 -79 -39.5 -133t-96.5 -76.5t-126 -22.5zM231 0q-28 0 -35.5 16.5t7.5 42.5l764 1239q18 33 59 33h23q29 0 38 -16.5t-6 -42.5l-764 -1239q-18 -33 -59 -33h-27zM946 0q-24 0 -24 25v94h-308q-24 0 -24 24v43q0 14 10 31l311 428q8 14 29 14
h88q25 0 25 -24v-420h53q10 0 17 -7t7 -18v-47q0 -24 -24 -24h-53v-94q0 -25 -25 -25h-82zM719 215h203v277z" />
    <glyph glyph-name="questiondown" unicode="&#xbf;" horiz-adv-x="946"
d="M469 1079q-60 0 -99.5 40t-39.5 100q0 58 39.5 96.5t99.5 38.5q59 0 97 -38t38 -97q0 -60 -38.5 -100t-96.5 -40zM469 -12q-128 0 -226.5 40.5t-157 124t-58.5 201.5q0 47 10.5 90.5t22.5 71.5t38 63.5t40 51t46 49.5q5 6 25 27.5t25 27t21.5 24t21 25.5t17 23t16 24
t11 22.5t10 25t5 23.5t2.5 26q0 35 49 35h168q49 0 49 -35q0 -70 -23.5 -131.5t-50.5 -96.5t-67 -73q-47 -47 -65 -66t-47.5 -56.5t-40.5 -69.5t-11 -68q0 -61 44 -99.5t126 -38.5q59 0 115 33t90 82q23 39 63 23l142 -68q44 -18 28 -51q-54 -112 -168 -186t-270 -74z" />
    <glyph glyph-name="Agrave" unicode="&#xc0;" horiz-adv-x="1361"
d="M612 1454q-40 0 -57 35l-70 139q-12 25 -2.5 41.5t37.5 16.5h113q41 0 57 -37l66 -138q12 -25 2.5 -41t-37.5 -16h-109zM92 0q-28 0 -39 16t0 41l502 1235q16 39 57 39h119q41 0 57 -39l500 -1235q11 -25 0 -41t-39 -16h-178q-39 0 -55 39l-72 180h-547l-71 -180
q-16 -39 -56 -39h-178zM494 461h356l-178 452z" />
    <glyph glyph-name="Aacute" unicode="&#xc1;" horiz-adv-x="1361"
d="M631 1454q-28 0 -37.5 16t2.5 41l66 138q16 37 57 37h112q28 0 37.5 -16.5t-2.5 -41.5l-69 -139q-17 -35 -58 -35h-108zM92 0q-28 0 -39 16t0 41l502 1235q16 39 57 39h119q41 0 57 -39l500 -1235q11 -25 0 -41t-39 -16h-178q-39 0 -55 39l-72 180h-547l-71 -180
q-16 -39 -56 -39h-178zM494 461h356l-178 452z" />
    <glyph glyph-name="Acircumflex" unicode="&#xc2;" horiz-adv-x="1361"
d="M453 1454q-29 0 -38.5 17t5.5 42l90 140q20 33 59 33h211q40 0 60 -33l90 -140q15 -25 5.5 -42t-38.5 -17h-102q-40 0 -58 35l-61 106l-62 -108q-17 -33 -59 -33h-102zM92 0q-28 0 -39 16t0 41l502 1235q16 39 57 39h119q41 0 57 -39l500 -1235q11 -25 0 -41t-39 -16
h-178q-39 0 -55 39l-72 180h-547l-71 -180q-16 -39 -56 -39h-178zM494 461h356l-178 452z" />
    <glyph glyph-name="Atilde" unicode="&#xc3;" horiz-adv-x="1361"
d="M788 1419q-92 0 -155 72q-24 26 -40.5 37.5t-39.5 11.5q-44 0 -59 -51q-12 -45 -52 -45h-53q-53 0 -47 51q13 87 66 140t139 53q91 0 155 -72q45 -49 86 -49q52 0 66 47q9 47 51 47h51q25 0 38 -12t10 -35q-11 -89 -65.5 -142t-150.5 -53zM92 0q-28 0 -39 16t0 41
l502 1235q16 39 57 39h119q41 0 57 -39l500 -1235q11 -25 0 -41t-39 -16h-178q-39 0 -55 39l-72 180h-547l-71 -180q-16 -39 -56 -39h-178zM494 461h356l-178 452z" />
    <glyph glyph-name="Adieresis" unicode="&#xc4;" horiz-adv-x="1361"
d="M483 1423q-46 0 -82 33t-36 86q0 51 36 82t82 31q45 0 81 -31t36 -82q0 -53 -36.5 -86t-80.5 -33zM868 1423q-44 0 -80 33t-36 86q0 51 35.5 82t80.5 31q46 0 82.5 -31t36.5 -82q0 -53 -36.5 -86t-82.5 -33zM92 0q-28 0 -39 16t0 41l502 1235q16 39 57 39h119
q41 0 57 -39l500 -1235q11 -25 0 -41t-39 -16h-178q-39 0 -55 39l-72 180h-547l-71 -180q-16 -39 -56 -39h-178zM494 461h356l-178 452z" />
    <glyph glyph-name="Aring" unicode="&#xc5;" horiz-adv-x="1361"
d="M676 1419q-87 0 -143 54t-56 133q0 83 55.5 135.5t143.5 52.5q87 0 140.5 -52t53.5 -136q0 -80 -54 -133.5t-140 -53.5zM676 1532q39 0 56.5 23.5t17.5 50.5t-17.5 51t-56.5 24q-41 0 -57.5 -23.5t-16.5 -51.5q0 -27 16.5 -50.5t57.5 -23.5zM92 0q-28 0 -39 16t0 41
l502 1235q16 39 57 39h119q41 0 57 -39l500 -1235q11 -25 0 -41t-39 -16h-178q-39 0 -55 39l-72 180h-547l-71 -180q-16 -39 -56 -39h-178zM494 461h356l-178 452z" />
    <glyph glyph-name="AE" unicode="&#xc6;" horiz-adv-x="1992"
d="M92 0q-27 0 -37.5 16t0.5 41l514 1235q16 39 58 39h1194q49 0 49 -49v-143q0 -49 -49 -49h-539v-304h496q49 0 49 -49v-143q0 -49 -49 -49h-496v-303h539q49 0 49 -49v-144q0 -49 -49 -49h-756q-49 0 -49 49v496h-477l-211 -506q-16 -39 -58 -39h-178zM639 786h377v304
h-252z" />
    <glyph glyph-name="Ccedilla" unicode="&#xc7;" horiz-adv-x="1366"
d="M1243 283q38 -31 14 -66q-81 -102 -198.5 -162t-261.5 -69q3 -8 -4 -21l-27 -45q145 -25 145 -143q0 -85 -55.5 -124.5t-150.5 -39.5q-50 0 -91 8t-41 55v29q0 48 54 39q36 -8 78 -8q77 0 77 41q0 39 -88 39q-18 0 -32 -2q-52 -6 -52 41v18q0 36 15 61l26 43q5 9 8 11
q-263 29 -425 216t-162 462q0 146 49.5 272.5t137.5 216.5t213 141.5t271 51.5q160 0 290 -60t220 -170q28 -39 -10 -67l-135 -101q-36 -26 -70 8q-52 57 -128.5 91t-166.5 34q-182 0 -294.5 -117t-112.5 -300t112.5 -300.5t294.5 -117.5q168 0 295 131q31 39 70 8z" />
    <glyph glyph-name="Egrave" unicode="&#xc8;" horiz-adv-x="1116"
d="M494 1454q-41 0 -58 35l-69 139q-12 25 -2.5 41.5t36.5 16.5h113q41 0 57 -37l66 -138q12 -25 2.5 -41t-37.5 -16h-108zM141 0q-49 0 -49 49v1233q0 49 49 49h803q49 0 49 -49v-143q0 -49 -49 -49h-588v-304h545q49 0 49 -49v-143q0 -49 -49 -49h-545v-303h588
q49 0 49 -49v-144q0 -49 -49 -49h-803z" />
    <glyph glyph-name="Eacute" unicode="&#xc9;" horiz-adv-x="1116"
d="M512 1454q-28 0 -37.5 16t2.5 41l66 138q16 37 57 37h113q28 0 37.5 -16.5t-2.5 -41.5l-70 -139q-17 -35 -57 -35h-109zM141 0q-49 0 -49 49v1233q0 49 49 49h803q49 0 49 -49v-143q0 -49 -49 -49h-588v-304h545q49 0 49 -49v-143q0 -49 -49 -49h-545v-303h588
q49 0 49 -49v-144q0 -49 -49 -49h-803z" />
    <glyph glyph-name="Ecircumflex" unicode="&#xca;" horiz-adv-x="1116"
d="M334 1454q-29 0 -38.5 17t5.5 42l90 140q20 33 60 33h211q39 0 59 -33l90 -140q15 -25 5.5 -42t-38.5 -17h-102q-40 0 -58 35l-61 106l-61 -108q-17 -33 -60 -33h-102zM141 0q-49 0 -49 49v1233q0 49 49 49h803q49 0 49 -49v-143q0 -49 -49 -49h-588v-304h545
q49 0 49 -49v-143q0 -49 -49 -49h-545v-303h588q49 0 49 -49v-144q0 -49 -49 -49h-803z" />
    <glyph glyph-name="Edieresis" unicode="&#xcb;" horiz-adv-x="1116"
d="M365 1423q-46 0 -82.5 33t-36.5 86q0 51 36.5 82t82.5 31q45 0 80.5 -31t35.5 -82q0 -53 -36 -86t-80 -33zM750 1423q-44 0 -80.5 33t-36.5 86q0 51 36 82t81 31q46 0 82 -31t36 -82q0 -53 -36 -86t-82 -33zM141 0q-49 0 -49 49v1233q0 49 49 49h803q49 0 49 -49v-143
q0 -49 -49 -49h-588v-304h545q49 0 49 -49v-143q0 -49 -49 -49h-545v-303h588q49 0 49 -49v-144q0 -49 -49 -49h-803z" />
    <glyph glyph-name="Igrave" unicode="&#xcc;" horiz-adv-x="489"
d="M160 1454q-41 0 -58 35l-69 139q-12 25 -2.5 41.5t37.5 16.5h112q42 0 58 -37l65 -138q12 -25 2.5 -41t-37.5 -16h-108zM141 0q-49 0 -49 49v1233q0 49 49 49h166q49 0 49 -49v-1233q0 -49 -49 -49h-166z" />
    <glyph glyph-name="Iacute" unicode="&#xcd;" horiz-adv-x="489"
d="M180 1454q-28 0 -37.5 16t2.5 41l66 138q16 37 57 37h113q28 0 37.5 -16.5t-2.5 -41.5l-70 -139q-17 -35 -57 -35h-109zM141 0q-49 0 -49 49v1233q0 49 49 49h166q49 0 49 -49v-1233q0 -49 -49 -49h-166z" />
    <glyph glyph-name="Icircumflex" unicode="&#xce;" horiz-adv-x="489"
d="M0 1454q-29 0 -38.5 17t5.5 42l90 140q20 33 60 33h211q39 0 59 -33l90 -140q15 -25 5.5 -42t-38.5 -17h-102q-39 0 -57 35l-62 106l-61 -108q-17 -33 -60 -33h-102zM141 0q-49 0 -49 49v1233q0 49 49 49h166q49 0 49 -49v-1233q0 -49 -49 -49h-166z" />
    <glyph glyph-name="Idieresis" unicode="&#xcf;" horiz-adv-x="489"
d="M31 1423q-46 0 -82.5 33t-36.5 86q0 51 36.5 82t82.5 31q45 0 80.5 -31t35.5 -82q0 -53 -36 -86t-80 -33zM416 1423q-44 0 -80.5 33t-36.5 86q0 51 36 82t81 31q46 0 82.5 -31t36.5 -82q0 -53 -36.5 -86t-82.5 -33zM141 0q-49 0 -49 49v1233q0 49 49 49h166q49 0 49 -49
v-1233q0 -49 -49 -49h-166z" />
    <glyph glyph-name="Ntilde" unicode="&#xd1;" horiz-adv-x="1306"
d="M754 1419q-93 0 -156 72q-24 26 -40.5 37.5t-39.5 11.5q-44 0 -59 -51q-12 -45 -51 -45h-54q-53 0 -47 51q13 87 66 140t139 53q92 0 156 -72q45 -49 86 -49q51 0 65 47q9 47 51 47h52q53 0 47 -47q-11 -89 -65 -142t-150 -53zM141 0q-49 0 -49 49v1233q0 49 49 49h170
q40 0 60 -33l538 -835v819q0 49 49 49h166q23 0 36.5 -13t13.5 -36v-1233q0 -23 -13.5 -36t-36.5 -13h-168q-39 0 -59 33l-539 833v-817q0 -49 -49 -49h-168z" />
    <glyph glyph-name="Ograve" unicode="&#xd2;" horiz-adv-x="1513"
d="M682 1454q-40 0 -57 35l-70 139q-12 25 -2.5 41.5t37.5 16.5h112q42 0 58 -37l65 -138q12 -25 3 -41t-37 -16h-109zM743 -16q-146 0 -271 51.5t-213 141.5t-137.5 216.5t-49.5 272.5t49.5 272.5t137.5 216.5t213 141.5t271 51.5q195 0 347.5 -88t236.5 -243t84 -351
t-84 -351t-236.5 -243t-347.5 -88zM743 248q181 0 291.5 117t110.5 301q0 183 -110.5 300t-291.5 117q-182 0 -294.5 -117t-112.5 -300t112.5 -300.5t294.5 -117.5z" />
    <glyph glyph-name="Oacute" unicode="&#xd3;" horiz-adv-x="1513"
d="M700 1454q-28 0 -37 16t3 41l65 138q16 37 57 37h113q28 0 37.5 -16.5t-2.5 -41.5l-70 -139q-17 -35 -57 -35h-109zM743 -16q-146 0 -271 51.5t-213 141.5t-137.5 216.5t-49.5 272.5t49.5 272.5t137.5 216.5t213 141.5t271 51.5q195 0 347.5 -88t236.5 -243t84 -351
t-84 -351t-236.5 -243t-347.5 -88zM743 248q181 0 291.5 117t110.5 301q0 183 -110.5 300t-291.5 117q-182 0 -294.5 -117t-112.5 -300t112.5 -300.5t294.5 -117.5z" />
    <glyph glyph-name="Ocircumflex" unicode="&#xd4;" horiz-adv-x="1513"
d="M522 1454q-29 0 -38.5 17t5.5 42l91 140q20 33 59 33h211q39 0 59 -33l90 -140q15 -25 6 -42t-38 -17h-103q-39 0 -57 35l-62 106l-61 -108q-17 -33 -59 -33h-103zM743 -16q-146 0 -271 51.5t-213 141.5t-137.5 216.5t-49.5 272.5t49.5 272.5t137.5 216.5t213 141.5
t271 51.5q195 0 347.5 -88t236.5 -243t84 -351t-84 -351t-236.5 -243t-347.5 -88zM743 248q181 0 291.5 117t110.5 301q0 183 -110.5 300t-291.5 117q-182 0 -294.5 -117t-112.5 -300t112.5 -300.5t294.5 -117.5z" />
    <glyph glyph-name="Otilde" unicode="&#xd5;" horiz-adv-x="1513"
d="M858 1419q-93 0 -156 72q-17 18 -26 26.5t-23 15.5t-30 7q-45 0 -60 -51q-12 -45 -51 -45h-53q-53 0 -47 51q13 87 65.5 140t138.5 53q92 0 156 -72q45 -49 86 -49q52 0 66 47q9 47 51 47h51q53 0 47 -47q-11 -89 -65 -142t-150 -53zM743 -16q-146 0 -271 51.5
t-213 141.5t-137.5 216.5t-49.5 272.5t49.5 272.5t137.5 216.5t213 141.5t271 51.5q195 0 347.5 -88t236.5 -243t84 -351t-84 -351t-236.5 -243t-347.5 -88zM743 248q181 0 291.5 117t110.5 301q0 183 -110.5 300t-291.5 117q-182 0 -294.5 -117t-112.5 -300t112.5 -300.5
t294.5 -117.5z" />
    <glyph glyph-name="Odieresis" unicode="&#xd6;" horiz-adv-x="1513"
d="M553 1423q-46 0 -82.5 33t-36.5 86q0 51 36.5 82t82.5 31q45 0 81 -31t36 -82q0 -53 -36.5 -86t-80.5 -33zM938 1423q-44 0 -80.5 33t-36.5 86q0 51 36 82t81 31q46 0 82.5 -31t36.5 -82q0 -53 -36.5 -86t-82.5 -33zM743 -16q-146 0 -271 51.5t-213 141.5t-137.5 216.5
t-49.5 272.5t49.5 272.5t137.5 216.5t213 141.5t271 51.5q195 0 347.5 -88t236.5 -243t84 -351t-84 -351t-236.5 -243t-347.5 -88zM743 248q181 0 291.5 117t110.5 301q0 183 -110.5 300t-291.5 117q-182 0 -294.5 -117t-112.5 -300t112.5 -300.5t294.5 -117.5z" />
    <glyph glyph-name="multiply" unicode="&#xd7;" horiz-adv-x="1030"
d="M276 295q-36 -35 -69 -2l-78 72q-38 33 -2 69l223 221l-223 222q-35 35 0 69l80 78q36 31 69 -2l222 -219l219 219q33 33 69 2l76 -72q34 -34 0 -69l-221 -221l221 -220q34 -34 0 -69l-78 -78q-34 -35 -69 0l-221 219z" />
    <glyph glyph-name="Oslash" unicode="&#xd8;" horiz-adv-x="1513"
d="M743 -16q-199 0 -358 94l-39 -49q-23 -29 -59 -29h-103q-31 0 -39 17t11 42l96 125q-180 189 -180 482q0 146 49.5 272.5t137.5 216.5t213 141.5t271 51.5q192 0 349 -88l47 59q23 29 59 29h102q31 0 39.5 -17.5t-10.5 -42.5l-104 -133q90 -91 138 -216.5t48 -272.5
q0 -196 -84 -351t-236.5 -243t-347.5 -88zM418 397l508 650q-76 36 -183 36q-185 0 -296 -114.5t-111 -302.5q0 -161 82 -269zM743 248q185 0 293.5 114.5t108.5 303.5q0 163 -86 276l-510 -653q87 -41 194 -41z" />
    <glyph glyph-name="Ugrave" unicode="&#xd9;" horiz-adv-x="1257"
d="M553 1454q-40 0 -57 35l-70 139q-12 25 -2.5 41.5t37.5 16.5h112q42 0 58 -37l65 -138q12 -25 3 -41t-37 -16h-109zM608 -16q-161 0 -280 67.5t-177.5 176.5t-58.5 243v811q0 49 49 49h166q49 0 49 -49v-782q0 -130 71 -194t181 -64t181 64t71 194v782q0 49 49 49h166
q49 0 49 -49v-811q0 -134 -58.5 -243t-177.5 -176.5t-280 -67.5z" />
    <glyph glyph-name="Uacute" unicode="&#xda;" horiz-adv-x="1257"
d="M571 1454q-28 0 -37 16t3 41l65 138q16 37 57 37h113q28 0 37.5 -16.5t-2.5 -41.5l-70 -139q-17 -35 -57 -35h-109zM608 -16q-161 0 -280 67.5t-177.5 176.5t-58.5 243v811q0 49 49 49h166q49 0 49 -49v-782q0 -130 71 -194t181 -64t181 64t71 194v782q0 49 49 49h166
q49 0 49 -49v-811q0 -134 -58.5 -243t-177.5 -176.5t-280 -67.5z" />
    <glyph glyph-name="Ucircumflex" unicode="&#xdb;" horiz-adv-x="1257"
d="M393 1454q-29 0 -38.5 17t5.5 42l91 140q20 33 59 33h211q39 0 59 -33l90 -140q15 -25 6 -42t-38 -17h-103q-39 0 -57 35l-62 106l-61 -108q-17 -33 -59 -33h-103zM608 -16q-161 0 -280 67.5t-177.5 176.5t-58.5 243v811q0 49 49 49h166q49 0 49 -49v-782q0 -130 71 -194
t181 -64t181 64t71 194v782q0 49 49 49h166q49 0 49 -49v-811q0 -134 -58.5 -243t-177.5 -176.5t-280 -67.5z" />
    <glyph glyph-name="Udieresis" unicode="&#xdc;" horiz-adv-x="1257"
d="M424 1423q-46 0 -82.5 33t-36.5 86q0 51 36.5 82t82.5 31q45 0 81 -31t36 -82q0 -53 -36.5 -86t-80.5 -33zM809 1423q-44 0 -80.5 33t-36.5 86q0 51 36 82t81 31q46 0 82.5 -31t36.5 -82q0 -53 -36.5 -86t-82.5 -33zM608 -16q-161 0 -280 67.5t-177.5 176.5t-58.5 243
v811q0 49 49 49h166q49 0 49 -49v-782q0 -130 71 -194t181 -64t181 64t71 194v782q0 49 49 49h166q49 0 49 -49v-811q0 -134 -58.5 -243t-177.5 -176.5t-280 -67.5z" />
    <glyph glyph-name="Yacute" unicode="&#xdd;" horiz-adv-x="1280"
d="M580 1454q-28 0 -37.5 16t2.5 41l65 138q16 37 58 37h112q28 0 37.5 -16.5t-2.5 -41.5l-70 -139q-17 -35 -57 -35h-108zM541 0q-49 0 -49 49v516l-437 707q-15 26 -5.5 42.5t38.5 16.5h195q41 0 59 -33l281 -456l280 456q18 33 60 33h196q29 0 38.5 -16.5t-5.5 -42.5
l-436 -707v-516q0 -49 -49 -49h-166z" />
    <glyph glyph-name="germandbls" unicode="&#xdf;" horiz-adv-x="1105"
d="M141 0q-49 0 -49 49v862q0 111 37 197.5t102 139t147.5 79.5t178.5 27q187 0 306.5 -96.5t119.5 -262.5q0 -167 -123 -262q174 -106 174 -336q0 -173 -117.5 -285t-332.5 -112h-111q-49 0 -49 49v129q0 49 49 49h49q256 0 256 170q0 52 -23 88.5t-62.5 55t-81 26.5
t-89.5 8h-49q-23 0 -36 13.5t-13 36.5v114q0 49 49 49h37q102 0 167.5 47.5t65.5 131.5q0 77 -53.5 123.5t-132.5 46.5q-91 0 -149 -58.5t-58 -179.5v-850q0 -49 -49 -49h-160z" />
    <glyph glyph-name="agrave" unicode="&#xe0;"
d="M541 1079q-41 0 -58 35l-69 139q-12 25 -2.5 41.5t37.5 16.5h112q41 0 57 -37l66 -137q12 -25 2.5 -41.5t-37.5 -16.5h-108zM504 -16q-193 0 -320 138t-127 349q0 213 126.5 349t320.5 136q170 0 270 -114v51q0 49 49 49h158q49 0 49 -49v-844q0 -49 -49 -49h-158
q-49 0 -49 49v49q-100 -114 -270 -114zM541 225q104 0 168.5 69.5t64.5 176.5t-64.5 176.5t-168.5 69.5q-105 0 -170.5 -69.5t-65.5 -176.5t65.5 -176.5t170.5 -69.5z" />
    <glyph glyph-name="aacute" unicode="&#xe1;"
d="M559 1079q-28 0 -37.5 16.5t2.5 41.5l66 137q16 37 57 37h113q28 0 37.5 -16.5t-2.5 -41.5l-70 -139q-17 -35 -57 -35h-109zM504 -16q-193 0 -320 138t-127 349q0 213 126.5 349t320.5 136q170 0 270 -114v51q0 49 49 49h158q49 0 49 -49v-844q0 -49 -49 -49h-158
q-49 0 -49 49v49q-100 -114 -270 -114zM541 225q104 0 168.5 69.5t64.5 176.5t-64.5 176.5t-168.5 69.5q-105 0 -170.5 -69.5t-65.5 -176.5t65.5 -176.5t170.5 -69.5z" />
    <glyph glyph-name="acircumflex" unicode="&#xe2;"
d="M381 1079q-29 0 -38.5 17.5t5.5 42.5l90 139q20 33 60 33h211q39 0 59 -33l90 -139q15 -25 5.5 -42.5t-38.5 -17.5h-102q-39 0 -57 35l-62 107l-61 -109q-17 -33 -60 -33h-102zM504 -16q-193 0 -320 138t-127 349q0 213 126.5 349t320.5 136q170 0 270 -114v51
q0 49 49 49h158q49 0 49 -49v-844q0 -49 -49 -49h-158q-49 0 -49 49v49q-100 -114 -270 -114zM541 225q104 0 168.5 69.5t64.5 176.5t-64.5 176.5t-168.5 69.5q-105 0 -170.5 -69.5t-65.5 -176.5t65.5 -176.5t170.5 -69.5z" />
    <glyph glyph-name="atilde" unicode="&#xe3;"
d="M717 1044q-93 0 -156 72q-24 26 -40.5 37.5t-39.5 11.5q-44 0 -59 -51q-12 -45 -51 -45h-54q-53 0 -47 51q13 87 66 140t139 53q92 0 156 -72q45 -49 86 -49q51 0 65 47q9 47 52 47h51q53 0 47 -47q-11 -89 -65 -142t-150 -53zM504 -16q-193 0 -320 138t-127 349
q0 213 126.5 349t320.5 136q170 0 270 -114v51q0 49 49 49h158q49 0 49 -49v-844q0 -49 -49 -49h-158q-49 0 -49 49v49q-100 -114 -270 -114zM541 225q104 0 168.5 69.5t64.5 176.5t-64.5 176.5t-168.5 69.5q-105 0 -170.5 -69.5t-65.5 -176.5t65.5 -176.5t170.5 -69.5z" />
    <glyph glyph-name="adieresis" unicode="&#xe4;"
d="M412 1049q-46 0 -82.5 32.5t-36.5 85.5q0 51 36.5 82t82.5 31q45 0 80.5 -31t35.5 -82q0 -53 -36 -85.5t-80 -32.5zM797 1049q-45 0 -81 33t-36 85q0 51 36 82t81 31q46 0 82 -31t36 -82q0 -53 -36 -85.5t-82 -32.5zM504 -16q-193 0 -320 138t-127 349q0 213 126.5 349
t320.5 136q170 0 270 -114v51q0 49 49 49h158q49 0 49 -49v-844q0 -49 -49 -49h-158q-49 0 -49 49v49q-100 -114 -270 -114zM541 225q104 0 168.5 69.5t64.5 176.5t-64.5 176.5t-168.5 69.5q-105 0 -170.5 -69.5t-65.5 -176.5t65.5 -176.5t170.5 -69.5z" />
    <glyph glyph-name="aring" unicode="&#xe5;"
d="M604 1044q-87 0 -142.5 54t-55.5 133q0 83 55 135.5t143 52.5q87 0 141 -52t54 -136q0 -79 -54.5 -133t-140.5 -54zM604 1157q39 0 56.5 23.5t17.5 50.5t-17.5 51.5t-56.5 24.5q-40 0 -57 -24t-17 -52q0 -27 16.5 -50.5t57.5 -23.5zM504 -16q-193 0 -320 138t-127 349
q0 213 126.5 349t320.5 136q170 0 270 -114v51q0 49 49 49h158q49 0 49 -49v-844q0 -49 -49 -49h-158q-49 0 -49 49v49q-100 -114 -270 -114zM541 225q104 0 168.5 69.5t64.5 176.5t-64.5 176.5t-168.5 69.5q-105 0 -170.5 -69.5t-65.5 -176.5t65.5 -176.5t170.5 -69.5z" />
    <glyph glyph-name="ae" unicode="&#xe6;" horiz-adv-x="1832"
d="M467 -16q-199 0 -304.5 62.5t-105.5 203.5q0 61 21.5 108t65.5 78t93.5 51.5t122.5 31.5t135 16t148 8q-4 126 -53.5 173.5t-130.5 47.5q-103 0 -152 -62q-27 -38 -65 -24l-111 41q-50 19 -27 61q95 176 373 176q157 0 260.5 -66.5t139.5 -180.5q55 116 161.5 181.5
t249.5 65.5q195 0 322 -137t127 -348v-31q0 -49 -49 -49h-592q18 -92 75.5 -141t135.5 -49q114 0 178 69q33 36 69 13l99 -68q43 -28 12 -70q-64 -76 -158 -118.5t-207 -42.5q-148 0 -260 71t-166 191q-19 -57 -47 -100t-73.5 -81.5t-118 -59.5t-168.5 -21zM1092 547h407
q-13 104 -67.5 155.5t-128.5 51.5q-95 0 -147.5 -56t-63.5 -151zM451 164q45 0 77 9t58.5 33t40.5 69t16 112q-60 -2 -96.5 -4.5t-80.5 -7.5t-69 -13.5t-48.5 -21.5t-33.5 -32.5t-10 -45.5q0 -98 146 -98z" />
    <glyph glyph-name="ccedilla" unicode="&#xe7;" horiz-adv-x="999"
d="M883 203q39 -29 12 -64q-113 -132 -295 -153q3 -10 -4 -21l-27 -45q146 -25 146 -143q0 -85 -56 -124.5t-151 -39.5q-49 0 -90 8t-41 55v29q0 48 53 39q36 -8 78 -8q78 0 78 41q0 39 -88 39q-19 0 -33 -2q-51 -6 -51 41v18q0 38 14 61l27 43l6 11q-182 25 -293 157.5
t-111 325.5q0 214 134.5 350.5t347.5 136.5q220 0 352 -151q31 -39 -8 -70l-107 -82q-34 -24 -69 4q-65 58 -162 58q-105 0 -171.5 -69.5t-66.5 -176.5t66.5 -176.5t171.5 -69.5q97 0 162 54q35 28 69 4z" />
    <glyph glyph-name="egrave" unicode="&#xe8;" horiz-adv-x="1077"
d="M465 1079q-40 0 -57 35l-70 139q-12 25 -2.5 41.5t37.5 16.5h112q42 0 58 -37l65 -137q12 -25 2.5 -41.5t-37.5 -16.5h-108zM537 -20q-214 0 -347 139t-133 352q0 214 129 352t340 138q207 0 330 -137.5t123 -352.5v-20q0 -23 -13 -36.5t-36 -13.5h-627q19 -94 82 -148
t152 -54q117 0 192 67q35 30 68 6l96 -71q41 -30 14 -64q-64 -75 -159.5 -116t-210.5 -41zM307 563h432q-18 88 -72 141.5t-141 53.5q-86 0 -143 -52t-76 -143z" />
    <glyph glyph-name="eacute" unicode="&#xe9;" horiz-adv-x="1077"
d="M483 1079q-27 0 -36.5 16.5t2.5 41.5l65 137q16 37 57 37h113q28 0 37.5 -16.5t-2.5 -41.5l-70 -139q-17 -35 -57 -35h-109zM537 -20q-214 0 -347 139t-133 352q0 214 129 352t340 138q207 0 330 -137.5t123 -352.5v-20q0 -23 -13 -36.5t-36 -13.5h-627q19 -94 82 -148
t152 -54q117 0 192 67q35 30 68 6l96 -71q41 -30 14 -64q-64 -75 -159.5 -116t-210.5 -41zM307 563h432q-18 88 -72 141.5t-141 53.5q-86 0 -143 -52t-76 -143z" />
    <glyph glyph-name="ecircumflex" unicode="&#xea;" horiz-adv-x="1077"
d="M305 1079q-29 0 -38.5 17.5t5.5 42.5l90 139q20 33 60 33h211q39 0 59 -33l90 -139q15 -25 6 -42.5t-38 -17.5h-103q-39 0 -57 35l-62 107l-61 -109q-17 -33 -59 -33h-103zM537 -20q-214 0 -347 139t-133 352q0 214 129 352t340 138q207 0 330 -137.5t123 -352.5v-20
q0 -23 -13 -36.5t-36 -13.5h-627q19 -94 82 -148t152 -54q117 0 192 67q35 30 68 6l96 -71q41 -30 14 -64q-64 -75 -159.5 -116t-210.5 -41zM307 563h432q-18 88 -72 141.5t-141 53.5q-86 0 -143 -52t-76 -143z" />
    <glyph glyph-name="edieresis" unicode="&#xeb;" horiz-adv-x="1077"
d="M336 1049q-46 0 -82.5 32.5t-36.5 85.5q0 51 36.5 82t82.5 31q45 0 81 -31t36 -82q0 -52 -36 -85t-81 -33zM721 1049q-45 0 -81 33t-36 85q0 51 36 82t81 31q46 0 82.5 -31t36.5 -82q0 -53 -36.5 -85.5t-82.5 -32.5zM537 -20q-214 0 -347 139t-133 352q0 214 129 352
t340 138q207 0 330 -137.5t123 -352.5v-20q0 -23 -13 -36.5t-36 -13.5h-627q19 -94 82 -148t152 -54q117 0 192 67q35 30 68 6l96 -71q41 -30 14 -64q-64 -75 -159.5 -116t-210.5 -41zM307 563h432q-18 88 -72 141.5t-141 53.5q-86 0 -143 -52t-76 -143z" />
    <glyph glyph-name="igrave" unicode="&#xec;" horiz-adv-x="493"
d="M162 1079q-41 0 -58 35l-69 139q-12 25 -2.5 41.5t37.5 16.5h112q42 0 58 -37l65 -137q12 -25 2.5 -41.5t-37.5 -16.5h-108zM147 0q-49 0 -49 49v844q0 49 49 49h158q49 0 49 -49v-844q0 -49 -49 -49h-158z" />
    <glyph glyph-name="iacute" unicode="&#xed;" horiz-adv-x="493"
d="M182 1079q-28 0 -37.5 16.5t2.5 41.5l66 137q16 37 57 37h113q28 0 37.5 -16.5t-2.5 -41.5l-70 -139q-17 -35 -57 -35h-109zM147 0q-49 0 -49 49v844q0 49 49 49h158q49 0 49 -49v-844q0 -49 -49 -49h-158z" />
    <glyph glyph-name="icircumflex" unicode="&#xee;" horiz-adv-x="493"
d="M2 1079q-29 0 -38.5 17.5t5.5 42.5l90 139q20 33 60 33h211q39 0 59 -33l90 -139q15 -25 5.5 -42.5t-38.5 -17.5h-102q-39 0 -57 35l-62 107l-61 -109q-17 -33 -60 -33h-102zM147 0q-49 0 -49 49v844q0 49 49 49h158q49 0 49 -49v-844q0 -49 -49 -49h-158z" />
    <glyph glyph-name="idieresis" unicode="&#xef;" horiz-adv-x="493"
d="M33 1049q-46 0 -82.5 32.5t-36.5 85.5q0 51 36.5 82t82.5 31q45 0 81 -31t36 -82q0 -52 -36 -85t-81 -33zM418 1049q-45 0 -81 33t-36 85q0 51 36 82t81 31q46 0 82.5 -31t36.5 -82q0 -53 -36.5 -85.5t-82.5 -32.5zM147 0q-49 0 -49 49v844q0 49 49 49h158q49 0 49 -49
v-844q0 -49 -49 -49h-158z" />
    <glyph glyph-name="ntilde" unicode="&#xf1;" horiz-adv-x="1112"
d="M649 1044q-92 0 -155 72q-24 26 -40.5 37.5t-39.5 11.5q-45 0 -60 -51q-12 -45 -51 -45h-53q-53 0 -47 51q13 87 66 140t139 53q91 0 155 -72q45 -49 86 -49q52 0 66 47q9 47 51 47h51q53 0 47 -47q-11 -89 -65 -142t-150 -53zM141 0q-49 0 -49 49v844q0 49 49 49h158
q49 0 49 -45v-45q96 104 264 104q54 0 104 -11.5t98.5 -39.5t84.5 -70.5t58 -109t22 -150.5v-526q0 -49 -49 -49h-158q-49 0 -49 49v488q0 48 -13 85t-32.5 59t-45.5 36t-49.5 19t-47.5 5t-48 -5t-49.5 -19t-45 -36t-32 -59t-12.5 -85v-488q0 -49 -49 -49h-158z" />
    <glyph glyph-name="ograve" unicode="&#xf2;" horiz-adv-x="1126"
d="M481 1079q-40 0 -57 35l-70 139q-12 25 -2.5 41.5t37.5 16.5h113q41 0 57 -37l66 -137q12 -25 2.5 -41.5t-37.5 -16.5h-109zM543 -20q-213 0 -349.5 139.5t-136.5 351.5q0 214 136.5 352t349.5 138q214 0 349.5 -137.5t135.5 -352.5q0 -212 -135.5 -351.5t-349.5 -139.5z
M543 225q104 0 168.5 69.5t64.5 176.5t-64.5 176.5t-168.5 69.5q-103 0 -168.5 -69.5t-65.5 -176.5t65.5 -176.5t168.5 -69.5z" />
    <glyph glyph-name="oacute" unicode="&#xf3;" horiz-adv-x="1126"
d="M500 1079q-28 0 -37.5 16.5t2.5 41.5l65 137q16 37 58 37h112q28 0 37.5 -16.5t-2.5 -41.5l-69 -139q-17 -35 -58 -35h-108zM543 -20q-213 0 -349.5 139.5t-136.5 351.5q0 214 136.5 352t349.5 138q214 0 349.5 -137.5t135.5 -352.5q0 -212 -135.5 -351.5t-349.5 -139.5z
M543 225q104 0 168.5 69.5t64.5 176.5t-64.5 176.5t-168.5 69.5q-103 0 -168.5 -69.5t-65.5 -176.5t65.5 -176.5t168.5 -69.5z" />
    <glyph glyph-name="ocircumflex" unicode="&#xf4;" horiz-adv-x="1126"
d="M322 1079q-29 0 -38.5 17.5t5.5 42.5l90 139q20 33 59 33h211q40 0 60 -33l90 -139q15 -25 5.5 -42.5t-38.5 -17.5h-102q-40 0 -58 35l-61 107l-62 -109q-17 -33 -59 -33h-102zM543 -20q-213 0 -349.5 139.5t-136.5 351.5q0 214 136.5 352t349.5 138q214 0 349.5 -137.5
t135.5 -352.5q0 -212 -135.5 -351.5t-349.5 -139.5zM543 225q104 0 168.5 69.5t64.5 176.5t-64.5 176.5t-168.5 69.5q-103 0 -168.5 -69.5t-65.5 -176.5t65.5 -176.5t168.5 -69.5z" />
    <glyph glyph-name="otilde" unicode="&#xf5;" horiz-adv-x="1126"
d="M657 1044q-92 0 -155 72q-24 26 -40.5 37.5t-39.5 11.5q-45 0 -60 -51q-12 -45 -51 -45h-53q-53 0 -47 51q13 87 66 140t139 53q91 0 155 -72q45 -49 86 -49q52 0 66 47q9 47 51 47h51q53 0 47 -47q-11 -89 -65 -142t-150 -53zM543 -20q-213 0 -349.5 139.5t-136.5 351.5
q0 214 136.5 352t349.5 138q214 0 349.5 -137.5t135.5 -352.5q0 -212 -135.5 -351.5t-349.5 -139.5zM543 225q104 0 168.5 69.5t64.5 176.5t-64.5 176.5t-168.5 69.5q-103 0 -168.5 -69.5t-65.5 -176.5t65.5 -176.5t168.5 -69.5z" />
    <glyph glyph-name="odieresis" unicode="&#xf6;" horiz-adv-x="1126"
d="M352 1049q-46 0 -82.5 32.5t-36.5 85.5q0 51 36.5 82t82.5 31q45 0 81 -31t36 -82q0 -52 -36 -85t-81 -33zM737 1049q-44 0 -80 32.5t-36 85.5q0 51 35.5 82t80.5 31q46 0 82.5 -31t36.5 -82q0 -53 -36.5 -85.5t-82.5 -32.5zM543 -20q-213 0 -349.5 139.5t-136.5 351.5
q0 214 136.5 352t349.5 138q214 0 349.5 -137.5t135.5 -352.5q0 -212 -135.5 -351.5t-349.5 -139.5zM543 225q104 0 168.5 69.5t64.5 176.5t-64.5 176.5t-168.5 69.5q-103 0 -168.5 -69.5t-65.5 -176.5t65.5 -176.5t168.5 -69.5z" />
    <glyph glyph-name="divide" unicode="&#xf7;" horiz-adv-x="1069"
d="M514 891q-59 0 -97 38.5t-38 98.5t38 97.5t97 37.5q60 0 98.5 -37.5t38.5 -97.5t-38.5 -98.5t-98.5 -38.5zM141 561q-49 0 -49 49v99q0 49 49 49h746q49 0 49 -49v-99q0 -49 -49 -49h-746zM514 158q-59 0 -97 37.5t-38 97.5t38 97.5t97 37.5q60 0 98.5 -37.5t38.5 -97.5
t-38.5 -97.5t-98.5 -37.5z" />
    <glyph glyph-name="oslash" unicode="&#xf8;" horiz-adv-x="1126"
d="M543 -20q-156 0 -275 77l-22 -28q-23 -29 -60 -29q-23 0 -27 15.5t11 37.5l39 51q-72 67 -112 161.5t-40 205.5q0 214 136.5 352t349.5 138q156 0 274 -76l23 28q23 29 59 29q23 0 28.5 -15.5t-9.5 -35.5l-41 -51q151 -138 151 -369q0 -212 -135.5 -351.5t-349.5 -139.5z
M367 305l297 381q-54 31 -121 31q-103 0 -168.5 -69.5t-65.5 -176.5q0 -99 58 -166zM543 225q104 0 168.5 69.5t64.5 176.5q0 100 -55 168l-299 -383q54 -31 121 -31z" />
    <glyph glyph-name="ugrave" unicode="&#xf9;" horiz-adv-x="1112"
d="M481 1079q-40 0 -57 35l-70 139q-12 25 -2.5 41.5t37.5 16.5h113q41 0 57 -37l66 -137q12 -25 2.5 -41.5t-37.5 -16.5h-109zM461 -16q-54 0 -104 11.5t-99 39.5t-85 70.5t-58.5 109t-22.5 150.5v528q0 49 49 49h158q49 0 49 -49v-487q0 -59 19 -101.5t49.5 -63.5
t61 -30.5t61.5 -9.5t60.5 9t58.5 30.5t47 64t18 101.5v487q0 49 49 49h158q49 0 49 -49v-844q0 -49 -49 -49h-158q-49 0 -49 43v43q-97 -102 -262 -102z" />
    <glyph glyph-name="uacute" unicode="&#xfa;" horiz-adv-x="1112"
d="M500 1079q-28 0 -37.5 16.5t2.5 41.5l65 137q16 37 58 37h112q28 0 37.5 -16.5t-2.5 -41.5l-69 -139q-17 -35 -58 -35h-108zM461 -16q-54 0 -104 11.5t-99 39.5t-85 70.5t-58.5 109t-22.5 150.5v528q0 49 49 49h158q49 0 49 -49v-487q0 -59 19 -101.5t49.5 -63.5
t61 -30.5t61.5 -9.5t60.5 9t58.5 30.5t47 64t18 101.5v487q0 49 49 49h158q49 0 49 -49v-844q0 -49 -49 -49h-158q-49 0 -49 43v43q-97 -102 -262 -102z" />
    <glyph glyph-name="ucircumflex" unicode="&#xfb;" horiz-adv-x="1112"
d="M322 1079q-29 0 -38.5 17.5t5.5 42.5l90 139q20 33 59 33h211q40 0 60 -33l90 -139q15 -25 5.5 -42.5t-38.5 -17.5h-102q-40 0 -58 35l-61 107l-62 -109q-17 -33 -59 -33h-102zM461 -16q-54 0 -104 11.5t-99 39.5t-85 70.5t-58.5 109t-22.5 150.5v528q0 49 49 49h158
q49 0 49 -49v-487q0 -59 19 -101.5t49.5 -63.5t61 -30.5t61.5 -9.5t60.5 9t58.5 30.5t47 64t18 101.5v487q0 49 49 49h158q49 0 49 -49v-844q0 -49 -49 -49h-158q-49 0 -49 43v43q-97 -102 -262 -102z" />
    <glyph glyph-name="udieresis" unicode="&#xfc;" horiz-adv-x="1112"
d="M352 1049q-46 0 -82.5 32.5t-36.5 85.5q0 51 36.5 82t82.5 31q45 0 81 -31t36 -82q0 -52 -36 -85t-81 -33zM737 1049q-44 0 -80 32.5t-36 85.5q0 51 35.5 82t80.5 31q46 0 82.5 -31t36.5 -82q0 -53 -36.5 -85.5t-82.5 -32.5zM461 -16q-54 0 -104 11.5t-99 39.5t-85 70.5
t-58.5 109t-22.5 150.5v528q0 49 49 49h158q49 0 49 -49v-487q0 -59 19 -101.5t49.5 -63.5t61 -30.5t61.5 -9.5t60.5 9t58.5 30.5t47 64t18 101.5v487q0 49 49 49h158q49 0 49 -49v-844q0 -49 -49 -49h-158q-49 0 -49 43v43q-97 -102 -262 -102z" />
    <glyph glyph-name="yacute" unicode="&#xfd;" horiz-adv-x="1077"
d="M483 1079q-27 0 -36.5 16.5t2.5 41.5l65 137q16 37 57 37h113q28 0 37.5 -16.5t-2.5 -41.5l-70 -139q-17 -35 -57 -35h-109zM293 -377q-27 0 -37.5 16.5t-1.5 41.5l127 319l-348 885q-9 25 1.5 41t37.5 16h161q40 0 56 -39l217 -549l219 549q16 39 57 39h162q28 0 39 -16
t0 -41l-487 -1223q-16 -39 -56 -39h-147z" />
    <glyph glyph-name="ydieresis" unicode="&#xff;" horiz-adv-x="1077"
d="M336 1049q-46 0 -82.5 32.5t-36.5 85.5q0 51 36.5 82t82.5 31q45 0 81 -31t36 -82q0 -52 -36 -85t-81 -33zM721 1049q-45 0 -81 33t-36 85q0 51 36 82t81 31q46 0 82.5 -31t36.5 -82q0 -53 -36.5 -85.5t-82.5 -32.5zM293 -377q-27 0 -37.5 16.5t-1.5 41.5l127 319
l-348 885q-9 25 1.5 41t37.5 16h161q40 0 56 -39l217 -549l219 549q16 39 57 39h162q28 0 39 -16t0 -41l-487 -1223q-16 -39 -56 -39h-147z" />
    <glyph glyph-name="Amacron" unicode="&#x100;" horiz-adv-x="1361"
d="M522 1448q-49 0 -49 49v66q0 49 49 49h305q23 0 36.5 -13t13.5 -36v-66q0 -23 -13.5 -36t-36.5 -13h-305zM92 0q-28 0 -39 16t0 41l502 1235q16 39 57 39h119q41 0 57 -39l500 -1235q11 -25 0 -41t-39 -16h-178q-39 0 -55 39l-72 180h-547l-71 -180q-16 -39 -56 -39h-178
zM494 461h356l-178 452z" />
    <glyph glyph-name="amacron" unicode="&#x101;"
d="M451 1073q-23 0 -36.5 13t-13.5 36v66q0 23 13.5 36t36.5 13h305q49 0 49 -49v-66q0 -49 -49 -49h-305zM504 -16q-193 0 -320 138t-127 349q0 213 126.5 349t320.5 136q170 0 270 -114v51q0 49 49 49h158q49 0 49 -49v-844q0 -49 -49 -49h-158q-49 0 -49 49v49
q-100 -114 -270 -114zM541 225q104 0 168.5 69.5t64.5 176.5t-64.5 176.5t-168.5 69.5q-105 0 -170.5 -69.5t-65.5 -176.5t65.5 -176.5t170.5 -69.5z" />
    <glyph glyph-name="Abreve" unicode="&#x102;" horiz-adv-x="1361"
d="M674 1442q-111 0 -179.5 61.5t-68.5 163.5q0 6 49 6h51q49 0 49 -2v-4q0 -37 27.5 -64.5t71.5 -27.5q45 0 70.5 27t25.5 65q0 6 49 6h51q50 0 50 -2v-4q0 -102 -67.5 -163.5t-178.5 -61.5zM92 0q-28 0 -39 16t0 41l502 1235q16 39 57 39h119q41 0 57 -39l500 -1235
q11 -25 0 -41t-39 -16h-178q-39 0 -55 39l-72 180h-547l-71 -180q-16 -39 -56 -39h-178zM494 461h356l-178 452z" />
    <glyph glyph-name="abreve" unicode="&#x103;"
d="M602 1065q-111 0 -179.5 61.5t-68.5 163.5q0 6 49 6h52q49 0 49 -2v-4q0 -37 27 -64.5t71 -27.5q45 0 70.5 27t25.5 65q0 6 50 6h51q49 0 49 -2v-4q0 -102 -67.5 -163.5t-178.5 -61.5zM504 -16q-193 0 -320 138t-127 349q0 213 126.5 349t320.5 136q170 0 270 -114v51
q0 49 49 49h158q49 0 49 -49v-844q0 -49 -49 -49h-158q-49 0 -49 49v49q-100 -114 -270 -114zM541 225q104 0 168.5 69.5t64.5 176.5t-64.5 176.5t-168.5 69.5q-105 0 -170.5 -69.5t-65.5 -176.5t65.5 -176.5t170.5 -69.5z" />
    <glyph glyph-name="Aogonek" unicode="&#x104;" horiz-adv-x="1361"
d="M1249 -158q58 9 58 -41v-47q0 -47 -45 -53q-102 -13 -175 25.5t-73 121.5q0 84 80 152h-23q-39 0 -55 39l-72 180h-547l-71 -180q-16 -39 -56 -39h-178q-28 0 -39 16t0 41l502 1235q16 39 57 39h119q41 0 57 -39l500 -1235q11 -25 0 -41t-39 -16h-18q-3 -11 -19 -27
q-43 -43 -43 -86q0 -24 19 -38t61 -7zM494 461h356l-178 452z" />
    <glyph glyph-name="aogonek" unicode="&#x105;"
d="M999 -166q58 9 58 -41v-47q0 -47 -45 -53q-102 -13 -175 25.5t-73 121.5q0 49 27 91t65 69h-33q-49 0 -49 49v49q-100 -114 -270 -114q-193 0 -320 138t-127 349q0 213 126.5 349t320.5 136q170 0 270 -114v51q0 49 49 49h158q49 0 49 -49v-844q0 -49 -49 -49
q3 -14 -18 -35q-43 -43 -43 -86q0 -24 18.5 -38t60.5 -7zM541 225q104 0 168.5 69.5t64.5 176.5t-64.5 176.5t-168.5 69.5q-105 0 -170.5 -69.5t-65.5 -176.5t65.5 -176.5t170.5 -69.5z" />
    <glyph glyph-name="Cacute" unicode="&#x106;" horiz-adv-x="1366"
d="M678 1458q-28 0 -37.5 16.5t2.5 41.5l66 137q16 37 57 37h113q27 0 36.5 -16.5t-2.5 -41.5l-69 -139q-17 -35 -58 -35h-108zM743 -16q-146 0 -271 51.5t-213 141.5t-137.5 216.5t-49.5 272.5t49.5 272.5t137.5 216.5t213 141.5t271 51.5q160 0 290 -60t220 -170
q28 -39 -10 -67l-135 -101q-36 -26 -70 8q-52 57 -128.5 91t-166.5 34q-182 0 -294.5 -117t-112.5 -300t112.5 -300.5t294.5 -117.5q168 0 295 131q31 39 70 8l135 -104q38 -31 14 -66q-90 -111 -221.5 -172t-292.5 -61z" />
    <glyph glyph-name="cacute" unicode="&#x107;" horiz-adv-x="999"
d="M496 1079q-28 0 -37.5 16.5t2.5 41.5l65 137q16 37 58 37h112q28 0 37.5 -16.5t-2.5 -41.5l-69 -139q-17 -35 -58 -35h-108zM539 -18q-213 0 -347.5 137.5t-134.5 351.5t134.5 350.5t347.5 136.5q220 0 352 -151q31 -39 -8 -70l-107 -82q-34 -24 -69 4q-65 58 -162 58
q-105 0 -171.5 -69.5t-66.5 -176.5t66.5 -176.5t171.5 -69.5q97 0 162 54q35 28 69 4l107 -80q39 -29 12 -64q-135 -157 -356 -157z" />
    <glyph glyph-name="Cdotaccent" unicode="&#x10a;" horiz-adv-x="1366"
d="M723 1427q-46 0 -82.5 33t-36.5 86q0 51 36.5 82t82.5 31q45 0 81 -31t36 -82q0 -53 -36.5 -86t-80.5 -33zM743 -16q-146 0 -271 51.5t-213 141.5t-137.5 216.5t-49.5 272.5t49.5 272.5t137.5 216.5t213 141.5t271 51.5q160 0 290 -60t220 -170q28 -39 -10 -67l-135 -101
q-36 -26 -70 8q-52 57 -128.5 91t-166.5 34q-182 0 -294.5 -117t-112.5 -300t112.5 -300.5t294.5 -117.5q168 0 295 131q31 39 70 8l135 -104q38 -31 14 -66q-90 -111 -221.5 -172t-292.5 -61z" />
    <glyph glyph-name="cdotaccent" unicode="&#x10b;" horiz-adv-x="999"
d="M541 1049q-46 0 -82.5 32.5t-36.5 85.5q0 51 36.5 82t82.5 31q45 0 80.5 -31t35.5 -82q0 -53 -36 -85.5t-80 -32.5zM539 -18q-213 0 -347.5 137.5t-134.5 351.5t134.5 350.5t347.5 136.5q220 0 352 -151q31 -39 -8 -70l-107 -82q-34 -24 -69 4q-65 58 -162 58
q-105 0 -171.5 -69.5t-66.5 -176.5t66.5 -176.5t171.5 -69.5q97 0 162 54q35 28 69 4l107 -80q39 -29 12 -64q-135 -157 -356 -157z" />
    <glyph glyph-name="Ccaron" unicode="&#x10c;" horiz-adv-x="1366"
d="M616 1458q-39 0 -59 33l-90 139q-15 25 -5.5 42.5t38.5 17.5h102q42 0 60 -33l61 -101l59 101q18 33 60 33h102q29 0 38.5 -17.5t-5.5 -42.5l-90 -139q-20 -33 -60 -33h-211zM743 -16q-146 0 -271 51.5t-213 141.5t-137.5 216.5t-49.5 272.5t49.5 272.5t137.5 216.5
t213 141.5t271 51.5q160 0 290 -60t220 -170q28 -39 -10 -67l-135 -101q-36 -26 -70 8q-52 57 -128.5 91t-166.5 34q-182 0 -294.5 -117t-112.5 -300t112.5 -300.5t294.5 -117.5q168 0 295 131q31 39 70 8l135 -104q38 -31 14 -66q-90 -111 -221.5 -172t-292.5 -61z" />
    <glyph glyph-name="ccaron" unicode="&#x10d;" horiz-adv-x="999"
d="M434 1079q-39 0 -59 33l-90 139q-15 25 -6 42.5t38 17.5h103q41 0 59 -33l62 -100l59 100q18 33 59 33h103q29 0 38.5 -17.5t-5.5 -42.5l-90 -139q-20 -33 -60 -33h-211zM539 -18q-213 0 -347.5 137.5t-134.5 351.5t134.5 350.5t347.5 136.5q220 0 352 -151
q31 -39 -8 -70l-107 -82q-34 -24 -69 4q-65 58 -162 58q-105 0 -171.5 -69.5t-66.5 -176.5t66.5 -176.5t171.5 -69.5q97 0 162 54q35 28 69 4l107 -80q39 -29 12 -64q-135 -157 -356 -157z" />
    <glyph glyph-name="Dcaron" unicode="&#x10e;" horiz-adv-x="1341"
d="M432 1456q-39 0 -59 33l-90 139q-15 25 -6 42.5t38 17.5h103q41 0 59 -33l62 -101l59 101q18 33 59 33h103q29 0 38.5 -17.5t-5.5 -42.5l-91 -139q-20 -33 -59 -33h-211zM141 0q-49 0 -49 49v1233q0 49 49 49h445q292 0 472.5 -184.5t180.5 -480.5q0 -297 -181 -481.5
t-472 -184.5h-445zM356 258h230q44 0 91.5 10t102.5 38.5t97 72t70.5 118t27.5 169.5q-1 94 -29 168.5t-70.5 118.5t-97 72.5t-101.5 39t-91 10.5h-230v-817z" />
    <glyph glyph-name="dcaron" unicode="&#x10f;"
d="M797 1454q-40 0 -60 33l-90 139q-15 25 -5.5 42.5t38.5 17.5h102q42 0 60 -33l61 -101l60 101q18 33 59 33h102q29 0 38.5 -17.5t-5.5 -42.5l-90 -139q-20 -33 -59 -33h-211zM504 -16q-193 0 -320 138t-127 349q0 213 126.5 349t320.5 136q170 0 270 -114v440q0 49 49 49
h158q49 0 49 -49v-1233q0 -49 -49 -49h-158q-49 0 -49 49v49q-100 -114 -270 -114zM541 225q104 0 168.5 69.5t64.5 176.5t-64.5 176.5t-168.5 69.5q-105 0 -170.5 -69.5t-65.5 -176.5t65.5 -176.5t170.5 -69.5z" />
    <glyph glyph-name="Dcroat" unicode="&#x110;" horiz-adv-x="1351"
d="M141 0q-49 0 -49 49v488h-41q-49 0 -49 49v143q0 49 45 49h45v504q0 49 49 49h449q195 0 345 -83.5t232 -234.5t82 -347t-82 -347t-232 -235t-345 -84h-449zM356 262h236q44 0 91.5 10.5t103 39.5t98.5 72.5t71.5 116.5t28.5 165q-1 92 -29.5 165t-71.5 116.5t-98 72
t-102.5 39t-91.5 10.5h-236v-291h154q49 0 49 -49v-143q0 -49 -49 -49h-154v-275z" />
    <glyph glyph-name="Emacron" unicode="&#x112;" horiz-adv-x="1116"
d="M403 1448q-49 0 -49 49v66q0 49 49 49h306q49 0 49 -49v-66q0 -49 -49 -49h-306zM141 0q-49 0 -49 49v1233q0 49 49 49h803q49 0 49 -49v-143q0 -49 -49 -49h-588v-304h545q49 0 49 -49v-143q0 -49 -49 -49h-545v-303h588q49 0 49 -49v-144q0 -49 -49 -49h-803z" />
    <glyph glyph-name="emacron" unicode="&#x113;" horiz-adv-x="1077"
d="M375 1073q-49 0 -49 49v66q0 49 49 49h305q49 0 49 -49v-66q0 -49 -49 -49h-305zM537 -20q-214 0 -347 139t-133 352q0 214 129 352t340 138q207 0 330 -137.5t123 -352.5v-20q0 -23 -13 -36.5t-36 -13.5h-627q19 -94 82 -148t152 -54q117 0 192 67q35 30 68 6l96 -71
q41 -30 14 -64q-64 -75 -159.5 -116t-210.5 -41zM307 563h432q-18 88 -72 141.5t-141 53.5q-86 0 -143 -52t-76 -143z" />
    <glyph glyph-name="Edotaccent" unicode="&#x116;" horiz-adv-x="1116"
d="M557 1423q-46 0 -82.5 33t-36.5 86q0 51 36.5 82t82.5 31q45 0 81 -31t36 -82q0 -53 -36.5 -86t-80.5 -33zM141 0q-49 0 -49 49v1233q0 49 49 49h803q49 0 49 -49v-143q0 -49 -49 -49h-588v-304h545q49 0 49 -49v-143q0 -49 -49 -49h-545v-303h588q49 0 49 -49v-144
q0 -49 -49 -49h-803z" />
    <glyph glyph-name="edotaccent" unicode="&#x117;" horiz-adv-x="1077"
d="M528 1049q-46 0 -82 32.5t-36 85.5q0 51 36 82t82 31q45 0 81 -31t36 -82q0 -52 -36 -85t-81 -33zM537 -20q-214 0 -347 139t-133 352q0 214 129 352t340 138q207 0 330 -137.5t123 -352.5v-20q0 -23 -13 -36.5t-36 -13.5h-627q19 -94 82 -148t152 -54q117 0 192 67
q35 30 68 6l96 -71q41 -30 14 -64q-64 -75 -159.5 -116t-210.5 -41zM307 563h432q-18 88 -72 141.5t-141 53.5q-86 0 -143 -52t-76 -143z" />
    <glyph glyph-name="Eogonek" unicode="&#x118;" horiz-adv-x="1116"
d="M965 -164q57 9 57 -41v-47q0 -47 -45 -53q-102 -13 -175 25.5t-73 121.5q0 48 26 89.5t62 68.5h-676q-49 0 -49 49v1233q0 49 49 49h803q49 0 49 -49v-143q0 -49 -49 -49h-588v-304h545q49 0 49 -49v-143q0 -49 -49 -49h-545v-303h588q49 0 49 -49v-144q0 -46 -47 -49
q0 -15 -18 -33q-43 -43 -43 -86q0 -24 19 -38t61 -7z" />
    <glyph glyph-name="eogonek" unicode="&#x119;" horiz-adv-x="1077"
d="M526 961q207 0 330 -137.5t123 -352.5v-20q0 -23 -13 -36.5t-36 -13.5h-627q19 -94 82 -148t152 -54q117 0 192 67q35 30 68 6l96 -71q41 -30 14 -64q-121 -140 -323 -155q3 -15 -19 -37q-43 -43 -43 -86q0 -24 19 -38t61 -7q57 9 57 -41v-47q0 -48 -45 -54
q-65 -8 -120.5 5t-91 50t-35.5 93q0 94 94 162q1 0 2 1t2 1q-185 25 -296.5 159.5t-111.5 327.5q0 214 129 352t340 138zM307 563h432q-18 88 -72 141.5t-141 53.5q-86 0 -143 -52t-76 -143z" />
    <glyph glyph-name="Ecaron" unicode="&#x11a;" horiz-adv-x="1116"
d="M451 1454q-40 0 -60 33l-90 139q-15 25 -5.5 42.5t38.5 17.5h102q42 0 60 -33l61 -101l59 101q18 33 60 33h102q29 0 38.5 -17.5t-5.5 -42.5l-90 -139q-20 -33 -59 -33h-211zM141 0q-49 0 -49 49v1233q0 49 49 49h803q49 0 49 -49v-143q0 -49 -49 -49h-588v-304h545
q49 0 49 -49v-143q0 -49 -49 -49h-545v-303h588q49 0 49 -49v-144q0 -49 -49 -49h-803z" />
    <glyph glyph-name="ecaron" unicode="&#x11b;" horiz-adv-x="1077"
d="M422 1079q-40 0 -60 33l-90 139q-15 25 -5.5 42.5t38.5 17.5h103q41 0 59 -33l61 -100l60 100q18 33 59 33h103q29 0 38 -17.5t-6 -42.5l-90 -139q-20 -33 -59 -33h-211zM537 -20q-214 0 -347 139t-133 352q0 214 129 352t340 138q207 0 330 -137.5t123 -352.5v-20
q0 -23 -13 -36.5t-36 -13.5h-627q19 -94 82 -148t152 -54q117 0 192 67q35 30 68 6l96 -71q41 -30 14 -64q-64 -75 -159.5 -116t-210.5 -41zM307 563h432q-18 88 -72 141.5t-141 53.5q-86 0 -143 -52t-76 -143z" />
    <glyph glyph-name="Gbreve" unicode="&#x11e;" horiz-adv-x="1495"
d="M743 1442q-111 0 -179 61.5t-68 163.5q0 6 49 6h51q49 0 49 -2v-4q0 -37 27 -64.5t71 -27.5q45 0 71 27t26 65q0 6 49 6h51q49 0 49 -2v-4q0 -102 -67.5 -163.5t-178.5 -61.5zM743 -16q-146 0 -271 51.5t-213 141.5t-137.5 216.5t-49.5 272.5t49.5 272.5t137.5 216.5
t213 141.5t271 51.5q158 0 289 -60t219 -168q30 -37 -10 -67l-135 -101q-35 -26 -70 9q-57 61 -133.5 91.5t-159.5 30.5q-182 0 -294.5 -117t-112.5 -300t112.5 -300.5t294.5 -117.5q123 0 218.5 69t119.5 193h-305q-49 0 -49 49v143q0 23 13 36.5t36 13.5h555
q23 0 36 -13.5t13 -36.5l2 -67q-11 -289 -183 -470t-456 -181z" />
    <glyph glyph-name="gbreve" unicode="&#x11f;"
d="M559 1065q-111 0 -179.5 61.5t-68.5 163.5q0 6 49 6h52q49 0 49 -2v-4q0 -37 27 -64.5t71 -27.5q45 0 70.5 27t25.5 65q0 6 50 6h51q49 0 49 -2v-4q0 -102 -67.5 -163.5t-178.5 -61.5zM526 -401q-221 0 -364 133q-36 33 4 69l92 78q32 28 70 0q81 -65 198 -65
q29 0 59.5 6.5t65.5 24t61.5 44.5t44 73t17.5 104v34q-102 -116 -272 -116q-193 0 -319 138t-126 349t126 348t319 137q173 0 272 -116v53q0 49 49 49h158q49 0 49 -49v-827q0 -208 -133 -337.5t-371 -129.5zM539 225q105 0 170 69.5t65 176.5t-65 176.5t-170 69.5
t-169.5 -69.5t-64.5 -176.5t64.5 -176.5t169.5 -69.5z" />
    <glyph glyph-name="Gdotaccent" unicode="&#x120;" horiz-adv-x="1495"
d="M745 1423q-46 0 -82 33t-36 86q0 51 36 82t82 31q45 0 81 -31t36 -82q0 -53 -36.5 -86t-80.5 -33zM743 -16q-146 0 -271 51.5t-213 141.5t-137.5 216.5t-49.5 272.5t49.5 272.5t137.5 216.5t213 141.5t271 51.5q158 0 289 -60t219 -168q30 -37 -10 -67l-135 -101
q-35 -26 -70 9q-57 61 -133.5 91.5t-159.5 30.5q-182 0 -294.5 -117t-112.5 -300t112.5 -300.5t294.5 -117.5q123 0 218.5 69t119.5 193h-305q-49 0 -49 49v143q0 23 13 36.5t36 13.5h555q23 0 36 -13.5t13 -36.5l2 -67q-11 -289 -183 -470t-456 -181z" />
    <glyph glyph-name="gdotaccent" unicode="&#x121;"
d="M561 1049q-46 0 -82.5 32.5t-36.5 85.5q0 51 36.5 82t82.5 31q45 0 81 -31t36 -82q0 -52 -36 -85t-81 -33zM526 -401q-221 0 -364 133q-36 33 4 69l92 78q32 28 70 0q81 -65 198 -65q29 0 59.5 6.5t65.5 24t61.5 44.5t44 73t17.5 104v34q-102 -116 -272 -116
q-193 0 -319 138t-126 349t126 348t319 137q173 0 272 -116v53q0 49 49 49h158q49 0 49 -49v-827q0 -208 -133 -337.5t-371 -129.5zM539 225q105 0 170 69.5t65 176.5t-65 176.5t-170 69.5t-169.5 -69.5t-64.5 -176.5t64.5 -176.5t169.5 -69.5z" />
    <glyph glyph-name="uni0122" unicode="&#x122;" horiz-adv-x="1495"
d="M743 -16q-146 0 -271 51.5t-213 141.5t-137.5 216.5t-49.5 272.5t49.5 272.5t137.5 216.5t213 141.5t271 51.5q158 0 289 -60t219 -168q30 -37 -10 -67l-135 -101q-35 -26 -70 9q-57 61 -133.5 91.5t-159.5 30.5q-182 0 -294.5 -117t-112.5 -300t112.5 -300.5
t294.5 -117.5q123 0 218.5 69t119.5 193h-305q-49 0 -49 49v143q0 23 13 36.5t36 13.5h555q23 0 36 -13.5t13 -36.5l2 -67q-11 -289 -183 -470t-456 -181zM602 -342q-28 0 -38.5 15.5t1.5 41.5l68 135q17 35 57 35h107q29 0 40 -17t-3 -42l-74 -133q-17 -35 -58 -35h-100z
" />
    <glyph glyph-name="uni0123" unicode="&#x123;"
d="M559 1055q-56 0 -88.5 33t-32.5 77q0 78 94 158q26 23 62 23h2q48 0 51 -20q1 -8 -8 -17q-35 -40 -37 -43q30 -10 51 -36t21 -65q0 -45 -30 -77.5t-85 -32.5zM526 -401q-221 0 -364 133q-36 33 4 69l92 78q32 28 70 0q81 -65 198 -65q29 0 59.5 6.5t65.5 24t61.5 44.5
t44 73t17.5 104v34q-102 -116 -272 -116q-193 0 -319 138t-126 349t126 348t319 137q173 0 272 -116v53q0 49 49 49h158q49 0 49 -49v-827q0 -208 -133 -337.5t-371 -129.5zM539 225q105 0 170 69.5t65 176.5t-65 176.5t-170 69.5t-169.5 -69.5t-64.5 -176.5t64.5 -176.5
t169.5 -69.5z" />
    <glyph glyph-name="Itilde" unicode="&#x128;" horiz-adv-x="489"
d="M338 1419q-93 0 -156 72q-24 26 -40.5 37.5t-39.5 11.5q-44 0 -59 -51q-12 -45 -51 -45h-53q-25 0 -38 13.5t-10 37.5q13 87 66 140t139 53q92 0 156 -72q45 -49 86 -49q51 0 65 47q9 47 52 47h51q53 0 47 -47q-11 -89 -65 -142t-150 -53zM141 0q-49 0 -49 49v1233
q0 49 49 49h166q49 0 49 -49v-1233q0 -49 -49 -49h-166z" />
    <glyph glyph-name="itilde" unicode="&#x129;" horiz-adv-x="493"
d="M340 1044q-93 0 -156 72q-24 26 -40.5 37.5t-39.5 11.5q-44 0 -59 -51q-12 -45 -51 -45h-53q-53 0 -47 51q13 87 65.5 140t138.5 53q92 0 156 -72q45 -49 86 -49q52 0 66 47q9 47 51 47h51q53 0 47 -47q-11 -89 -65 -142t-150 -53zM147 0q-49 0 -49 49v844q0 49 49 49
h158q49 0 49 -49v-844q0 -49 -49 -49h-158z" />
    <glyph glyph-name="Imacron" unicode="&#x12a;" horiz-adv-x="489"
d="M72 1448q-49 0 -49 49v66q0 49 49 49h305q49 0 49 -49v-66q0 -49 -49 -49h-305zM141 0q-49 0 -49 49v1233q0 49 49 49h166q49 0 49 -49v-1233q0 -49 -49 -49h-166z" />
    <glyph glyph-name="imacron" unicode="&#x12b;" horiz-adv-x="493"
d="M74 1073q-49 0 -49 49v66q0 49 49 49h305q49 0 49 -49v-66q0 -49 -49 -49h-305zM147 0q-49 0 -49 49v844q0 49 49 49h158q49 0 49 -49v-844q0 -49 -49 -49h-158z" />
    <glyph glyph-name="Iogonek" unicode="&#x12e;" horiz-adv-x="489"
d="M317 -168q58 9 58 -41v-47q0 -47 -45 -53q-102 -13 -175 25.5t-73 121.5q0 94 94 162h-35q-49 0 -49 49v1233q0 49 49 49h166q49 0 49 -49v-1233q0 -49 -49 -49h-8q3 -16 -18 -37q-43 -43 -43 -86q0 -24 18.5 -38t60.5 -7z" />
    <glyph glyph-name="iogonek" unicode="&#x12f;" horiz-adv-x="493"
d="M227 1049q-46 0 -82 32.5t-36 85.5q0 51 36 82t82 31q45 0 81 -31t36 -82q0 -52 -36 -85t-81 -33zM319 -170q58 9 58 -41v-47q0 -47 -45 -53q-102 -13 -175 25.5t-73 121.5q0 94 94 162q1 0 2 1t2 1h-35q-49 0 -49 49v844q0 49 49 49h158q49 0 49 -49v-844q0 -49 -49 -49
h-4q6 -15 -18 -39q-43 -43 -43 -86q0 -24 18.5 -38t60.5 -7z" />
    <glyph glyph-name="Idotaccent" unicode="&#x130;" horiz-adv-x="489"
d="M225 1423q-46 0 -82.5 33t-36.5 86q0 51 36.5 82t82.5 31q45 0 81 -31t36 -82q0 -53 -36.5 -86t-80.5 -33zM141 0q-49 0 -49 49v1233q0 49 49 49h166q49 0 49 -49v-1233q0 -49 -49 -49h-166z" />
    <glyph glyph-name="dotlessi" unicode="&#x131;" horiz-adv-x="493"
d="M147 0q-49 0 -49 49v844q0 49 49 49h158q49 0 49 -49v-844q0 -49 -49 -49h-158z" />
    <glyph glyph-name="uni0136" unicode="&#x136;"
d="M141 0q-49 0 -49 49v1233q0 49 49 49h166q49 0 49 -49v-502l404 523q22 28 59 28h191q31 0 40 -17t-10 -42l-460 -606l485 -607q20 -25 10 -42t-41 -17h-194q-37 0 -60 29l-424 526v-506q0 -49 -49 -49h-166zM424 -336q-28 0 -38.5 15.5t1.5 41.5l68 136q16 34 57 34h106
q29 0 40 -17t-3 -42l-73 -133q-17 -35 -58 -35h-100z" />
    <glyph glyph-name="uni0137" unicode="&#x137;" horiz-adv-x="1044"
d="M141 0q-49 0 -49 49v1233q0 49 49 49h158q49 0 49 -49v-700l279 331q26 29 61 29h184q31 0 39 -17t-12 -42l-324 -387l367 -437q20 -25 12 -42t-39 -17h-184q-35 0 -61 29l-322 381v-361q0 -49 -49 -49h-158zM362 -336q-28 0 -38 15.5t2 41.5l67 136q16 34 58 34h106
q29 0 40 -17t-3 -42l-74 -133q-17 -35 -57 -35h-101z" />
    <glyph glyph-name="Lacute" unicode="&#x139;" horiz-adv-x="1081"
d="M180 1454q-28 0 -37.5 16t2.5 41l66 138q16 37 57 37h113q28 0 37.5 -16.5t-2.5 -41.5l-70 -139q-17 -35 -57 -35h-109zM141 0q-49 0 -49 49v1233q0 49 49 49h166q49 0 49 -49v-1040h584q49 0 49 -49v-144q0 -49 -49 -49h-799z" />
    <glyph glyph-name="lacute" unicode="&#x13a;" horiz-adv-x="483"
d="M178 1454q-28 0 -37.5 16t2.5 41l66 138q16 37 57 37h113q28 0 37.5 -16.5t-2.5 -41.5l-70 -139q-17 -35 -57 -35h-109zM141 0q-49 0 -49 49v1233q0 49 49 49h160q49 0 49 -49l-2 -1233q0 -49 -49 -49h-158z" />
    <glyph glyph-name="uni013B" unicode="&#x13b;" horiz-adv-x="1081"
d="M141 0q-49 0 -49 49v1233q0 49 49 49h166q49 0 49 -49v-1040h584q49 0 49 -49v-144q0 -49 -49 -49h-799zM395 -336q-28 0 -38.5 15.5t1.5 41.5l68 136q16 34 57 34h107q29 0 40 -17t-3 -42l-74 -133q-17 -35 -57 -35h-101z" />
    <glyph glyph-name="uni013C" unicode="&#x13c;" horiz-adv-x="483"
d="M141 0q-49 0 -49 49v1233q0 49 49 49h160q49 0 49 -49l-2 -1233q0 -49 -49 -49h-158zM76 -336q-28 0 -38.5 15.5t1.5 41.5l67 136q16 34 58 34h106q29 0 40 -17t-3 -42l-74 -133q-17 -35 -57 -35h-100z" />
    <glyph glyph-name="Lcaron" unicode="&#x13d;" horiz-adv-x="1081"
d="M117 1454q-40 0 -60 33l-90 139q-15 25 -5.5 42.5t38.5 17.5h102q42 0 60 -33l61 -101l60 101q18 33 59 33h102q29 0 38.5 -17.5t-5.5 -42.5l-90 -139q-20 -33 -59 -33h-211zM141 0q-49 0 -49 49v1233q0 49 49 49h166q49 0 49 -49v-1040h584q49 0 49 -49v-144
q0 -49 -49 -49h-799z" />
    <glyph glyph-name="lcaron" unicode="&#x13e;" horiz-adv-x="483"
d="M115 1454q-40 0 -60 33l-90 139q-15 25 -5.5 42.5t38.5 17.5h102q42 0 60 -33l61 -101l60 101q18 33 59 33h102q29 0 38.5 -17.5t-5.5 -42.5l-90 -139q-20 -33 -59 -33h-211zM141 0q-49 0 -49 49v1233q0 49 49 49h160q49 0 49 -49l-2 -1233q0 -49 -49 -49h-158z" />
    <glyph glyph-name="Lslash" unicode="&#x141;" horiz-adv-x="1079"
d="M141 0q-49 0 -49 49v520l-33 -12q-25 -9 -41 2t-16 37v149q0 42 39 56l51 18v463q0 49 49 49h166q49 0 49 -49v-369l160 56q25 9 40 -2t15 -37v-148q0 -41 -39 -55l-176 -63v-422h582q49 0 49 -49v-144q0 -49 -49 -49h-797z" />
    <glyph glyph-name="lslash" unicode="&#x142;" horiz-adv-x="481"
d="M141 0q-49 0 -49 49v488l-24 -9q-25 -8 -40.5 3.5t-15.5 37.5v105q0 43 41 57l39 12v539q0 49 49 49h158q49 0 49 -49v-448l60 20q24 9 39.5 -2.5t15.5 -38.5v-104q0 -43 -41 -58l-74 -24v-578q0 -49 -49 -49h-158z" />
    <glyph glyph-name="Nacute" unicode="&#x143;" horiz-adv-x="1306"
d="M596 1454q-28 0 -37.5 16t2.5 41l66 138q16 37 57 37h113q27 0 36.5 -16.5t-2.5 -41.5l-69 -139q-17 -35 -57 -35h-109zM141 0q-49 0 -49 49v1233q0 49 49 49h170q40 0 60 -33l538 -835v819q0 49 49 49h166q23 0 36.5 -13t13.5 -36v-1233q0 -23 -13.5 -36t-36.5 -13h-168
q-39 0 -59 33l-539 833v-817q0 -49 -49 -49h-168z" />
    <glyph glyph-name="nacute" unicode="&#x144;" horiz-adv-x="1112"
d="M492 1079q-28 0 -37.5 16.5t2.5 41.5l65 137q16 37 58 37h112q28 0 37.5 -16.5t-2.5 -41.5l-70 -139q-17 -35 -57 -35h-108zM141 0q-49 0 -49 49v844q0 49 49 49h158q49 0 49 -45v-45q96 104 264 104q54 0 104 -11.5t98.5 -39.5t84.5 -70.5t58 -109t22 -150.5v-526
q0 -49 -49 -49h-158q-49 0 -49 49v488q0 48 -13 85t-32.5 59t-45.5 36t-49.5 19t-47.5 5t-48 -5t-49.5 -19t-45 -36t-32 -59t-12.5 -85v-488q0 -49 -49 -49h-158z" />
    <glyph glyph-name="uni0145" unicode="&#x145;" horiz-adv-x="1306"
d="M141 0q-49 0 -49 49v1233q0 49 49 49h170q40 0 60 -33l538 -835v819q0 49 49 49h166q23 0 36.5 -13t13.5 -36v-1233q0 -23 -13.5 -36t-36.5 -13h-168q-39 0 -59 33l-539 833v-817q0 -49 -49 -49h-168zM500 -336q-28 0 -38.5 15.5t1.5 41.5l67 136q16 34 58 34h106
q29 0 40 -17t-3 -42l-74 -133q-17 -35 -57 -35h-100z" />
    <glyph glyph-name="uni0146" unicode="&#x146;" horiz-adv-x="1112"
d="M141 0q-49 0 -49 49v844q0 49 49 49h158q49 0 49 -45v-45q96 104 264 104q54 0 104 -11.5t98.5 -39.5t84.5 -70.5t58 -109t22 -150.5v-526q0 -49 -49 -49h-158q-49 0 -49 49v488q0 48 -13 85t-32.5 59t-45.5 36t-49.5 19t-47.5 5t-48 -5t-49.5 -19t-45 -36t-32 -59
t-12.5 -85v-488q0 -49 -49 -49h-158zM391 -336q-28 0 -38.5 15.5t1.5 41.5l68 136q16 34 57 34h107q29 0 40 -17t-3 -42l-74 -133q-17 -35 -57 -35h-101z" />
    <glyph glyph-name="Ncaron" unicode="&#x147;" horiz-adv-x="1306"
d="M535 1454q-40 0 -60 33l-90 139q-15 25 -5.5 42.5t38.5 17.5h102q42 0 60 -33l61 -101l59 101q18 33 60 33h102q29 0 38.5 -17.5t-5.5 -42.5l-90 -139q-20 -33 -60 -33h-210zM141 0q-49 0 -49 49v1233q0 49 49 49h170q40 0 60 -33l538 -835v819q0 49 49 49h166
q23 0 36.5 -13t13.5 -36v-1233q0 -23 -13.5 -36t-36.5 -13h-168q-39 0 -59 33l-539 833v-817q0 -49 -49 -49h-168z" />
    <glyph glyph-name="ncaron" unicode="&#x148;" horiz-adv-x="1112"
d="M430 1079q-39 0 -59 33l-90 139q-15 25 -6 42.5t38 17.5h103q41 0 59 -33l62 -100l59 100q18 33 59 33h103q29 0 38.5 -17.5t-5.5 -42.5l-91 -139q-20 -33 -59 -33h-211zM141 0q-49 0 -49 49v844q0 49 49 49h158q49 0 49 -45v-45q96 104 264 104q54 0 104 -11.5
t98.5 -39.5t84.5 -70.5t58 -109t22 -150.5v-526q0 -49 -49 -49h-158q-49 0 -49 49v488q0 48 -13 85t-32.5 59t-45.5 36t-49.5 19t-47.5 5t-48 -5t-49.5 -19t-45 -36t-32 -59t-12.5 -85v-488q0 -49 -49 -49h-158z" />
    <glyph glyph-name="Omacron" unicode="&#x14c;" horiz-adv-x="1513"
d="M592 1448q-49 0 -49 49v66q0 49 49 49h305q49 0 49 -49v-66q0 -49 -49 -49h-305zM743 -16q-146 0 -271 51.5t-213 141.5t-137.5 216.5t-49.5 272.5t49.5 272.5t137.5 216.5t213 141.5t271 51.5q195 0 347.5 -88t236.5 -243t84 -351t-84 -351t-236.5 -243t-347.5 -88z
M743 248q181 0 291.5 117t110.5 301q0 183 -110.5 300t-291.5 117q-182 0 -294.5 -117t-112.5 -300t112.5 -300.5t294.5 -117.5z" />
    <glyph glyph-name="omacron" unicode="&#x14d;" horiz-adv-x="1126"
d="M391 1073q-49 0 -49 49v66q0 49 49 49h305q49 0 49 -49v-66q0 -49 -49 -49h-305zM543 -20q-213 0 -349.5 139.5t-136.5 351.5q0 214 136.5 352t349.5 138q214 0 349.5 -137.5t135.5 -352.5q0 -212 -135.5 -351.5t-349.5 -139.5zM543 225q104 0 168.5 69.5t64.5 176.5
t-64.5 176.5t-168.5 69.5q-103 0 -168.5 -69.5t-65.5 -176.5t65.5 -176.5t168.5 -69.5z" />
    <glyph glyph-name="Ohungarumlaut" unicode="&#x150;" horiz-adv-x="1513"
d="M510 1454q-28 0 -38.5 16t1.5 41l66 138q16 37 59 37h107q30 0 39.5 -17t-7.5 -43l-92 -139q-20 -33 -59 -33h-76zM881 1454q-28 0 -38.5 16t1.5 41l65 138q16 37 60 37h106q30 0 40 -17t-7 -43l-92 -139q-20 -33 -60 -33h-75zM743 -16q-146 0 -271 51.5t-213 141.5
t-137.5 216.5t-49.5 272.5t49.5 272.5t137.5 216.5t213 141.5t271 51.5q195 0 347.5 -88t236.5 -243t84 -351t-84 -351t-236.5 -243t-347.5 -88zM743 248q181 0 291.5 117t110.5 301q0 183 -110.5 300t-291.5 117q-182 0 -294.5 -117t-112.5 -300t112.5 -300.5t294.5 -117.5
z" />
    <glyph glyph-name="ohungarumlaut" unicode="&#x151;" horiz-adv-x="1126"
d="M309 1079q-28 0 -38.5 16.5t1.5 41.5l66 137q16 37 59 37h107q30 0 40 -17t-7 -43l-93 -139q-20 -33 -59 -33h-76zM680 1079q-28 0 -38.5 16.5t1.5 41.5l66 137q16 37 59 37h106q30 0 40 -17t-7 -43l-92 -139q-20 -33 -59 -33h-76zM543 -20q-213 0 -349.5 139.5
t-136.5 351.5q0 214 136.5 352t349.5 138q214 0 349.5 -137.5t135.5 -352.5q0 -212 -135.5 -351.5t-349.5 -139.5zM543 225q104 0 168.5 69.5t64.5 176.5t-64.5 176.5t-168.5 69.5q-103 0 -168.5 -69.5t-65.5 -176.5t65.5 -176.5t168.5 -69.5z" />
    <glyph glyph-name="OE" unicode="&#x152;" horiz-adv-x="2086"
d="M752 -16q-146 0 -272.5 51.5t-216 141t-140.5 216.5t-51 273t50 272.5t139 216.5t216 141.5t275 51.5q233 0 397 -121v55q0 49 49 49h717q49 0 49 -49v-143q0 -49 -49 -49h-502v-308h459q49 0 49 -49v-143q0 -49 -49 -49h-459v-299h502q49 0 49 -49v-144q0 -49 -49 -49
h-717q-49 0 -49 49v57q-166 -122 -397 -122zM752 248q179 0 286 117t107 301t-107 300.5t-286 116.5q-192 0 -304 -116t-112 -301t112 -301.5t304 -116.5z" />
    <glyph glyph-name="oe" unicode="&#x153;" horiz-adv-x="1773"
d="M1235 -20q-225 0 -358 149q-63 -69 -152 -107t-195 -38q-209 0 -341 137.5t-132 349.5t131.5 348.5t341.5 136.5q212 0 347 -141q133 146 348 146q206 0 329 -137.5t123 -352.5v-20q0 -23 -13 -36.5t-36 -13.5h-627q19 -95 81.5 -148.5t152.5 -53.5q119 0 190 67
q35 30 70 8l96 -61q45 -27 17 -63q-64 -80 -161 -125t-212 -45zM1006 563h432q-20 88 -74 141.5t-139 53.5q-86 0 -143 -52t-76 -143zM530 236q104 0 162 63.5t58 171.5q0 107 -58 170.5t-162 63.5q-106 0 -164.5 -63.5t-58.5 -170.5q0 -108 58.5 -171.5t164.5 -63.5z" />
    <glyph glyph-name="Racute" unicode="&#x154;" horiz-adv-x="1255"
d="M500 1454q-28 0 -37.5 16t2.5 41l65 138q16 37 58 37h112q28 0 37.5 -16.5t-2.5 -41.5l-69 -139q-17 -35 -58 -35h-108zM141 0q-49 0 -49 49v1233q0 49 49 49h590q76 0 147.5 -28.5t130 -82t93.5 -138.5t35 -189q0 -158 -77.5 -266t-197.5 -150l264 -418q15 -25 6 -42
t-38 -17h-197q-39 0 -59 33l-267 422h-215v-406q0 -49 -49 -49h-166zM356 713h332q76 0 129 49.5t53 130.5q0 82 -53 132t-129 50h-332v-362z" />
    <glyph glyph-name="racute" unicode="&#x155;" horiz-adv-x="751"
d="M358 1079q-27 0 -36.5 16.5t2.5 41.5l65 137q16 37 57 37h113q28 0 37.5 -16.5t-2.5 -41.5l-70 -139q-17 -35 -57 -35h-109zM141 0q-49 0 -49 49v844q0 49 49 49h158q49 0 49 -49v-121q98 156 281 180q51 6 51 -47v-141q0 -46 -47 -49q-285 -26 -285 -283v-383
q0 -49 -49 -49h-158z" />
    <glyph glyph-name="uni0156" unicode="&#x156;" horiz-adv-x="1255"
d="M141 0q-49 0 -49 49v1233q0 49 49 49h590q76 0 147.5 -28.5t130 -82t93.5 -138.5t35 -189q0 -158 -77.5 -266t-197.5 -150l264 -418q15 -25 6 -42t-38 -17h-197q-39 0 -59 33l-267 422h-215v-406q0 -49 -49 -49h-166zM356 713h332q76 0 129 49.5t53 130.5q0 82 -53 132
t-129 50h-332v-362zM430 -336q-28 0 -38.5 15.5t1.5 41.5l68 136q16 34 57 34h107q29 0 40 -17t-3 -42l-74 -133q-17 -35 -58 -35h-100z" />
    <glyph glyph-name="uni0157" unicode="&#x157;" horiz-adv-x="751"
d="M141 0q-49 0 -49 49v844q0 49 49 49h158q49 0 49 -49v-121q98 156 281 180q51 6 51 -47v-141q0 -46 -47 -49q-285 -26 -285 -283v-383q0 -49 -49 -49h-158zM74 -336q-28 0 -38.5 15.5t1.5 41.5l67 136q16 34 58 34h106q29 0 40 -17t-3 -42l-74 -133q-17 -35 -57 -35h-100
z" />
    <glyph glyph-name="Rcaron" unicode="&#x158;" horiz-adv-x="1255"
d="M438 1454q-39 0 -59 33l-90 139q-15 25 -5.5 42.5t38.5 17.5h102q41 0 59 -33l62 -101l59 101q18 33 60 33h102q29 0 38.5 -17.5t-5.5 -42.5l-90 -139q-20 -33 -60 -33h-211zM141 0q-49 0 -49 49v1233q0 49 49 49h590q76 0 147.5 -28.5t130 -82t93.5 -138.5t35 -189
q0 -158 -77.5 -266t-197.5 -150l264 -418q15 -25 6 -42t-38 -17h-197q-39 0 -59 33l-267 422h-215v-406q0 -49 -49 -49h-166zM356 713h332q76 0 129 49.5t53 130.5q0 82 -53 132t-129 50h-332v-362z" />
    <glyph glyph-name="rcaron" unicode="&#x159;" horiz-adv-x="751"
d="M297 1079q-39 0 -59 33l-91 139q-15 25 -5.5 42.5t38.5 17.5h103q41 0 59 -33l61 -100l60 100q18 33 59 33h103q29 0 38 -17.5t-6 -42.5l-90 -139q-20 -33 -59 -33h-211zM141 0q-49 0 -49 49v844q0 49 49 49h158q49 0 49 -49v-121q98 156 281 180q51 6 51 -47v-141
q0 -46 -47 -49q-285 -26 -285 -283v-383q0 -49 -49 -49h-158z" />
    <glyph glyph-name="Sacute" unicode="&#x15a;" horiz-adv-x="1247"
d="M584 1454q-28 0 -37.5 16t2.5 41l65 138q16 37 58 37h112q28 0 37.5 -16.5t-2.5 -41.5l-69 -139q-17 -35 -58 -35h-108zM625 -25q-198 0 -342.5 81.5t-212.5 201.5q-22 42 18 68l135 96q38 27 68 -10q55 -66 153.5 -118t208.5 -52q115 0 161 36.5t46 104.5q0 32 -21 57.5
t-61 45t-73.5 31.5t-85.5 27t-70 21q-11 4 -48.5 15t-65.5 20t-72 27.5t-76.5 37.5t-68.5 49t-59.5 63.5t-39 79.5t-15.5 99q0 103 43 182t117 125.5t165 69.5t196 23q166 0 303 -72t196 -174q21 -40 -20 -66l-131 -83q-35 -23 -68 10q-46 49 -131 85t-182 36
q-89 0 -136.5 -32t-47.5 -89q0 -27 16 -49.5t38.5 -38t58 -30t63.5 -23t67.5 -20t57.5 -17.5q5 -2 46.5 -15.5t66 -22.5t71.5 -29.5t77.5 -40t69 -51t61 -64.5t38.5 -79t16 -96q0 -203 -142.5 -311.5t-387.5 -108.5z" />
    <glyph glyph-name="sacute" unicode="&#x15b;" horiz-adv-x="923"
d="M414 1079q-28 0 -37.5 16.5t2.5 41.5l65 137q16 37 58 37h112q28 0 37.5 -16.5t-2.5 -41.5l-69 -139q-17 -35 -58 -35h-108zM459 -29q-144 0 -248 53t-154 134q-23 39 19 67l96 64q35 22 66 -13q37 -41 98.5 -70.5t126.5 -29.5q135 0 135 88q0 22 -12 39t-37 30t-44 20
t-54.5 17.5t-47.5 14.5q-3 1 -34.5 11t-48 16t-52 21.5t-56.5 29t-49.5 37t-45 47.5t-28 58t-11.5 71q0 73 30.5 129t83.5 90t120 51t145 17q126 0 220.5 -44.5t143.5 -113.5q28 -42 -16 -68l-86 -55q-35 -22 -70 8q-37 32 -91 55t-109 23q-61 0 -91 -21.5t-30 -58.5
q0 -18 9.5 -33.5t22.5 -26t36 -20.5t39.5 -15.5t43.5 -13.5t39 -12q2 -1 30 -10t42 -14t46 -17.5t51 -24.5t47 -29.5t45.5 -37.5t35 -44t25.5 -53.5t8 -62.5q0 -147 -102.5 -225t-286.5 -78z" />
    <glyph glyph-name="Scedilla" unicode="&#x15e;" horiz-adv-x="1247"
d="M1155 395q0 -188 -124 -296t-339 -122q9 -12 0 -30l-26 -45q145 -25 145 -144q0 -85 -56 -124.5t-151 -39.5q-44 0 -90 9q-41 8 -41 55v29q0 48 53 39q40 -9 78 -9q78 0 78 41q0 39 -88 39q-19 0 -33 -2q-51 -6 -51 41v19q0 38 14 61l27 43q5 11 16 18
q-176 11 -305.5 90.5t-191.5 190.5q-22 42 18 68l135 96q38 27 68 -10q55 -66 153.5 -118t208.5 -52q115 0 161 36.5t46 104.5q0 32 -21 57.5t-61 45t-73.5 31.5t-85.5 27t-70 21q-11 4 -48.5 15t-65.5 20t-72 27.5t-76.5 37.5t-68.5 49t-59.5 63.5t-39 79.5t-15.5 99
q0 103 43 182t117 125.5t165 69.5t196 23q166 0 303 -72t196 -174q21 -40 -20 -66l-131 -83q-35 -23 -68 10q-46 49 -131 85t-182 36q-89 0 -136.5 -32t-47.5 -89q0 -27 16 -49.5t38.5 -38t58 -30t63.5 -23t67.5 -20t57.5 -17.5q5 -2 46.5 -15.5t66 -22.5t71.5 -29.5
t77.5 -40t69 -51t61 -64.5t38.5 -79t16 -96z" />
    <glyph glyph-name="scedilla" unicode="&#x15f;" horiz-adv-x="923"
d="M848 274q0 -133 -85 -210t-239 -91q3 -7 -4 -18l-26 -45q145 -25 145 -143q0 -85 -56 -124.5t-151 -39.5q-49 0 -90 8t-41 55v29q0 48 53 39q36 -8 78 -8q78 0 78 41q0 38 -88 38q-19 0 -33 -2q-51 -6 -51 41v19q0 38 14 61l27 43l6 8q-116 13 -200.5 63t-127.5 120
q-23 39 19 67l96 64q35 22 66 -13q37 -41 98.5 -70.5t126.5 -29.5q135 0 135 88q0 22 -12 39t-37 30t-44 20t-54.5 17.5t-47.5 14.5q-3 1 -34.5 11t-48 16t-52 21.5t-56.5 29t-49.5 37t-45 47.5t-28 58t-11.5 71q0 73 30.5 129t83.5 90t120 51t145 17q126 0 220.5 -44.5
t143.5 -113.5q28 -42 -16 -68l-86 -55q-35 -22 -70 8q-37 32 -91 55t-109 23q-61 0 -91 -21.5t-30 -58.5q0 -18 9.5 -33.5t22.5 -26t36 -20.5t39.5 -15.5t43.5 -13.5t39 -12q2 -1 30 -10t42 -14t46 -17.5t51 -24.5t47 -29.5t45.5 -37.5t35 -44t25.5 -53.5t8 -62.5z" />
    <glyph glyph-name="Scaron" unicode="&#x160;" horiz-adv-x="1247"
d="M522 1454q-39 0 -59 33l-90 139q-15 25 -5.5 42.5t38.5 17.5h102q41 0 59 -33l62 -101l59 101q18 33 60 33h102q29 0 38.5 -17.5t-5.5 -42.5l-90 -139q-20 -33 -60 -33h-211zM625 -25q-198 0 -342.5 81.5t-212.5 201.5q-22 42 18 68l135 96q38 27 68 -10
q55 -66 153.5 -118t208.5 -52q115 0 161 36.5t46 104.5q0 32 -21 57.5t-61 45t-73.5 31.5t-85.5 27t-70 21q-11 4 -48.5 15t-65.5 20t-72 27.5t-76.5 37.5t-68.5 49t-59.5 63.5t-39 79.5t-15.5 99q0 103 43 182t117 125.5t165 69.5t196 23q166 0 303 -72t196 -174
q21 -40 -20 -66l-131 -83q-35 -23 -68 10q-46 49 -131 85t-182 36q-89 0 -136.5 -32t-47.5 -89q0 -27 16 -49.5t38.5 -38t58 -30t63.5 -23t67.5 -20t57.5 -17.5q5 -2 46.5 -15.5t66 -22.5t71.5 -29.5t77.5 -40t69 -51t61 -64.5t38.5 -79t16 -96q0 -203 -142.5 -311.5
t-387.5 -108.5z" />
    <glyph glyph-name="scaron" unicode="&#x161;" horiz-adv-x="923"
d="M352 1079q-39 0 -59 33l-90 139q-15 25 -5.5 42.5t38.5 17.5h102q41 0 59 -33l62 -100l59 100q18 33 60 33h102q29 0 38.5 -17.5t-5.5 -42.5l-90 -139q-20 -33 -60 -33h-211zM459 -29q-144 0 -248 53t-154 134q-23 39 19 67l96 64q35 22 66 -13q37 -41 98.5 -70.5
t126.5 -29.5q135 0 135 88q0 22 -12 39t-37 30t-44 20t-54.5 17.5t-47.5 14.5q-3 1 -34.5 11t-48 16t-52 21.5t-56.5 29t-49.5 37t-45 47.5t-28 58t-11.5 71q0 73 30.5 129t83.5 90t120 51t145 17q126 0 220.5 -44.5t143.5 -113.5q28 -42 -16 -68l-86 -55q-35 -22 -70 8
q-37 32 -91 55t-109 23q-61 0 -91 -21.5t-30 -58.5q0 -18 9.5 -33.5t22.5 -26t36 -20.5t39.5 -15.5t43.5 -13.5t39 -12q2 -1 30 -10t42 -14t46 -17.5t51 -24.5t47 -29.5t45.5 -37.5t35 -44t25.5 -53.5t8 -62.5q0 -147 -102.5 -225t-286.5 -78z" />
    <glyph glyph-name="uni0162" unicode="&#x162;" horiz-adv-x="1206"
d="M1065 1331q49 0 49 -49v-143q0 -49 -49 -49h-348v-1041q0 -49 -49 -49h-31q14 -14 2 -33l-27 -45q146 -25 146 -143q0 -85 -56 -124.5t-151 -39.5q-49 0 -90 8t-41 55v29q0 48 53 39q36 -8 78 -8q78 0 78 41q0 39 -88 39q-19 0 -33 -2q-51 -6 -51 41v18q0 39 14 62l27 43
q6 8 18 20h-16q-49 0 -49 49v1041h-351q-49 0 -49 49v143q0 49 49 49h965z" />
    <glyph glyph-name="uni0163" unicode="&#x163;" horiz-adv-x="698"
d="M467 -74q145 -25 145 -143q0 -85 -55.5 -124.5t-150.5 -39.5q-50 0 -91 8t-41 56v28q0 48 54 39q36 -8 78 -8q77 0 77 41q0 39 -88 39q-19 0 -33 -2q-51 -6 -51 41v18q0 37 15 62l26 43q10 13 19 20q-217 27 -217 268v476h-74q-49 0 -49 49v96q0 49 49 49h74v240
q0 49 49 49h157q23 0 36.5 -13t13.5 -36v-240h151q49 0 49 -49v-96q0 -49 -49 -49h-151v-435q0 -39 10.5 -64t32 -35t38.5 -12.5t46 -2.5h14q49 0 49 -49v-101q0 -49 -49 -49h-57q10 -13 0 -29z" />
    <glyph glyph-name="Tcaron" unicode="&#x164;" horiz-adv-x="1206"
d="M477 1454q-39 0 -59 33l-90 139q-15 25 -6 42.5t38 17.5h103q41 0 59 -33l62 -101l59 101q18 33 59 33h103q29 0 38.5 -17.5t-5.5 -42.5l-90 -139q-20 -33 -60 -33h-211zM500 0q-49 0 -49 49v1041h-351q-49 0 -49 49v143q0 49 49 49h965q49 0 49 -49v-143q0 -49 -49 -49
h-348v-1041q0 -49 -49 -49h-168z" />
    <glyph glyph-name="tcaron" unicode="&#x165;" horiz-adv-x="698"
d="M168 1331q-39 0 -59 33l-91 139q-15 25 -5.5 42.5t38.5 17.5h103q41 0 59 -33l61 -100l60 100q18 33 59 33h103q29 0 38 -17.5t-6 -42.5l-90 -139q-20 -33 -59 -33h-211zM430 0q-276 0 -276 272v476h-74q-49 0 -49 49v96q0 49 49 49h74v240q0 49 49 49h157q23 0 36.5 -13
t13.5 -36v-240h151q49 0 49 -49v-96q0 -49 -49 -49h-151v-435q0 -39 10.5 -64t32 -35t38.5 -12.5t46 -2.5h14q49 0 49 -49v-101q0 -49 -49 -49h-121z" />
    <glyph glyph-name="Tbar" unicode="&#x166;" horiz-adv-x="1216"
d="M500 0q-49 0 -49 49v414h-181q-49 0 -49 49v143q0 23 13 36.5t36 13.5h181v385h-351q-49 0 -49 49v143q0 49 49 49h965q49 0 49 -49v-143q0 -49 -49 -49h-348v-385h178q23 0 36 -13.5t13 -36.5v-143q0 -49 -49 -49h-178v-414q0 -49 -49 -49h-168z" />
    <glyph glyph-name="Utilde" unicode="&#x168;" horiz-adv-x="1257"
d="M729 1419q-93 0 -156 72q-17 18 -26 26.5t-23 15.5t-30 7q-45 0 -60 -51q-12 -45 -51 -45h-53q-53 0 -47 51q13 87 65.5 140t138.5 53q92 0 156 -72q45 -49 86 -49q52 0 66 47q9 47 51 47h51q53 0 47 -47q-11 -89 -65 -142t-150 -53zM608 -16q-161 0 -280 67.5
t-177.5 176.5t-58.5 243v811q0 49 49 49h166q49 0 49 -49v-782q0 -130 71 -194t181 -64t181 64t71 194v782q0 49 49 49h166q49 0 49 -49v-811q0 -134 -58.5 -243t-177.5 -176.5t-280 -67.5z" />
    <glyph glyph-name="utilde" unicode="&#x169;" horiz-adv-x="1112"
d="M657 1044q-92 0 -155 72q-24 26 -40.5 37.5t-39.5 11.5q-45 0 -60 -51q-12 -45 -51 -45h-53q-53 0 -47 51q13 87 66 140t139 53q91 0 155 -72q45 -49 86 -49q52 0 66 47q9 47 51 47h51q53 0 47 -47q-11 -89 -65 -142t-150 -53zM461 -16q-54 0 -104 11.5t-99 39.5
t-85 70.5t-58.5 109t-22.5 150.5v528q0 49 49 49h158q49 0 49 -49v-487q0 -59 19 -101.5t49.5 -63.5t61 -30.5t61.5 -9.5t60.5 9t58.5 30.5t47 64t18 101.5v487q0 49 49 49h158q49 0 49 -49v-844q0 -49 -49 -49h-158q-49 0 -49 43v43q-97 -102 -262 -102z" />
    <glyph glyph-name="Umacron" unicode="&#x16a;" horiz-adv-x="1257"
d="M463 1448q-49 0 -49 49v66q0 49 49 49h305q49 0 49 -49v-66q0 -49 -49 -49h-305zM608 -16q-161 0 -280 67.5t-177.5 176.5t-58.5 243v811q0 49 49 49h166q49 0 49 -49v-782q0 -130 71 -194t181 -64t181 64t71 194v782q0 49 49 49h166q49 0 49 -49v-811q0 -134 -58.5 -243
t-177.5 -176.5t-280 -67.5z" />
    <glyph glyph-name="umacron" unicode="&#x16b;" horiz-adv-x="1112"
d="M391 1073q-49 0 -49 49v66q0 49 49 49h305q49 0 49 -49v-66q0 -49 -49 -49h-305zM461 -16q-54 0 -104 11.5t-99 39.5t-85 70.5t-58.5 109t-22.5 150.5v528q0 49 49 49h158q49 0 49 -49v-487q0 -59 19 -101.5t49.5 -63.5t61 -30.5t61.5 -9.5t60.5 9t58.5 30.5t47 64
t18 101.5v487q0 49 49 49h158q49 0 49 -49v-844q0 -49 -49 -49h-158q-49 0 -49 43v43q-97 -102 -262 -102z" />
    <glyph glyph-name="Uring" unicode="&#x16e;" horiz-adv-x="1257"
d="M616 1419q-87 0 -142.5 54t-55.5 133q0 83 55 135.5t143 52.5q87 0 141 -52t54 -136q0 -79 -54.5 -133t-140.5 -54zM616 1532q39 0 56.5 23.5t17.5 50.5t-17.5 51t-56.5 24q-40 0 -56.5 -23.5t-16.5 -51.5t16.5 -51t56.5 -23zM608 -16q-161 0 -280 67.5t-177.5 176.5
t-58.5 243v811q0 49 49 49h166q49 0 49 -49v-782q0 -130 71 -194t181 -64t181 64t71 194v782q0 49 49 49h166q49 0 49 -49v-811q0 -134 -58.5 -243t-177.5 -176.5t-280 -67.5z" />
    <glyph glyph-name="uring" unicode="&#x16f;" horiz-adv-x="1112"
d="M545 1044q-87 0 -143 54t-56 133q0 83 55.5 135.5t143.5 52.5q87 0 140.5 -52t53.5 -136q0 -80 -54 -133.5t-140 -53.5zM545 1157q39 0 56 23.5t17 50.5t-17 51.5t-56 24.5q-40 0 -57 -24t-17 -52q0 -27 16.5 -50.5t57.5 -23.5zM461 -16q-54 0 -104 11.5t-99 39.5
t-85 70.5t-58.5 109t-22.5 150.5v528q0 49 49 49h158q49 0 49 -49v-487q0 -59 19 -101.5t49.5 -63.5t61 -30.5t61.5 -9.5t60.5 9t58.5 30.5t47 64t18 101.5v487q0 49 49 49h158q49 0 49 -49v-844q0 -49 -49 -49h-158q-49 0 -49 43v43q-97 -102 -262 -102z" />
    <glyph glyph-name="Uhungarumlaut" unicode="&#x170;" horiz-adv-x="1257"
d="M381 1454q-28 0 -38.5 16t1.5 41l66 138q16 37 59 37h106q30 0 40 -17t-7 -43l-92 -139q-20 -33 -59 -33h-76zM752 1454q-28 0 -38.5 16t1.5 41l65 138q16 37 60 37h106q30 0 40 -17t-7 -43l-92 -139q-20 -33 -60 -33h-75zM608 -16q-161 0 -280 67.5t-177.5 176.5
t-58.5 243v811q0 49 49 49h166q49 0 49 -49v-782q0 -130 71 -194t181 -64t181 64t71 194v782q0 49 49 49h166q49 0 49 -49v-811q0 -134 -58.5 -243t-177.5 -176.5t-280 -67.5z" />
    <glyph glyph-name="uhungarumlaut" unicode="&#x171;" horiz-adv-x="1112"
d="M309 1079q-28 0 -38.5 16.5t1.5 41.5l66 137q16 37 59 37h107q30 0 40 -17t-7 -43l-93 -139q-20 -33 -59 -33h-76zM680 1079q-28 0 -38.5 16.5t1.5 41.5l66 137q16 37 59 37h106q30 0 40 -17t-7 -43l-92 -139q-20 -33 -59 -33h-76zM461 -16q-54 0 -104 11.5t-99 39.5
t-85 70.5t-58.5 109t-22.5 150.5v528q0 49 49 49h158q49 0 49 -49v-487q0 -59 19 -101.5t49.5 -63.5t61 -30.5t61.5 -9.5t60.5 9t58.5 30.5t47 64t18 101.5v487q0 49 49 49h158q49 0 49 -49v-844q0 -49 -49 -49h-158q-49 0 -49 43v43q-97 -102 -262 -102z" />
    <glyph glyph-name="Uogonek" unicode="&#x172;" horiz-adv-x="1257"
d="M1075 1331q49 0 49 -49v-811q0 -193 -122 -330t-336 -155q-3 -13 -19 -29q-43 -43 -43 -86q0 -24 19 -38t61 -7q57 9 57 -41v-47q0 -47 -45 -53q-102 -13 -174.5 25.5t-72.5 121.5q0 87 86 156q-207 23 -325 158t-118 325v811q0 49 49 49h166q49 0 49 -49v-782
q0 -130 71 -194t181 -64t181 64t71 194v782q0 49 49 49h166z" />
    <glyph glyph-name="uogonek" unicode="&#x173;" horiz-adv-x="1112"
d="M946 -160q58 9 58 -41v-47q0 -47 -46 -53q-102 -13 -174.5 25.5t-72.5 121.5q0 86 84 154h-23q-49 0 -49 43v43q-97 -102 -262 -102q-54 0 -104 11.5t-99 39.5t-85 70.5t-58.5 109t-22.5 150.5v528q0 49 49 49h158q49 0 49 -49v-487q0 -59 19 -101.5t49.5 -63.5t61 -30.5
t61.5 -9.5t60.5 9t58.5 30.5t47 64t18 101.5v487q0 49 49 49h158q49 0 49 -49v-844q0 -49 -49 -49h-2q-3 -13 -19 -29q-43 -43 -43 -86q0 -24 19 -38t61 -7z" />
    <glyph glyph-name="Wcircumflex" unicode="&#x174;" horiz-adv-x="1945"
d="M741 1454q-29 0 -38 17t6 42l90 140q20 33 59 33h211q39 0 59 -33l91 -140q15 -25 5.5 -42t-38.5 -17h-103q-39 0 -57 35l-61 106l-62 -108q-17 -33 -59 -33h-103zM518 0q-45 0 -57 41l-412 1235q-8 25 3.5 40t37.5 15h178q46 0 58 -41l268 -807l266 807q12 41 55 41h109
q45 0 57 -41l260 -774l258 774q12 41 58 41h178q26 0 37.5 -15t3.5 -40l-412 -1235q-12 -41 -57 -41h-141q-46 0 -58 41l-245 743l-246 -743q-12 -41 -58 -41h-141z" />
    <glyph glyph-name="wcircumflex" unicode="&#x175;" horiz-adv-x="1568"
d="M551 1079q-29 0 -38.5 17.5t5.5 42.5l90 139q20 33 60 33h211q39 0 59 -33l90 -139q15 -25 5.5 -42.5t-38.5 -17.5h-102q-39 0 -57 35l-62 107l-61 -109q-17 -33 -60 -33h-102zM367 0q-45 0 -56 41l-272 846q-7 26 4 40.5t37 14.5h162q44 0 55 -41l170 -539l188 541
q12 39 58 39h104q45 0 57 -39l189 -541l168 539q11 41 55 41h162q26 0 37 -14.5t4 -40.5l-277 -846q-11 -41 -55 -41h-164q-45 0 -57 41l-174 512l-174 -512q-12 -41 -58 -41h-163z" />
    <glyph glyph-name="Ycircumflex" unicode="&#x176;" horiz-adv-x="1280"
d="M401 1454q-29 0 -38 17t6 42l90 140q20 33 59 33h211q39 0 59 -33l91 -140q15 -25 5.5 -42t-38.5 -17h-103q-39 0 -57 35l-61 106l-62 -108q-17 -33 -59 -33h-103zM541 0q-49 0 -49 49v516l-437 707q-15 26 -5.5 42.5t38.5 16.5h195q41 0 59 -33l281 -456l280 456
q18 33 60 33h196q29 0 38.5 -16.5t-5.5 -42.5l-436 -707v-516q0 -49 -49 -49h-166z" />
    <glyph glyph-name="ycircumflex" unicode="&#x177;" horiz-adv-x="1077"
d="M305 1079q-29 0 -38.5 17.5t5.5 42.5l90 139q20 33 60 33h211q39 0 59 -33l90 -139q15 -25 6 -42.5t-38 -17.5h-103q-39 0 -57 35l-62 107l-61 -109q-17 -33 -59 -33h-103zM293 -377q-27 0 -37.5 16.5t-1.5 41.5l127 319l-348 885q-9 25 1.5 41t37.5 16h161q40 0 56 -39
l217 -549l219 549q16 39 57 39h162q28 0 39 -16t0 -41l-487 -1223q-16 -39 -56 -39h-147z" />
    <glyph glyph-name="Ydieresis" unicode="&#x178;" horiz-adv-x="1280"
d="M432 1423q-46 0 -82.5 33t-36.5 86q0 51 36.5 82t82.5 31q45 0 81 -31t36 -82q0 -53 -36.5 -86t-80.5 -33zM817 1423q-44 0 -80.5 33t-36.5 86q0 51 36 82t81 31q46 0 82.5 -31t36.5 -82q0 -53 -36.5 -86t-82.5 -33zM541 0q-49 0 -49 49v516l-437 707q-15 26 -5.5 42.5
t38.5 16.5h195q41 0 59 -33l281 -456l280 456q18 33 60 33h196q29 0 38.5 -16.5t-5.5 -42.5l-436 -707v-516q0 -49 -49 -49h-166z" />
    <glyph glyph-name="Zacute" unicode="&#x179;" horiz-adv-x="1110"
d="M512 1454q-28 0 -37.5 16t2.5 41l66 138q16 37 57 37h113q28 0 37.5 -16.5t-2.5 -41.5l-70 -139q-17 -35 -57 -35h-109zM121 0q-49 0 -49 49v139q0 34 20 60l596 839h-555q-23 0 -36 13.5t-13 36.5v145q0 49 49 49h836q49 0 49 -49v-141q0 -33 -21 -60l-602 -837l561 -2
q23 0 36.5 -13t13.5 -36v-144q0 -23 -13.5 -36t-36.5 -13h-835z" />
    <glyph glyph-name="zacute" unicode="&#x17a;" horiz-adv-x="868"
d="M371 1079q-28 0 -37.5 16.5t2.5 41.5l65 137q16 37 58 37h112q28 0 37.5 -16.5t-2.5 -41.5l-69 -139q-17 -35 -58 -35h-108zM100 0q-49 0 -49 49v107q0 34 21 61l381 516h-349q-49 0 -49 49v111q0 49 49 49h623q49 0 49 -49v-107q0 -35 -20 -61l-381 -514h348
q49 0 49 -49v-113q0 -49 -49 -49h-623z" />
    <glyph glyph-name="Zdotaccent" unicode="&#x17b;" horiz-adv-x="1110"
d="M557 1423q-46 0 -82.5 33t-36.5 86q0 51 36.5 82t82.5 31q45 0 81 -31t36 -82q0 -53 -36.5 -86t-80.5 -33zM121 0q-49 0 -49 49v139q0 34 20 60l596 839h-555q-23 0 -36 13.5t-13 36.5v145q0 49 49 49h836q49 0 49 -49v-141q0 -33 -21 -60l-602 -837l561 -2
q23 0 36.5 -13t13.5 -36v-144q0 -23 -13.5 -36t-36.5 -13h-835z" />
    <glyph glyph-name="zdotaccent" unicode="&#x17c;" horiz-adv-x="868"
d="M416 1049q-46 0 -82.5 32.5t-36.5 85.5q0 51 36.5 82t82.5 31q45 0 80.5 -31t35.5 -82q0 -53 -36 -85.5t-80 -32.5zM100 0q-49 0 -49 49v107q0 34 21 61l381 516h-349q-49 0 -49 49v111q0 49 49 49h623q49 0 49 -49v-107q0 -35 -20 -61l-381 -514h348q49 0 49 -49v-113
q0 -49 -49 -49h-623z" />
    <glyph glyph-name="Zcaron" unicode="&#x17d;" horiz-adv-x="1110"
d="M451 1454q-40 0 -60 33l-90 139q-15 25 -5.5 42.5t38.5 17.5h102q42 0 60 -33l61 -101l59 101q18 33 60 33h102q29 0 38.5 -17.5t-5.5 -42.5l-90 -139q-20 -33 -59 -33h-211zM121 0q-49 0 -49 49v139q0 34 20 60l596 839h-555q-23 0 -36 13.5t-13 36.5v145q0 49 49 49
h836q49 0 49 -49v-141q0 -33 -21 -60l-602 -837l561 -2q23 0 36.5 -13t13.5 -36v-144q0 -23 -13.5 -36t-36.5 -13h-835z" />
    <glyph glyph-name="zcaron" unicode="&#x17e;" horiz-adv-x="868"
d="M309 1079q-39 0 -59 33l-90 139q-15 25 -5.5 42.5t38.5 17.5h102q41 0 59 -33l62 -100l59 100q18 33 60 33h102q29 0 38.5 -17.5t-5.5 -42.5l-90 -139q-20 -33 -60 -33h-211zM100 0q-49 0 -49 49v107q0 34 21 61l381 516h-349q-49 0 -49 49v111q0 49 49 49h623
q49 0 49 -49v-107q0 -35 -20 -61l-381 -514h348q49 0 49 -49v-113q0 -49 -49 -49h-623z" />
    <glyph glyph-name="uni01CD" unicode="&#x1cd;" horiz-adv-x="1361"
d="M569 1454q-39 0 -59 33l-90 139q-15 25 -5.5 42.5t38.5 17.5h102q41 0 59 -33l62 -101l59 101q18 33 60 33h102q29 0 38.5 -17.5t-5.5 -42.5l-90 -139q-20 -33 -60 -33h-211zM92 0q-28 0 -39 16t0 41l502 1235q16 39 57 39h119q41 0 57 -39l500 -1235q11 -25 0 -41
t-39 -16h-178q-39 0 -55 39l-72 180h-547l-71 -180q-16 -39 -56 -39h-178zM494 461h356l-178 452z" />
    <glyph glyph-name="uni01CE" unicode="&#x1ce;"
d="M498 1079q-40 0 -60 33l-90 139q-15 25 -5.5 42.5t38.5 17.5h102q42 0 60 -33l61 -100l60 100q18 33 59 33h102q29 0 38.5 -17.5t-5.5 -42.5l-90 -139q-20 -33 -59 -33h-211zM504 -16q-193 0 -320 138t-127 349q0 213 126.5 349t320.5 136q170 0 270 -114v51q0 49 49 49
h158q49 0 49 -49v-844q0 -49 -49 -49h-158q-49 0 -49 49v49q-100 -114 -270 -114zM541 225q104 0 168.5 69.5t64.5 176.5t-64.5 176.5t-168.5 69.5q-105 0 -170.5 -69.5t-65.5 -176.5t65.5 -176.5t170.5 -69.5z" />
    <glyph glyph-name="uni01CF" unicode="&#x1cf;" horiz-adv-x="489"
d="M117 1454q-40 0 -60 33l-90 139q-15 25 -5.5 42.5t38.5 17.5h102q42 0 60 -33l61 -101l60 101q18 33 59 33h102q29 0 38.5 -17.5t-5.5 -42.5l-90 -139q-20 -33 -59 -33h-211zM141 0q-49 0 -49 49v1233q0 49 49 49h166q49 0 49 -49v-1233q0 -49 -49 -49h-166z" />
    <glyph glyph-name="uni01D0" unicode="&#x1d0;" horiz-adv-x="493"
d="M119 1079q-40 0 -60 33l-90 139q-15 25 -5.5 42.5t38.5 17.5h102q42 0 60 -33l61 -100l60 100q18 33 59 33h102q29 0 38.5 -17.5t-5.5 -42.5l-90 -139q-20 -33 -59 -33h-211zM147 0q-49 0 -49 49v844q0 49 49 49h158q49 0 49 -49v-844q0 -49 -49 -49h-158z" />
    <glyph glyph-name="uni01D1" unicode="&#x1d1;" horiz-adv-x="1513"
d="M639 1454q-39 0 -59 33l-91 139q-15 25 -5.5 42.5t38.5 17.5h103q41 0 59 -33l61 -101l60 101q18 33 59 33h103q29 0 38 -17.5t-6 -42.5l-90 -139q-20 -33 -59 -33h-211zM743 -16q-146 0 -271 51.5t-213 141.5t-137.5 216.5t-49.5 272.5t49.5 272.5t137.5 216.5
t213 141.5t271 51.5q195 0 347.5 -88t236.5 -243t84 -351t-84 -351t-236.5 -243t-347.5 -88zM743 248q181 0 291.5 117t110.5 301q0 183 -110.5 300t-291.5 117q-182 0 -294.5 -117t-112.5 -300t112.5 -300.5t294.5 -117.5z" />
    <glyph glyph-name="uni01D2" unicode="&#x1d2;" horiz-adv-x="1126"
d="M438 1079q-39 0 -59 33l-90 139q-15 25 -5.5 42.5t38.5 17.5h102q41 0 59 -33l62 -100l59 100q18 33 60 33h102q29 0 38.5 -17.5t-5.5 -42.5l-90 -139q-20 -33 -60 -33h-211zM543 -20q-213 0 -349.5 139.5t-136.5 351.5q0 214 136.5 352t349.5 138q214 0 349.5 -137.5
t135.5 -352.5q0 -212 -135.5 -351.5t-349.5 -139.5zM543 225q104 0 168.5 69.5t64.5 176.5t-64.5 176.5t-168.5 69.5q-103 0 -168.5 -69.5t-65.5 -176.5t65.5 -176.5t168.5 -69.5z" />
    <glyph glyph-name="uni01D3" unicode="&#x1d3;" horiz-adv-x="1257"
d="M510 1454q-39 0 -59 33l-91 139q-15 25 -5.5 42.5t38.5 17.5h103q41 0 59 -33l61 -101l60 101q18 33 59 33h103q29 0 38 -17.5t-6 -42.5l-90 -139q-20 -33 -59 -33h-211zM608 -16q-161 0 -280 67.5t-177.5 176.5t-58.5 243v811q0 49 49 49h166q49 0 49 -49v-782
q0 -130 71 -194t181 -64t181 64t71 194v782q0 49 49 49h166q49 0 49 -49v-811q0 -134 -58.5 -243t-177.5 -176.5t-280 -67.5z" />
    <glyph glyph-name="uni01D4" unicode="&#x1d4;" horiz-adv-x="1112"
d="M438 1079q-39 0 -59 33l-90 139q-15 25 -5.5 42.5t38.5 17.5h102q41 0 59 -33l62 -100l59 100q18 33 60 33h102q29 0 38.5 -17.5t-5.5 -42.5l-90 -139q-20 -33 -60 -33h-211zM461 -16q-54 0 -104 11.5t-99 39.5t-85 70.5t-58.5 109t-22.5 150.5v528q0 49 49 49h158
q49 0 49 -49v-487q0 -59 19 -101.5t49.5 -63.5t61 -30.5t61.5 -9.5t60.5 9t58.5 30.5t47 64t18 101.5v487q0 49 49 49h158q49 0 49 -49v-844q0 -49 -49 -49h-158q-49 0 -49 43v43q-97 -102 -262 -102z" />
    <glyph glyph-name="Gcaron" unicode="&#x1e6;" horiz-adv-x="1495"
d="M639 1454q-39 0 -59 33l-91 139q-15 25 -5.5 42.5t38.5 17.5h103q41 0 59 -33l61 -101l60 101q18 33 59 33h103q29 0 38 -17.5t-6 -42.5l-90 -139q-20 -33 -59 -33h-211zM743 -16q-146 0 -271 51.5t-213 141.5t-137.5 216.5t-49.5 272.5t49.5 272.5t137.5 216.5
t213 141.5t271 51.5q158 0 289 -60t219 -168q30 -37 -10 -67l-135 -101q-35 -26 -70 9q-57 61 -133.5 91.5t-159.5 30.5q-182 0 -294.5 -117t-112.5 -300t112.5 -300.5t294.5 -117.5q123 0 218.5 69t119.5 193h-305q-49 0 -49 49v143q0 23 13 36.5t36 13.5h555
q23 0 36 -13.5t13 -36.5l2 -67q-11 -289 -183 -470t-456 -181z" />
    <glyph glyph-name="gcaron" unicode="&#x1e7;"
d="M455 1079q-40 0 -60 33l-90 139q-15 25 -5.5 42.5t38.5 17.5h102q42 0 60 -33l61 -100l60 100q18 33 59 33h102q29 0 38.5 -17.5t-5.5 -42.5l-90 -139q-20 -33 -59 -33h-211zM526 -401q-221 0 -364 133q-36 33 4 69l92 78q32 28 70 0q81 -65 198 -65q29 0 59.5 6.5
t65.5 24t61.5 44.5t44 73t17.5 104v34q-102 -116 -272 -116q-193 0 -319 138t-126 349t126 348t319 137q173 0 272 -116v53q0 49 49 49h158q49 0 49 -49v-827q0 -208 -133 -337.5t-371 -129.5zM539 225q105 0 170 69.5t65 176.5t-65 176.5t-170 69.5t-169.5 -69.5
t-64.5 -176.5t64.5 -176.5t169.5 -69.5z" />
    <glyph glyph-name="uni0218" unicode="&#x218;" horiz-adv-x="1247"
d="M625 -25q-198 0 -342.5 81.5t-212.5 201.5q-22 42 18 68l135 96q38 27 68 -10q55 -66 153.5 -118t208.5 -52q115 0 161 36.5t46 104.5q0 32 -21 57.5t-61 45t-73.5 31.5t-85.5 27t-70 21q-11 4 -48.5 15t-65.5 20t-72 27.5t-76.5 37.5t-68.5 49t-59.5 63.5t-39 79.5
t-15.5 99q0 103 43 182t117 125.5t165 69.5t196 23q166 0 303 -72t196 -174q21 -40 -20 -66l-131 -83q-35 -23 -68 10q-46 49 -131 85t-182 36q-89 0 -136.5 -32t-47.5 -89q0 -27 16 -49.5t38.5 -38t58 -30t63.5 -23t67.5 -20t57.5 -17.5q5 -2 46.5 -15.5t66 -22.5
t71.5 -29.5t77.5 -40t69 -51t61 -64.5t38.5 -79t16 -96q0 -203 -142.5 -311.5t-387.5 -108.5zM492 -354q-28 0 -38.5 15.5t1.5 41.5l67 135q17 35 58 35h106q29 0 40 -17t-3 -42l-74 -133q-17 -35 -57 -35h-100z" />
    <glyph glyph-name="uni0219" unicode="&#x219;" horiz-adv-x="923"
d="M459 -29q-144 0 -248 53t-154 134q-23 39 19 67l96 64q35 22 66 -13q37 -41 98.5 -70.5t126.5 -29.5q135 0 135 88q0 22 -12 39t-37 30t-44 20t-54.5 17.5t-47.5 14.5q-3 1 -34.5 11t-48 16t-52 21.5t-56.5 29t-49.5 37t-45 47.5t-28 58t-11.5 71q0 73 30.5 129t83.5 90
t120 51t145 17q126 0 220.5 -44.5t143.5 -113.5q28 -42 -16 -68l-86 -55q-35 -22 -70 8q-37 32 -91 55t-109 23q-61 0 -91 -21.5t-30 -58.5q0 -18 9.5 -33.5t22.5 -26t36 -20.5t39.5 -15.5t43.5 -13.5t39 -12q2 -1 30 -10t42 -14t46 -17.5t51 -24.5t47 -29.5t45.5 -37.5
t35 -44t25.5 -53.5t8 -62.5q0 -147 -102.5 -225t-286.5 -78zM319 -346q-28 0 -38 15.5t2 41.5l67 135q17 35 58 35h106q29 0 40 -17t-3 -42l-74 -133q-17 -35 -57 -35h-101z" />
    <glyph glyph-name="uni021A" unicode="&#x21a;" horiz-adv-x="1206"
d="M500 0q-49 0 -49 49v1041h-351q-49 0 -49 49v143q0 49 49 49h965q49 0 49 -49v-143q0 -49 -49 -49h-348v-1041q0 -49 -49 -49h-168zM438 -334q-28 0 -38.5 16t1.5 42l68 135q17 35 57 35h107q29 0 40 -17.5t-3 -42.5l-74 -133q-17 -35 -57 -35h-101z" />
    <glyph glyph-name="uni021B" unicode="&#x21b;" horiz-adv-x="698"
d="M430 0q-276 0 -276 272v476h-74q-49 0 -49 49v96q0 49 49 49h74v240q0 49 49 49h157q23 0 36.5 -13t13.5 -36v-240h151q49 0 49 -49v-96q0 -49 -49 -49h-151v-435q0 -39 10.5 -64t32 -35t38.5 -12.5t46 -2.5h14q49 0 49 -49v-101q0 -49 -49 -49h-121zM293 -330
q-28 0 -38.5 16t1.5 42l68 135q17 35 57 35h106q29 0 40 -17.5t-3 -42.5l-73 -133q-17 -35 -58 -35h-100z" />
    <glyph glyph-name="circumflex" unicode="&#x2c6;" horiz-adv-x="669"
d="M113 1100q-29 0 -38.5 17t5.5 42l90 139q20 33 59 33h211q40 0 60 -33l90 -139q15 -25 5.5 -42t-38.5 -17h-102q-40 0 -58 35l-61 106l-62 -108q-17 -33 -59 -33h-102z" />
    <glyph glyph-name="caron" unicode="&#x2c7;" horiz-adv-x="669"
d="M229 1100q-39 0 -59 33l-90 139q-15 25 -5.5 42t38.5 17h102q41 0 59 -33l62 -100l59 100q18 33 60 33h102q29 0 38.5 -17t-5.5 -42l-90 -139q-20 -33 -60 -33h-211z" />
    <glyph glyph-name="breve" unicode="&#x2d8;" horiz-adv-x="544"
d="M274 1102q-104 0 -168.5 57t-64.5 166q0 6 49 6h51q49 0 49 -2v-4q0 -40 22.5 -65t61.5 -25q40 0 60 24.5t20 65.5q0 6 49 6h52q49 0 49 -2v-4q0 -108 -63.5 -165.5t-166.5 -57.5z" />
    <glyph glyph-name="dotaccent" unicode="&#x2d9;" horiz-adv-x="317"
d="M160 1178q-46 0 -82.5 32.5t-36.5 85.5q0 51 36.5 82t82.5 31q45 0 80.5 -31t35.5 -82q0 -53 -36 -85.5t-80 -32.5z" />
    <glyph glyph-name="ring" unicode="&#x2da;" horiz-adv-x="475"
d="M242 1008q-88 0 -144.5 54.5t-56.5 135.5q0 85 56 138t145 53q90 0 144 -53t54 -138q0 -81 -54.5 -135.5t-143.5 -54.5zM242 1122q42 0 59.5 23t17.5 53q0 29 -17.5 53.5t-59.5 24.5t-59 -24.5t-17 -53.5q0 -30 17 -53t59 -23z" />
    <glyph glyph-name="ogonek" unicode="&#x2db;" horiz-adv-x="364"
d="M322 -272q0 -48 -46 -54q-99 -13 -167 25.5t-68 122.5q0 95 86 160q23 18 59 18h17q32 0 37 -15t-17 -40q-39 -45 -39 -84q0 -24 19 -38t61 -7q58 9 58 -41v-47z" />
    <glyph glyph-name="tilde" unicode="&#x2dc;" horiz-adv-x="751"
d="M492 1149q-93 0 -156 72q-24 26 -40.5 37.5t-39.5 11.5q-44 0 -59 -51q-12 -45 -52 -45h-53q-53 0 -47 51q12 87 65.5 139.5t139.5 52.5q93 0 156 -71q46 -50 86 -50q51 0 65 47q9 48 51 48h51q25 0 38 -12.5t10 -35.5q-11 -89 -65 -141.5t-150 -52.5z" />
    <glyph glyph-name="hungarumlaut" unicode="&#x2dd;" horiz-adv-x="784"
d="M106 1100q-28 0 -38 16t2 41l65 137q16 37 60 37h106q30 0 40 -16.5t-7 -42.5l-92 -139q-20 -33 -60 -33h-76zM477 1100q-28 0 -38.5 16t1.5 41l66 137q16 37 59 37h107q30 0 40 -16.5t-7 -42.5l-93 -139q-20 -33 -59 -33h-76z" />
    <glyph glyph-name="gravecomb" unicode="&#x300;" horiz-adv-x="0"
d="M-213 1100q-40 0 -57 35l-70 139q-12 25 -2.5 41t37.5 16h112q42 0 58 -37l65 -137q12 -25 3 -41t-37 -16h-109z" />
    <glyph glyph-name="acutecomb" unicode="&#x301;" horiz-adv-x="0"
d="M-307 1100q-28 0 -37.5 16t2.5 41l66 137q16 37 57 37h113q28 0 37 -16t-3 -41l-69 -139q-17 -35 -58 -35h-108z" />
    <glyph glyph-name="uni0302" unicode="&#x302;" horiz-adv-x="0"
d="M-557 1100q-29 0 -38.5 17t5.5 42l90 139q20 33 60 33h211q39 0 59 -33l90 -139q15 -25 5.5 -42t-38.5 -17h-102q-39 0 -57 35l-62 106l-61 -108q-17 -33 -60 -33h-102z" />
    <glyph glyph-name="tildecomb" unicode="&#x303;" horiz-adv-x="0"
d="M-260 1149q-93 0 -156 72q-24 26 -40.5 37.5t-39.5 11.5q-44 0 -59 -51q-12 -45 -51 -45h-53q-25 0 -38 13.5t-10 37.5q12 87 65.5 139.5t139.5 52.5q93 0 156 -71q46 -50 86 -50q51 0 65 47q9 48 52 48h51q53 0 47 -48q-11 -89 -65 -141.5t-150 -52.5z" />
    <glyph glyph-name="uni0304" unicode="&#x304;" horiz-adv-x="0"
d="M-395 1167q-23 0 -36 13.5t-13 36.5v65q0 49 49 49h305q49 0 49 -49v-65q0 -23 -13 -36.5t-36 -13.5h-305z" />
    <glyph glyph-name="uni0306" unicode="&#x306;" horiz-adv-x="0"
d="M-287 1100q-111 0 -179.5 61.5t-68.5 163.5q0 6 50 6h51q49 0 49 -2v-4q0 -37 27 -64.5t71 -27.5q45 0 71 27t26 65q0 6 49 6h51q49 0 49 -2v-4q0 -102 -67.5 -163.5t-178.5 -61.5z" />
    <glyph glyph-name="uni0307" unicode="&#x307;" horiz-adv-x="0"
d="M-158 1178q-46 0 -82 32.5t-36 85.5q0 51 36 82t82 31q45 0 81 -31t36 -82q0 -52 -36 -85t-81 -33z" />
    <glyph glyph-name="uni0308" unicode="&#x308;" horiz-adv-x="0"
d="M-559 1178q-46 0 -82.5 32.5t-36.5 85.5q0 51 36.5 82t82.5 31q45 0 81 -31t36 -82q0 -52 -36 -85t-81 -33zM-174 1178q-45 0 -81 33t-36 85q0 51 36 82t81 31q46 0 82.5 -31t36.5 -82q0 -53 -36.5 -85.5t-82.5 -32.5z" />
    <glyph glyph-name="uni030A" unicode="&#x30a;" horiz-adv-x="0"
d="M-236 1014q-87 0 -142.5 53.5t-55.5 132.5q0 83 55 136t143 53q87 0 141 -52.5t54 -136.5q0 -79 -54.5 -132.5t-140.5 -53.5zM-236 1126q39 0 56.5 23.5t17.5 50.5t-17.5 51.5t-56.5 24.5q-40 0 -56.5 -24t-16.5 -52t16.5 -51t56.5 -23z" />
    <glyph glyph-name="uni030B" unicode="&#x30b;" horiz-adv-x="0"
d="M-678 1100q-28 0 -38.5 16t1.5 41l66 137q16 37 59 37h107q30 0 39.5 -16.5t-7.5 -42.5l-92 -139q-20 -33 -59 -33h-76zM-307 1100q-28 0 -38.5 16t1.5 41l65 137q16 37 60 37h106q30 0 40 -16.5t-7 -42.5l-92 -139q-20 -33 -59 -33h-76z" />
    <glyph glyph-name="uni030C" unicode="&#x30c;" horiz-adv-x="0"
d="M-440 1100q-40 0 -60 33l-90 139q-15 25 -5.5 42t38.5 17h102q42 0 60 -33l61 -100l60 100q18 33 59 33h102q29 0 38.5 -17t-5.5 -42l-90 -139q-20 -33 -59 -33h-211z" />
    <glyph glyph-name="uni0312" unicode="&#x312;" horiz-adv-x="0"
d="M-164 1133q-56 0 -88.5 33t-32.5 77q0 78 95 158q25 22 61 22h2q48 0 51 -20q1 -8 -8 -17q-35 -40 -37 -43q31 -10 51.5 -35.5t20.5 -64.5q0 -45 -30 -77.5t-85 -32.5z" />
    <glyph glyph-name="dotbelowcomb" unicode="&#x323;" horiz-adv-x="0"
d="M-158 -233q-46 0 -82 33t-36 87q0 51 36 82t82 31q45 0 81 -31t36 -82q0 -54 -36 -87t-81 -33z" />
    <glyph glyph-name="uni0326" unicode="&#x326;" horiz-adv-x="0"
d="M-303 -227q-28 0 -38.5 15.5t1.5 41.5l68 135q17 35 57 35h106q29 0 40 -17t-3 -42l-73 -134q-16 -34 -58 -34h-100z" />
    <glyph glyph-name="uni0327" unicode="&#x327;" horiz-adv-x="0"
d="M-248 -397q-49 0 -90 8t-41 55v29q0 48 53 39q36 -8 78 -8q78 0 78 41q0 38 -88 38q-19 0 -33 -2q-51 -6 -51 41v19q0 38 14 61l27 43q20 33 59 33h39q29 0 41.5 -13t1.5 -32l-26 -45q145 -25 145 -143q0 -85 -56 -124.5t-151 -39.5z" />
    <glyph glyph-name="uni0328" unicode="&#x328;" horiz-adv-x="0"
d="M-43 -272q0 -48 -45 -54q-65 -8 -120.5 5t-91.5 50t-36 93q0 94 94 162q24 16 60 16h26q32 0 37 -15t-18 -38q-43 -43 -43 -86q0 -24 19 -38t61 -7q57 9 57 -41v-47z" />
    <glyph glyph-name="uni0331" unicode="&#x331;" horiz-adv-x="0"
d="M-375 -162q-49 0 -49 49v64q0 49 49 49h285q49 0 49 -49v-64q0 -49 -49 -49h-285z" />
    <glyph glyph-name="Gamma" unicode="&#x393;" horiz-adv-x="956"
d="M141 0q-49 0 -49 49v1233q0 49 49 49h633q49 0 49 -49v-143q0 -49 -49 -49h-424v-1041q0 -49 -49 -49h-160z" />
    <glyph glyph-name="uni0394" unicode="&#x394;" horiz-adv-x="1337"
d="M141 0q-49 0 -49 49v148q0 25 12 59l420 1036q16 39 58 39h133q41 0 57 -39l420 -1036q12 -35 12 -59v-148q0 -49 -49 -49h-1014zM367 227h561l-283 705z" />
    <glyph glyph-name="Sigma" unicode="&#x3a3;" horiz-adv-x="1204"
d="M141 0q-49 0 -49 49v103q0 37 27 61l471 446l-473 467q-25 22 -25 60v96q0 49 49 49h881q49 0 49 -49v-143q0 -49 -49 -49h-508l391 -396q35 -34 0 -69l-385 -383h502q49 0 49 -49v-144q0 -49 -49 -49h-881z" />
    <glyph glyph-name="Phi" unicode="&#x3a6;" horiz-adv-x="1581"
d="M715 -12q-49 0 -49 49v96q-266 24 -420 161t-154 374q0 233 154.5 369.5t419.5 160.5v96q0 49 49 49h112q23 0 36.5 -13t13.5 -36v-96q266 -22 418.5 -158t152.5 -372q0 -239 -152 -375t-419 -160v-96q0 -23 -13.5 -36t-36.5 -13h-112zM666 393v547q-167 -19 -241.5 -93
t-74.5 -179q0 -107 74.5 -181.5t241.5 -93.5zM877 393q167 18 240 92t73 183q0 107 -73 180.5t-240 91.5v-547z" />
    <glyph glyph-name="Psi" unicode="&#x3a8;" horiz-adv-x="1507"
d="M678 0q-49 0 -49 49v277q-114 13 -209.5 56t-170 115t-116 183t-41.5 250v352q0 49 49 49h160q49 0 49 -49v-352q0 -167 71 -253.5t208 -107.5v713q0 49 49 49h113q49 0 49 -49v-713q136 21 206 108t70 253v352q0 49 49 49h160q49 0 49 -49v-354q0 -138 -41 -248
t-115 -182.5t-169 -115.5t-209 -56v-277q0 -49 -49 -49h-113z" />
    <glyph glyph-name="uni03A9" unicode="&#x3a9;" horiz-adv-x="1609"
d="M141 8q-49 0 -49 49v144q0 49 49 49h135q-153 173 -153 416q0 196 82.5 351t234.5 243t346 88t345 -88t233 -243t82 -351q0 -236 -152 -416h133q23 0 36.5 -13t13.5 -36v-144q0 -23 -13.5 -36t-36.5 -13h-479q-49 0 -49 49v154q0 40 39 57q74 36 126 87.5t78 109t37 110
t11 107.5q0 53 -13.5 108t-44.5 110t-76 97t-115 68.5t-155 26.5t-155 -26.5t-115.5 -68.5t-76.5 -97t-44.5 -110t-13.5 -108t10.5 -104.5t36 -109t77.5 -109t126 -87.5q39 -17 39 -57v-158q0 -49 -49 -49h-480z" />
    <glyph glyph-name="uni1E04" unicode="&#x1e04;" horiz-adv-x="1236"
d="M141 0q-49 0 -49 49v1233q0 49 49 49h572q162 0 274.5 -100.5t112.5 -274.5q0 -179 -125 -266q81 -45 127.5 -122t46.5 -183q0 -88 -33.5 -162t-89.5 -122t-127.5 -74.5t-148.5 -26.5h-609zM356 793h314q72 0 114.5 40t42.5 109t-42.5 108.5t-114.5 39.5h-314v-297z
M356 242h351q77 0 123.5 47.5t46.5 118.5q0 70 -47.5 117.5t-122.5 47.5h-351v-331zM551 -326q-46 0 -82.5 33.5t-36.5 87.5q0 51 36.5 82t82.5 31q45 0 81 -31t36 -82q0 -54 -36 -87.5t-81 -33.5z" />
    <glyph glyph-name="uni1E05" unicode="&#x1e05;"
d="M618 -16q-170 0 -270 114v-49q0 -49 -49 -49h-158q-49 0 -49 49v1233q0 49 49 49h158q49 0 49 -49v-440q100 114 270 114q194 0 320.5 -136t126.5 -349q0 -211 -127 -349t-320 -138zM582 225q105 0 170 69.5t65 176.5t-65 176.5t-170 69.5t-169.5 -69.5t-64.5 -176.5
t64.5 -176.5t169.5 -69.5zM604 -342q-46 0 -82.5 33.5t-36.5 87.5q0 51 36.5 81.5t82.5 30.5q45 0 81 -30.5t36 -81.5q0 -54 -36 -87.5t-81 -33.5z" />
    <glyph glyph-name="uni1E0C" unicode="&#x1e0c;" horiz-adv-x="1341"
d="M141 0q-49 0 -49 49v1233q0 49 49 49h445q292 0 472.5 -184.5t180.5 -480.5q0 -297 -181 -481.5t-472 -184.5h-445zM356 258h230q44 0 91.5 10t102.5 38.5t97 72t70.5 118t27.5 169.5q-1 94 -29 168.5t-70.5 118.5t-97 72.5t-101.5 39t-91 10.5h-230v-817zM535 -326
q-46 0 -82.5 33.5t-36.5 87.5q0 51 36.5 82t82.5 31q45 0 80.5 -31t35.5 -82q0 -54 -35.5 -87.5t-80.5 -33.5z" />
    <glyph glyph-name="uni1E0D" unicode="&#x1e0d;"
d="M504 -16q-193 0 -320 138t-127 349q0 213 126.5 349t320.5 136q170 0 270 -114v440q0 49 49 49h158q49 0 49 -49v-1233q0 -49 -49 -49h-158q-49 0 -49 49v49q-100 -114 -270 -114zM541 225q104 0 168.5 69.5t64.5 176.5t-64.5 176.5t-168.5 69.5q-105 0 -170.5 -69.5
t-65.5 -176.5t65.5 -176.5t170.5 -69.5zM563 -342q-46 0 -82.5 33.5t-36.5 87.5q0 51 36.5 81.5t82.5 30.5q45 0 81 -30.5t36 -81.5q0 -54 -36 -87.5t-81 -33.5z" />
    <glyph glyph-name="uni1E24" unicode="&#x1e24;" horiz-adv-x="1323"
d="M141 0q-49 0 -49 49v1233q0 49 49 49h166q49 0 49 -49v-487h568v487q0 49 49 49h168q49 0 49 -49v-1233q0 -49 -49 -49h-168q-49 0 -49 49v488h-568v-488q0 -49 -49 -49h-166zM639 -317q-46 0 -82.5 33t-36.5 87q0 51 36.5 82t82.5 31q45 0 81 -31t36 -82q0 -54 -36 -87
t-81 -33z" />
    <glyph glyph-name="uni1E25" unicode="&#x1e25;" horiz-adv-x="1112"
d="M141 0q-49 0 -49 49v1233q0 49 49 49h158q49 0 49 -49v-430q96 104 264 104q54 0 104 -11.5t98.5 -39.5t84.5 -70.5t58 -109t22 -150.5v-526q0 -49 -49 -49h-158q-49 0 -49 49v488q0 48 -13 85t-32.5 59t-45.5 36t-49.5 19t-47.5 5t-48 -5t-49.5 -19t-45 -36t-32 -59
t-12.5 -85v-488q0 -49 -49 -49h-158zM541 -326q-46 0 -82.5 33.5t-36.5 87.5q0 51 36.5 82t82.5 31q45 0 80.5 -31t35.5 -82q0 -54 -35.5 -87.5t-80.5 -33.5z" />
    <glyph glyph-name="uni1E36" unicode="&#x1e36;" horiz-adv-x="1081"
d="M141 0q-49 0 -49 49v1233q0 49 49 49h166q49 0 49 -49v-1040h584q49 0 49 -49v-144q0 -49 -49 -49h-799zM541 -326q-46 0 -82.5 33.5t-36.5 87.5q0 51 36.5 82t82.5 31q45 0 80.5 -31t35.5 -82q0 -54 -35.5 -87.5t-80.5 -33.5z" />
    <glyph glyph-name="uni1E37" unicode="&#x1e37;" horiz-adv-x="483"
d="M141 0q-49 0 -49 49v1233q0 49 49 49h160q49 0 49 -49l-2 -1233q0 -49 -49 -49h-158zM223 -326q-46 0 -82.5 33.5t-36.5 87.5q0 51 36.5 82t82.5 31q45 0 81 -31t36 -82q0 -54 -36 -87.5t-81 -33.5z" />
    <glyph glyph-name="uni1E3E" unicode="&#x1e3e;" horiz-adv-x="1556"
d="M715 1454q-28 0 -37.5 16t2.5 41l65 138q16 37 58 37h112q28 0 37.5 -16.5t-2.5 -41.5l-69 -139q-17 -35 -58 -35h-108zM141 0q-49 0 -49 49v1233q0 49 49 49h181q40 0 57 -35l379 -755l379 755q17 35 57 35h180q49 0 49 -49v-1233q0 -49 -49 -49h-168q-49 0 -49 49v748
l-291 -607q-16 -36 -57 -36h-102q-42 0 -58 36l-293 609v-750q0 -49 -49 -49h-166z" />
    <glyph glyph-name="uni1E3F" unicode="&#x1e3f;" horiz-adv-x="1683"
d="M778 1102q-28 0 -37.5 16t2.5 41l66 137q16 37 57 37h113q28 0 37.5 -16t-2.5 -41l-70 -139q-17 -35 -57 -35h-109zM141 0q-49 0 -49 49v844q0 49 49 49h158q49 0 49 -47v-47q99 108 250 108q199 0 291 -143q56 76 138.5 109.5t170.5 33.5q53 0 101 -11t94.5 -38.5
t80.5 -69.5t55 -109.5t21 -152.5v-526q0 -49 -49 -49h-158q-49 0 -49 49v492q0 58 -18.5 98.5t-48 59.5t-56 26.5t-53.5 7.5q-26 0 -51.5 -7.5t-54 -26.5t-46.5 -59.5t-18 -98.5v-492q0 -49 -49 -49h-158q-49 0 -49 49v492q0 58 -18 98.5t-47.5 59.5t-55.5 26.5t-53 7.5
q-26 0 -52 -7.5t-54.5 -26.5t-46 -59.5t-17.5 -98.5v-492q0 -49 -49 -49h-158z" />
    <glyph glyph-name="uni1E44" unicode="&#x1e44;" horiz-adv-x="1306"
d="M641 1423q-46 0 -82.5 33t-36.5 86q0 51 36.5 82t82.5 31q45 0 81 -31t36 -82q0 -53 -36.5 -86t-80.5 -33zM141 0q-49 0 -49 49v1233q0 49 49 49h170q40 0 60 -33l538 -835v819q0 49 49 49h166q23 0 36.5 -13t13.5 -36v-1233q0 -23 -13.5 -36t-36.5 -13h-168
q-39 0 -59 33l-539 833v-817q0 -49 -49 -49h-168z" />
    <glyph glyph-name="uni1E45" unicode="&#x1e45;" horiz-adv-x="1112"
d="M537 1049q-46 0 -82.5 32.5t-36.5 85.5q0 51 36.5 82t82.5 31q45 0 80.5 -31t35.5 -82q0 -53 -36 -85.5t-80 -32.5zM141 0q-49 0 -49 49v844q0 49 49 49h158q49 0 49 -45v-45q96 104 264 104q54 0 104 -11.5t98.5 -39.5t84.5 -70.5t58 -109t22 -150.5v-526q0 -49 -49 -49
h-158q-49 0 -49 49v488q0 48 -13 85t-32.5 59t-45.5 36t-49.5 19t-47.5 5t-48 -5t-49.5 -19t-45 -36t-32 -59t-12.5 -85v-488q0 -49 -49 -49h-158z" />
    <glyph glyph-name="uni1E46" unicode="&#x1e46;" horiz-adv-x="1306"
d="M141 0q-49 0 -49 49v1233q0 49 49 49h170q40 0 60 -33l538 -835v819q0 49 49 49h166q23 0 36.5 -13t13.5 -36v-1233q0 -23 -13.5 -36t-36.5 -13h-168q-39 0 -59 33l-539 833v-817q0 -49 -49 -49h-168zM645 -326q-46 0 -82.5 33.5t-36.5 87.5q0 51 36.5 82t82.5 31
q45 0 81 -31t36 -82q0 -54 -36 -87.5t-81 -33.5z" />
    <glyph glyph-name="uni1E47" unicode="&#x1e47;" horiz-adv-x="1112"
d="M141 0q-49 0 -49 49v844q0 49 49 49h158q49 0 49 -45v-45q96 104 264 104q54 0 104 -11.5t98.5 -39.5t84.5 -70.5t58 -109t22 -150.5v-526q0 -49 -49 -49h-158q-49 0 -49 49v488q0 48 -13 85t-32.5 59t-45.5 36t-49.5 19t-47.5 5t-48 -5t-49.5 -19t-45 -36t-32 -59
t-12.5 -85v-488q0 -49 -49 -49h-158zM537 -326q-46 0 -82.5 33.5t-36.5 87.5q0 51 36.5 82t82.5 31q45 0 80.5 -31t35.5 -82q0 -54 -35.5 -87.5t-80.5 -33.5z" />
    <glyph glyph-name="uni1E62" unicode="&#x1e62;" horiz-adv-x="1247"
d="M625 -25q-198 0 -342.5 81.5t-212.5 201.5q-22 42 18 68l135 96q38 27 68 -10q55 -66 153.5 -118t208.5 -52q115 0 161 36.5t46 104.5q0 32 -21 57.5t-61 45t-73.5 31.5t-85.5 27t-70 21q-11 4 -48.5 15t-65.5 20t-72 27.5t-76.5 37.5t-68.5 49t-59.5 63.5t-39 79.5
t-15.5 99q0 103 43 182t117 125.5t165 69.5t196 23q166 0 303 -72t196 -174q21 -40 -20 -66l-131 -83q-35 -23 -68 10q-46 49 -131 85t-182 36q-89 0 -136.5 -32t-47.5 -89q0 -27 16 -49.5t38.5 -38t58 -30t63.5 -23t67.5 -20t57.5 -17.5q5 -2 46.5 -15.5t66 -22.5
t71.5 -29.5t77.5 -40t69 -51t61 -64.5t38.5 -79t16 -96q0 -203 -142.5 -311.5t-387.5 -108.5zM637 -344q-46 0 -82.5 33.5t-36.5 87.5q0 51 36.5 81.5t82.5 30.5q45 0 81 -30.5t36 -81.5q0 -54 -36 -87.5t-81 -33.5z" />
    <glyph glyph-name="uni1E6C" unicode="&#x1e6c;" horiz-adv-x="1206"
d="M500 0q-49 0 -49 49v1041h-351q-49 0 -49 49v143q0 49 49 49h965q49 0 49 -49v-143q0 -49 -49 -49h-348v-1041q0 -49 -49 -49h-168zM584 -324q-46 0 -82.5 33.5t-36.5 87.5q0 51 36.5 82t82.5 31q45 0 80.5 -31t35.5 -82q0 -54 -35.5 -87.5t-80.5 -33.5z" />
    <glyph glyph-name="uni1E6D" unicode="&#x1e6d;" horiz-adv-x="698"
d="M430 0q-276 0 -276 272v476h-74q-49 0 -49 49v96q0 49 49 49h74v240q0 49 49 49h157q23 0 36.5 -13t13.5 -36v-240h151q49 0 49 -49v-96q0 -49 -49 -49h-151v-435q0 -39 10.5 -64t32 -35t38.5 -12.5t46 -2.5h14q49 0 49 -49v-101q0 -49 -49 -49h-121zM438 -319
q-46 0 -82.5 33t-36.5 87q0 51 36.5 82t82.5 31q45 0 81 -31t36 -82q0 -54 -36 -87t-81 -33z" />
    <glyph glyph-name="Wgrave" unicode="&#x1e80;" horiz-adv-x="1945"
d="M901 1454q-40 0 -57 35l-70 139q-12 25 -2.5 41.5t37.5 16.5h113q41 0 57 -37l65 -138q12 -25 3 -41t-37 -16h-109zM518 0q-45 0 -57 41l-412 1235q-8 25 3.5 40t37.5 15h178q46 0 58 -41l268 -807l266 807q12 41 55 41h109q45 0 57 -41l260 -774l258 774q12 41 58 41
h178q26 0 37.5 -15t3.5 -40l-412 -1235q-12 -41 -57 -41h-141q-46 0 -58 41l-245 743l-246 -743q-12 -41 -58 -41h-141z" />
    <glyph glyph-name="wgrave" unicode="&#x1e81;" horiz-adv-x="1568"
d="M711 1079q-41 0 -58 35l-69 139q-12 25 -2.5 41.5t36.5 16.5h113q41 0 57 -37l66 -137q12 -25 2.5 -41.5t-37.5 -16.5h-108zM367 0q-45 0 -56 41l-272 846q-7 26 4 40.5t37 14.5h162q44 0 55 -41l170 -539l188 541q12 39 58 39h104q45 0 57 -39l189 -541l168 539
q11 41 55 41h162q26 0 37 -14.5t4 -40.5l-277 -846q-11 -41 -55 -41h-164q-45 0 -57 41l-174 512l-174 -512q-12 -41 -58 -41h-163z" />
    <glyph glyph-name="Wacute" unicode="&#x1e82;" horiz-adv-x="1945"
d="M920 1454q-28 0 -37.5 16t2.5 41l65 138q16 37 58 37h112q28 0 37.5 -16.5t-2.5 -41.5l-70 -139q-17 -35 -57 -35h-108zM518 0q-45 0 -57 41l-412 1235q-8 25 3.5 40t37.5 15h178q46 0 58 -41l268 -807l266 807q12 41 55 41h109q45 0 57 -41l260 -774l258 774
q12 41 58 41h178q26 0 37.5 -15t3.5 -40l-412 -1235q-12 -41 -57 -41h-141q-46 0 -58 41l-245 743l-246 -743q-12 -41 -58 -41h-141z" />
    <glyph glyph-name="wacute" unicode="&#x1e83;" horiz-adv-x="1568"
d="M729 1079q-28 0 -37.5 16.5t2.5 41.5l66 137q16 37 57 37h113q28 0 37.5 -16.5t-2.5 -41.5l-70 -139q-17 -35 -57 -35h-109zM367 0q-45 0 -56 41l-272 846q-7 26 4 40.5t37 14.5h162q44 0 55 -41l170 -539l188 541q12 39 58 39h104q45 0 57 -39l189 -541l168 539
q11 41 55 41h162q26 0 37 -14.5t4 -40.5l-277 -846q-11 -41 -55 -41h-164q-45 0 -57 41l-174 512l-174 -512q-12 -41 -58 -41h-163z" />
    <glyph glyph-name="Wdieresis" unicode="&#x1e84;" horiz-adv-x="1945"
d="M772 1423q-46 0 -82.5 33t-36.5 86q0 51 36.5 82t82.5 31q45 0 81 -31t36 -82q0 -53 -36.5 -86t-80.5 -33zM1157 1423q-44 0 -80.5 33t-36.5 86q0 51 36 82t81 31q46 0 82.5 -31t36.5 -82q0 -53 -36.5 -86t-82.5 -33zM518 0q-45 0 -57 41l-412 1235q-8 25 3.5 40t37.5 15
h178q46 0 58 -41l268 -807l266 807q12 41 55 41h109q45 0 57 -41l260 -774l258 774q12 41 58 41h178q26 0 37.5 -15t3.5 -40l-412 -1235q-12 -41 -57 -41h-141q-46 0 -58 41l-245 743l-246 -743q-12 -41 -58 -41h-141z" />
    <glyph glyph-name="wdieresis" unicode="&#x1e85;" horiz-adv-x="1568"
d="M582 1049q-46 0 -82.5 32.5t-36.5 85.5q0 51 36.5 82t82.5 31q45 0 80.5 -31t35.5 -82q0 -53 -36 -85.5t-80 -32.5zM967 1049q-45 0 -81 33t-36 85q0 51 36 82t81 31q46 0 82 -31t36 -82q0 -53 -36 -85.5t-82 -32.5zM367 0q-45 0 -56 41l-272 846q-7 26 4 40.5t37 14.5
h162q44 0 55 -41l170 -539l188 541q12 39 58 39h104q45 0 57 -39l189 -541l168 539q11 41 55 41h162q26 0 37 -14.5t4 -40.5l-277 -846q-11 -41 -55 -41h-164q-45 0 -57 41l-174 512l-174 -512q-12 -41 -58 -41h-163z" />
    <glyph glyph-name="uni1E92" unicode="&#x1e92;" horiz-adv-x="1110"
d="M121 0q-49 0 -49 49v139q0 34 20 60l596 839h-555q-23 0 -36 13.5t-13 36.5v145q0 49 49 49h836q49 0 49 -49v-141q0 -33 -21 -60l-602 -837l561 -2q23 0 36.5 -13t13.5 -36v-144q0 -23 -13.5 -36t-36.5 -13h-835zM543 -326q-46 0 -82.5 33.5t-36.5 87.5q0 51 36.5 82
t82.5 31q45 0 80.5 -31t35.5 -82q0 -54 -35.5 -87.5t-80.5 -33.5z" />
    <glyph glyph-name="uni1E93" unicode="&#x1e93;" horiz-adv-x="868"
d="M100 0q-49 0 -49 49v107q0 34 21 61l381 516h-349q-49 0 -49 49v111q0 49 49 49h623q49 0 49 -49v-107q0 -35 -20 -61l-381 -514h348q49 0 49 -49v-113q0 -49 -49 -49h-623zM418 -326q-46 0 -82.5 33.5t-36.5 87.5q0 51 36.5 82t82.5 31q45 0 81 -31t36 -82
q0 -54 -36 -87.5t-81 -33.5z" />
    <glyph glyph-name="uni1EA0" unicode="&#x1ea0;" horiz-adv-x="1361"
d="M92 0q-28 0 -39 16t0 41l502 1235q16 39 57 39h119q41 0 57 -39l500 -1235q11 -25 0 -41t-39 -16h-178q-39 0 -55 39l-72 180h-547l-71 -180q-16 -39 -56 -39h-178zM494 461h356l-178 452zM678 -326q-46 0 -82.5 33.5t-36.5 87.5q0 51 36.5 82t82.5 31q45 0 81 -31
t36 -82q0 -54 -36 -87.5t-81 -33.5z" />
    <glyph glyph-name="uni1EA1" unicode="&#x1ea1;"
d="M504 -16q-193 0 -320 138t-127 349q0 213 126.5 349t320.5 136q170 0 270 -114v51q0 49 49 49h158q49 0 49 -49v-844q0 -49 -49 -49h-158q-49 0 -49 49v49q-100 -114 -270 -114zM541 225q104 0 168.5 69.5t64.5 176.5t-64.5 176.5t-168.5 69.5q-105 0 -170.5 -69.5
t-65.5 -176.5t65.5 -176.5t170.5 -69.5zM604 -332q-46 0 -82.5 33.5t-36.5 87.5q0 51 36.5 82t82.5 31q45 0 81 -31t36 -82q0 -54 -36 -87.5t-81 -33.5z" />
    <glyph glyph-name="uni1EB8" unicode="&#x1eb8;" horiz-adv-x="1116"
d="M141 0q-49 0 -49 49v1233q0 49 49 49h803q49 0 49 -49v-143q0 -49 -49 -49h-588v-304h545q49 0 49 -49v-143q0 -49 -49 -49h-545v-303h588q49 0 49 -49v-144q0 -49 -49 -49h-803zM557 -322q-46 0 -82.5 33.5t-36.5 87.5q0 51 36.5 82t82.5 31q45 0 81 -31t36 -82
q0 -54 -36 -87.5t-81 -33.5z" />
    <glyph glyph-name="uni1EB9" unicode="&#x1eb9;" horiz-adv-x="1077"
d="M537 -20q-214 0 -347 139t-133 352q0 214 129 352t340 138q207 0 330 -137.5t123 -352.5v-20q0 -23 -13 -36.5t-36 -13.5h-627q19 -94 82 -148t152 -54q117 0 192 67q35 30 68 6l96 -71q41 -30 14 -64q-64 -75 -159.5 -116t-210.5 -41zM307 563h432q-18 88 -72 141.5
t-141 53.5q-86 0 -143 -52t-76 -143zM532 -336q-46 0 -82 33.5t-36 87.5q0 51 36 82t82 31q45 0 81 -31t36 -82q0 -54 -36 -87.5t-81 -33.5z" />
    <glyph glyph-name="uni1EBC" unicode="&#x1ebc;" horiz-adv-x="1116"
d="M670 1419q-93 0 -156 72q-24 26 -40.5 37.5t-39.5 11.5q-44 0 -59 -51q-12 -45 -51 -45h-54q-53 0 -47 51q13 87 66 140t139 53q92 0 156 -72q45 -49 86 -49q51 0 65 47q9 47 51 47h52q53 0 47 -47q-11 -89 -65 -142t-150 -53zM141 0q-49 0 -49 49v1233q0 49 49 49h803
q49 0 49 -49v-143q0 -49 -49 -49h-588v-304h545q49 0 49 -49v-143q0 -49 -49 -49h-545v-303h588q49 0 49 -49v-144q0 -49 -49 -49h-803z" />
    <glyph glyph-name="uni1EBD" unicode="&#x1ebd;" horiz-adv-x="1077"
d="M641 1044q-93 0 -156 72q-17 18 -26 26.5t-23 15.5t-30 7q-45 0 -60 -51q-12 -45 -51 -45h-53q-53 0 -47 51q13 87 65.5 140t138.5 53q92 0 156 -72q45 -49 86 -49q52 0 66 47q9 47 51 47h51q53 0 47 -47q-11 -89 -65 -142t-150 -53zM537 -20q-214 0 -347 139t-133 352
q0 214 129 352t340 138q207 0 330 -137.5t123 -352.5v-20q0 -23 -13 -36.5t-36 -13.5h-627q19 -94 82 -148t152 -54q117 0 192 67q35 30 68 6l96 -71q41 -30 14 -64q-64 -75 -159.5 -116t-210.5 -41zM307 563h432q-18 88 -72 141.5t-141 53.5q-86 0 -143 -52t-76 -143z" />
    <glyph glyph-name="uni1ECA" unicode="&#x1eca;" horiz-adv-x="489"
d="M141 0q-49 0 -49 49v1233q0 49 49 49h166q49 0 49 -49v-1233q0 -49 -49 -49h-166zM225 -326q-46 0 -82.5 33.5t-36.5 87.5q0 51 36.5 82t82.5 31q45 0 81 -31t36 -82q0 -54 -36 -87.5t-81 -33.5z" />
    <glyph glyph-name="uni1ECB" unicode="&#x1ecb;" horiz-adv-x="507"
d="M233 1081q-56 0 -98.5 40t-42.5 104q0 63 42 99t99 36q56 0 99 -36.5t43 -98.5q0 -64 -43.5 -104t-98.5 -40zM154 0q-23 0 -36.5 13t-13.5 36v844q0 23 13.5 36t36.5 13h159q49 0 49 -49l-2 -844q0 -49 -49 -49h-157zM236 -342q-46 0 -82.5 33.5t-36.5 87.5
q0 51 36.5 81.5t82.5 30.5q45 0 80.5 -30.5t35.5 -81.5q0 -54 -35.5 -87.5t-80.5 -33.5z" />
    <glyph glyph-name="uni1ECC" unicode="&#x1ecc;" horiz-adv-x="1513"
d="M743 -16q-146 0 -271 51.5t-213 141.5t-137.5 216.5t-49.5 272.5t49.5 272.5t137.5 216.5t213 141.5t271 51.5q195 0 347.5 -88t236.5 -243t84 -351t-84 -351t-236.5 -243t-347.5 -88zM743 248q181 0 291.5 117t110.5 301q0 183 -110.5 300t-291.5 117
q-182 0 -294.5 -117t-112.5 -300t112.5 -300.5t294.5 -117.5zM745 -340q-46 0 -82 33.5t-36 87.5q0 51 36 82t82 31q45 0 81 -31t36 -82q0 -54 -36 -87.5t-81 -33.5z" />
    <glyph glyph-name="uni1ECD" unicode="&#x1ecd;" horiz-adv-x="1126"
d="M543 -20q-213 0 -349.5 139.5t-136.5 351.5q0 214 136.5 352t349.5 138q214 0 349.5 -137.5t135.5 -352.5q0 -212 -135.5 -351.5t-349.5 -139.5zM543 225q104 0 168.5 69.5t64.5 176.5t-64.5 176.5t-168.5 69.5q-103 0 -168.5 -69.5t-65.5 -176.5t65.5 -176.5
t168.5 -69.5zM545 -342q-46 0 -82.5 33.5t-36.5 87.5q0 51 36.5 81.5t82.5 30.5q45 0 81 -30.5t36 -81.5q0 -54 -36 -87.5t-81 -33.5z" />
    <glyph glyph-name="uni1EE4" unicode="&#x1ee4;" horiz-adv-x="1257"
d="M608 -16q-161 0 -280 67.5t-177.5 176.5t-58.5 243v811q0 49 49 49h166q49 0 49 -49v-782q0 -130 71 -194t181 -64t181 64t71 194v782q0 49 49 49h166q49 0 49 -49v-811q0 -134 -58.5 -243t-177.5 -176.5t-280 -67.5zM610 -330q-46 0 -82 33.5t-36 87.5q0 51 36 82t82 31
q45 0 81 -31t36 -82q0 -54 -36 -87.5t-81 -33.5z" />
    <glyph glyph-name="uni1EE5" unicode="&#x1ee5;" horiz-adv-x="1112"
d="M461 -16q-54 0 -104 11.5t-99 39.5t-85 70.5t-58.5 109t-22.5 150.5v528q0 49 49 49h158q49 0 49 -49v-487q0 -59 19 -101.5t49.5 -63.5t61 -30.5t61.5 -9.5t60.5 9t58.5 30.5t47 64t18 101.5v487q0 49 49 49h158q49 0 49 -49v-844q0 -49 -49 -49h-158q-49 0 -49 43v43
q-97 -102 -262 -102zM541 -334q-46 0 -82.5 33.5t-36.5 87.5q0 51 36.5 82t82.5 31q45 0 80.5 -31t35.5 -82q0 -54 -35.5 -87.5t-80.5 -33.5z" />
    <glyph glyph-name="Ygrave" unicode="&#x1ef2;" horiz-adv-x="1280"
d="M561 1454q-40 0 -57 35l-70 139q-12 25 -2.5 41.5t37.5 16.5h113q41 0 57 -37l66 -138q12 -25 2.5 -41t-37.5 -16h-109zM541 0q-49 0 -49 49v516l-437 707q-15 26 -5.5 42.5t38.5 16.5h195q41 0 59 -33l281 -456l280 456q18 33 60 33h196q29 0 38.5 -16.5t-5.5 -42.5
l-436 -707v-516q0 -49 -49 -49h-166z" />
    <glyph glyph-name="ygrave" unicode="&#x1ef3;" horiz-adv-x="1077"
d="M465 1079q-40 0 -57 35l-70 139q-12 25 -2.5 41.5t37.5 16.5h112q42 0 58 -37l65 -137q12 -25 2.5 -41.5t-37.5 -16.5h-108zM293 -377q-27 0 -37.5 16.5t-1.5 41.5l127 319l-348 885q-9 25 1.5 41t37.5 16h161q40 0 56 -39l217 -549l219 549q16 39 57 39h162q28 0 39 -16
t0 -41l-487 -1223q-16 -39 -56 -39h-147z" />
    <glyph glyph-name="uni1EF4" unicode="&#x1ef4;" horiz-adv-x="1280"
d="M541 0q-49 0 -49 49v516l-437 707q-15 26 -5.5 42.5t38.5 16.5h195q41 0 59 -33l281 -456l280 456q18 33 60 33h196q29 0 38.5 -16.5t-5.5 -42.5l-436 -707v-516q0 -49 -49 -49h-166zM625 -326q-46 0 -82.5 33.5t-36.5 87.5q0 51 36.5 82t82.5 31q45 0 80.5 -31t35.5 -82
q0 -54 -35.5 -87.5t-80.5 -33.5z" />
    <glyph glyph-name="uni1EF5" unicode="&#x1ef5;" horiz-adv-x="1077"
d="M293 -377q-27 0 -37.5 16.5t-1.5 41.5l127 319l-348 885q-9 25 1.5 41t37.5 16h161q40 0 56 -39l217 -549l219 549q16 39 57 39h162q28 0 39 -16t0 -41l-487 -1223q-16 -39 -56 -39h-147zM797 -373q-46 0 -82.5 33.5t-36.5 87.5q0 51 36.5 82t82.5 31q45 0 80.5 -31
t35.5 -82q0 -54 -35.5 -87.5t-80.5 -33.5z" />
    <glyph glyph-name="uni1EF8" unicode="&#x1ef8;" horiz-adv-x="1280"
d="M737 1419q-92 0 -155 72q-24 26 -40.5 37.5t-39.5 11.5q-45 0 -60 -51q-12 -45 -51 -45h-53q-53 0 -47 51q13 87 66 140t139 53q91 0 155 -72q45 -49 86 -49q52 0 66 47q9 47 51 47h51q53 0 47 -47q-11 -89 -65 -142t-150 -53zM541 0q-49 0 -49 49v516l-437 707
q-15 26 -5.5 42.5t38.5 16.5h195q41 0 59 -33l281 -456l280 456q18 33 60 33h196q29 0 38.5 -16.5t-5.5 -42.5l-436 -707v-516q0 -49 -49 -49h-166z" />
    <glyph glyph-name="uni1EF9" unicode="&#x1ef9;" horiz-adv-x="1056"
d="M621 1044q-93 0 -156 72q-24 26 -40.5 37.5t-39.5 11.5q-44 0 -59 -51q-12 -45 -52 -45h-53q-53 0 -47 51q13 87 66 140t139 53q92 0 156 -72q45 -49 86 -49q51 0 65 47q9 47 51 47h51q25 0 38 -12t10 -35q-11 -89 -65 -142t-150 -53zM293 -377q-27 0 -37.5 16.5
t-1.5 41.5l127 319l-348 885q-9 25 1.5 41t37.5 16h161q40 0 56 -39l217 -549l219 549q16 39 57 39h162q28 0 39 -16t0 -41l-487 -1223q-16 -39 -56 -39h-147z" />
    <glyph glyph-name="endash" unicode="&#x2013;" horiz-adv-x="1009"
d="M141 449q-49 0 -49 49v143q0 49 49 49h686q23 0 36.5 -13t13.5 -36v-143q0 -23 -13.5 -36t-36.5 -13h-686z" />
    <glyph glyph-name="emdash" unicode="&#x2014;" horiz-adv-x="1198"
d="M141 446q-23 0 -36 13.5t-13 36.5v143q0 49 49 49h875q49 0 49 -49v-143q0 -23 -13 -36.5t-36 -13.5h-875z" />
    <glyph glyph-name="quoteleft" unicode="&#x2018;" horiz-adv-x="428"
d="M113 967q-28 0 -38 15.5t-1 41.5l104 268q14 39 55 39h89q25 0 37 -14t8 -39l-58 -268q-8 -43 -53 -43h-143z" />
    <glyph glyph-name="quoteright" unicode="&#x2019;" horiz-adv-x="428"
d="M106 967q-25 0 -37 14t-8 39l58 268q8 43 53 43h143q28 0 38 -15.5t1 -41.5l-104 -268q-14 -39 -55 -39h-89z" />
    <glyph glyph-name="quotesinglbase" unicode="&#x201a;" horiz-adv-x="428"
d="M106 -197q-25 0 -37 14.5t-8 39.5l58 268q8 43 53 43h143q28 0 38 -15.5t1 -41.5l-104 -269q-14 -39 -55 -39h-89z" />
    <glyph glyph-name="quotedblleft" unicode="&#x201c;" horiz-adv-x="835"
d="M113 967q-28 0 -38 15.5t-1 41.5l104 268q14 39 55 39h89q25 0 37 -14t8 -39l-58 -268q-8 -43 -53 -43h-143zM520 967q-28 0 -38 15.5t-1 41.5l103 268q14 39 55 39h90q25 0 36.5 -14t6.5 -39l-57 -268q-8 -43 -53 -43h-142z" />
    <glyph glyph-name="quotedblright" unicode="&#x201d;" horiz-adv-x="835"
d="M106 967q-25 0 -37 14t-8 39l58 268q8 43 53 43h143q28 0 38 -15.5t1 -41.5l-104 -268q-14 -39 -55 -39h-89zM514 967q-25 0 -37 14t-8 39l57 268q8 43 54 43h143q28 0 38 -15.5t1 -41.5l-105 -268q-14 -39 -55 -39h-88z" />
    <glyph glyph-name="quotedblbase" unicode="&#x201e;" horiz-adv-x="835"
d="M106 -199q-25 0 -37 14t-8 40l58 270q8 43 53 43h143q28 0 38 -15.5t1 -41.5l-104 -271q-14 -39 -55 -39h-89zM514 -199q-25 0 -37 14t-8 40l57 270q8 43 54 43h143q28 0 38 -15.5t1 -41.5l-105 -271q-14 -39 -55 -39h-88z" />
    <glyph glyph-name="dagger" unicode="&#x2020;" horiz-adv-x="897"
d="M356 0q-49 0 -49 49v713h-166q-49 0 -49 49v96q0 49 49 49h166v326q0 49 49 49h144q49 0 49 -49v-326h166q49 0 49 -49v-96q0 -49 -49 -49h-166v-713q0 -49 -49 -49h-144z" />
    <glyph glyph-name="daggerdbl" unicode="&#x2021;" horiz-adv-x="897"
d="M356 0q-49 0 -49 49v299h-166q-49 0 -49 49v99q0 49 49 49h166v256h-166q-49 0 -49 49v98q0 49 49 49h166v285q0 49 49 49h144q49 0 49 -49v-285h166q49 0 49 -49v-98q0 -49 -49 -49h-166v-256h166q49 0 49 -49v-99q0 -49 -49 -49h-166v-299q0 -49 -49 -49h-144z" />
    <glyph glyph-name="bullet" unicode="&#x2022;" horiz-adv-x="538"
d="M268 449q-94 0 -155.5 61t-61.5 156t61.5 156t155.5 61q95 0 157 -61t62 -156t-62 -156t-157 -61z" />
    <glyph glyph-name="ellipsis" unicode="&#x2026;" horiz-adv-x="1261"
d="M188 -12q-60 0 -98.5 38.5t-38.5 98.5q0 58 38.5 95.5t98.5 37.5q59 0 97.5 -37.5t38.5 -95.5q0 -60 -38.5 -98.5t-97.5 -38.5zM633 -12q-60 0 -98.5 38.5t-38.5 98.5q0 58 38.5 95.5t98.5 37.5q59 0 97 -37.5t38 -95.5q0 -60 -38 -98.5t-97 -38.5zM1075 -12
q-60 0 -98.5 38.5t-38.5 98.5q0 58 38.5 95.5t98.5 37.5q59 0 97 -37.5t38 -95.5q0 -60 -38 -98.5t-97 -38.5z" />
    <glyph glyph-name="perthousand" unicode="&#x2030;" horiz-adv-x="2549"
d="M414 688q-139 0 -230.5 93t-91.5 233q0 145 91 237t231 92q139 0 230 -92t91 -237q0 -140 -91.5 -233t-229.5 -93zM471 0q-29 0 -39 17t4 42l670 1237q17 35 57 35h92q29 0 39 -17t-4 -42l-669 -1237q-17 -35 -58 -35h-92zM414 856q69 0 111 45t42 113q0 70 -42 116
t-111 46q-68 0 -111 -46t-43 -116q0 -67 43 -112.5t111 -45.5zM1313 -14q-139 0 -230.5 93t-91.5 234q0 145 91 237.5t231 92.5q139 0 230 -92.5t91 -237.5q0 -141 -91.5 -234t-229.5 -93zM2097 -14q-139 0 -230 93t-91 234q0 146 90.5 238t230.5 92q139 0 229.5 -92.5
t90.5 -237.5q0 -141 -91 -234t-229 -93zM1313 154q69 0 111 45t42 114q0 70 -42 116t-111 46q-68 0 -111 -46t-43 -116q0 -68 43 -113.5t111 -45.5zM2097 154q69 0 110.5 45t41.5 114q0 70 -41.5 116t-110.5 46t-111 -46t-42 -116q0 -69 42 -114t111 -45z" />
    <glyph glyph-name="guilsinglleft" unicode="&#x2039;" horiz-adv-x="802"
d="M440 276q-37 0 -61 27l-295 320q-30 35 0 69l295 320q23 26 61 26h189q32 0 40 -18t-14 -43l-295 -320l295 -319q22 -25 14 -43.5t-40 -18.5h-189z" />
    <glyph glyph-name="guilsinglright" unicode="&#x203a;" horiz-adv-x="802"
d="M133 276q-32 0 -40.5 18.5t13.5 43.5l295 319l-295 320q-22 25 -13.5 43t40.5 18h189q38 0 61 -26l295 -320q30 -34 0 -69l-295 -320q-24 -27 -61 -27h-189z" />
    <glyph glyph-name="fraction" unicode="&#x2044;" horiz-adv-x="1034"
d="M106 0q-28 0 -35.5 16.5t7.5 42.5l764 1239q18 33 59 33h23q29 0 38 -16.5t-6 -42.5l-763 -1239q-18 -33 -60 -33h-27z" />
    <glyph glyph-name="uni2070" unicode="&#x2070;" horiz-adv-x="858"
d="M416 518q-155 0 -249.5 116t-94.5 298q0 183 94.5 299.5t249.5 116.5q157 0 253.5 -116.5t96.5 -299.5q0 -182 -96.5 -298t-253.5 -116zM416 676q80 0 132 67.5t52 188.5q0 122 -52 188t-132 66q-78 0 -130.5 -66t-52.5 -188q0 -121 52.5 -188.5t130.5 -67.5z" />
    <glyph glyph-name="uni2074" unicode="&#x2074;" horiz-adv-x="780"
d="M485 528q-28 0 -28 29v117h-375q-31 0 -31 28v54q0 19 12 37l379 520q12 18 35 18h107q30 0 30 -28v-515h66q29 0 29 -28v-58q0 -28 -29 -28h-66v-117q0 -29 -30 -29h-99zM209 788h248v340z" />
    <glyph glyph-name="uni2075" unicode="&#x2075;" horiz-adv-x="751"
d="M340 526q-158 0 -262 97q-20 20 0 43l63 69q20 20 43 0q61 -53 146 -53q67 0 113 31t46 90t-48.5 91t-116.5 32t-121 -21q-26 -9 -41 13l-25 32q-13 16 -10 39l59 324q6 26 31 26h369q30 0 30 -28v-88q0 -29 -30 -29h-269l-26 -139h37q160 0 240.5 -72.5t80.5 -187.5
q0 -127 -86.5 -198t-222.5 -71z" />
    <glyph glyph-name="uni2076" unicode="&#x2076;" horiz-adv-x="755"
d="M362 516q-124 0 -207 85t-83 208q0 101 53 172l213 330q11 20 35 20h106q18 0 24 -11t-3 -26l-125 -190q121 -4 199.5 -88t78.5 -207t-83 -208t-208 -85zM362 668q61 0 100.5 39.5t39.5 101.5q0 64 -39 104.5t-101 40.5t-100.5 -40.5t-38.5 -104.5q0 -62 39 -101.5
t100 -39.5z" />
    <glyph glyph-name="uni2077" unicode="&#x2077;" horiz-adv-x="636"
d="M117 528q-17 0 -23 10t0 25l287 621h-305q-29 0 -29 30v86q0 29 29 29h461q28 0 28 -29v-57q0 -23 -6 -37l-303 -655q-12 -23 -35 -23h-104z" />
    <glyph glyph-name="uni2078" unicode="&#x2078;" horiz-adv-x="761"
d="M369 514q-144 0 -220.5 68t-76.5 178q0 56 29.5 105t86.5 79q-102 66 -102 178q0 88 72.5 154.5t210.5 66.5q70 0 125 -19.5t87.5 -52t49 -70.5t16.5 -79q0 -114 -102 -178q114 -63 114 -184q0 -110 -74.5 -178t-215.5 -68zM369 999q64 0 97.5 33t33.5 80q0 46 -34 80.5
t-97 34.5q-66 0 -101 -34.5t-35 -80.5q0 -47 35 -80t101 -33zM369 645q65 0 101 34.5t36 86.5t-36 87.5t-101 35.5q-68 0 -106 -35.5t-38 -87.5q0 -50 38.5 -85.5t105.5 -35.5z" />
    <glyph glyph-name="uni2079" unicode="&#x2079;" horiz-adv-x="755"
d="M246 526q-18 0 -24 11t3 26l121 191q-119 6 -196.5 89t-77.5 204q0 124 82.5 209t207.5 85q124 0 207.5 -85t83.5 -209q0 -89 -61 -183l-205 -317q-12 -21 -35 -21h-106zM362 903q73 0 111 53l2 2q27 39 27 89q0 63 -40 103t-100 40q-61 0 -100 -40t-39 -103t39 -103.5
t100 -40.5z" />
    <glyph glyph-name="Euro" unicode="&#x20ac;" horiz-adv-x="1175"
d="M897 -16q-219 0 -375 120t-215 324h-166q-49 0 -49 49v35q0 49 49 49h140q-7 61 -7 105q0 18 5 96h-138q-49 0 -49 49v35q0 49 49 49h164q58 208 214.5 330.5t377.5 122.5h96q49 0 49 -50v-143q0 -46 -49 -49h-51q-76 0 -142.5 -19.5t-128 -68t-96.5 -123.5h310
q49 0 49 -49v-35q0 -49 -49 -49h-348q-7 -54 -7 -96q0 -56 9 -105h346q49 0 49 -49v-35q0 -49 -49 -49h-305q35 -72 95.5 -119t126 -65.5t140.5 -18.5q31 0 49 2q51 0 51 -49v-143q0 -49 -47 -49q-39 -2 -98 -2z" />
    <glyph glyph-name="trademark" unicode="&#x2122;" horiz-adv-x="2762"
d="M500 0q-49 0 -49 49v1041h-351q-49 0 -49 49v143q0 49 49 49h965q49 0 49 -49v-143q0 -49 -49 -49h-348v-1041q0 -49 -49 -49h-168zM1348 0q-23 0 -36.5 13t-13.5 36v1233q0 23 13.5 36t36.5 13h180q40 0 57 -35l379 -755l379 755q17 35 57 35h180q23 0 36.5 -13
t13.5 -36v-1233q0 -23 -13.5 -36t-36.5 -13h-167q-23 0 -36.5 13t-13.5 36v748l-290 -607q-16 -36 -58 -36h-102q-42 0 -58 36l-292 609v-750q0 -23 -13.5 -36t-36.5 -13h-165z" />
    <glyph glyph-name="oneeighth" unicode="&#x215b;" horiz-adv-x="1101"
d="M190 659q-24 0 -24 25v524h-121q-25 0 -25 27v72q0 24 25 24h229q11 0 18 -7t7 -17v-623q0 -10 -7.5 -17.5t-17.5 -7.5h-84zM90 0q-28 0 -36 16.5t7 42.5l764 1239q18 33 60 33h22q29 0 38.5 -16.5t-5.5 -42.5l-764 -1239q-18 -33 -59 -33h-27zM836 -12q-118 0 -181 55
t-63 145q0 46 25 87t71 67q-84 52 -84 147q0 71 59.5 126t172.5 55q112 0 170.5 -54.5t58.5 -126.5q0 -97 -84 -147q46 -25 70 -66.5t24 -87.5q0 -90 -61 -145t-178 -55zM836 387q54 0 81 26.5t27 65.5q0 38 -27.5 66t-80.5 28q-54 0 -82.5 -28t-28.5 -66q0 -39 28 -65.5
t83 -26.5zM836 96q54 0 84 28.5t30 70.5q0 43 -29.5 71.5t-84.5 28.5q-56 0 -86.5 -28.5t-30.5 -71.5q0 -41 30.5 -70t86.5 -29z" />
    <glyph glyph-name="threeeighths" unicode="&#x215c;" horiz-adv-x="1273"
d="M258 659q-65 0 -124 23t-95 61q-14 16 2 35l51 53q15 18 33 3q57 -46 133 -46q58 0 93.5 27t35.5 76t-35.5 76.5t-93.5 27.5q-47 0 -88 -10q-29 -6 -29 21l2 47q0 18 15 30l159 127h-221q-10 0 -17 7t-7 18v72q0 24 24 24h381q25 0 25 -24v-70q0 -18 -13 -31l-137 -116
q73 -17 120.5 -66t47.5 -133q0 -79 -39.5 -133t-96.5 -76.5t-126 -22.5zM236 0q-28 0 -36 16.5t7 42.5l764 1239q18 33 59 33h23q29 0 38 -16.5t-6 -42.5l-763 -1239q-18 -33 -60 -33h-26zM1008 -12q-118 0 -181 55t-63 145q0 46 25 87t71 67q-84 52 -84 147q0 71 59.5 126
t172.5 55q112 0 170.5 -54.5t58.5 -126.5q0 -97 -84 -147q46 -25 70 -66.5t24 -87.5q0 -90 -61 -145t-178 -55zM1008 387q54 0 81 26.5t27 65.5q0 38 -27.5 66t-80.5 28q-54 0 -82.5 -28t-28.5 -66q0 -39 28 -65.5t83 -26.5zM1008 96q54 0 84 28.5t30 70.5q0 43 -29.5 71.5
t-84.5 28.5q-56 0 -86.5 -28.5t-30.5 -71.5q0 -41 30.5 -70t86.5 -29z" />
    <glyph glyph-name="fiveeighths" unicode="&#x215d;" horiz-adv-x="1277"
d="M264 659q-130 0 -221 80q-17 17 0 37l53 58q16 19 37 2q53 -48 121 -48q58 2 96.5 27t38.5 76q0 50 -40.5 77t-98.5 27q-57 0 -103 -16q-22 -10 -34 8l-21 29q-9 15 -6 31l47 272q5 22 29 22h309q25 0 25 -24v-72q0 -24 -25 -24h-227l-23 -119q12 2 33 2q134 0 201 -61
t67 -158q0 -107 -72 -166.5t-186 -59.5zM242 0q-28 0 -36 16.5t7 42.5l764 1239q18 33 59 33h23q29 0 38.5 -16.5t-5.5 -42.5l-764 -1239q-18 -33 -60 -33h-26zM1014 -12q-118 0 -181 55t-63 145q0 46 25 87t71 67q-84 52 -84 147q0 71 59.5 126t172.5 55q112 0 170.5 -54.5
t58.5 -126.5q0 -97 -84 -147q46 -25 70 -66.5t24 -87.5q0 -90 -61 -145t-178 -55zM1014 387q54 0 81 26.5t27 65.5q0 38 -27.5 66t-80.5 28q-54 0 -82.5 -28t-28.5 -66q0 -39 28 -65.5t83 -26.5zM1014 96q54 0 84 28.5t30 70.5q0 43 -29.5 71.5t-84.5 28.5
q-56 0 -86.5 -28.5t-30.5 -71.5q0 -41 30.5 -70t86.5 -29z" />
    <glyph glyph-name="seveneighths" unicode="&#x215e;" horiz-adv-x="1136"
d="M90 0q-28 0 -36 16.5t7 42.5l764 1239q18 33 60 33h22q29 0 38.5 -16.5t-5.5 -42.5l-764 -1239q-18 -33 -59 -33h-27zM143 662q-14 0 -19 8t1 20l240 520h-254q-25 0 -25 25v72q0 24 25 24h385q24 0 24 -24v-47q0 -13 -6 -31l-254 -549q-9 -18 -29 -18h-88zM870 -12
q-118 0 -180.5 55t-62.5 145q0 46 25 87t71 67q-84 52 -84 147q0 71 59 126t172 55t171.5 -55t58.5 -126q0 -97 -84 -147q46 -25 70 -66.5t24 -87.5q0 -90 -61.5 -145t-178.5 -55zM870 387q54 0 81.5 26.5t27.5 65.5q0 38 -28 66t-81 28q-54 0 -82 -28t-28 -66
q0 -39 27.5 -65.5t82.5 -26.5zM870 96q55 0 85 28.5t30 70.5q0 43 -30 71.5t-85 28.5q-56 0 -86 -28t-30 -72q0 -41 30.5 -70t85.5 -29z" />
    <glyph glyph-name="arrowleft" unicode="&#x2190;" horiz-adv-x="1542"
d="M692 129q-34 -35 -69 0l-496 496q-35 35 0 69l496 494q35 34 69 0l84 -84q35 -35 0 -70l-256 -256h840q49 0 49 -49v-141q0 -49 -49 -49h-838l254 -256q35 -35 0 -70z" />
    <glyph glyph-name="arrowup" unicode="&#x2191;" horiz-adv-x="1355"
d="M586 6q-49 0 -49 49v838l-256 -254q-35 -35 -70 0l-84 84q-35 35 0 70l496 495q35 34 69 0l496 -495q35 -35 0 -70l-86 -84q-35 -35 -70 0l-254 254v-838q0 -49 -49 -49h-143z" />
    <glyph glyph-name="arrowright" unicode="&#x2192;" horiz-adv-x="1542"
d="M879 129q-35 -35 -70 0l-84 84q-35 35 0 70l254 256h-838q-49 0 -49 49v141q0 49 49 49h840l-256 256q-35 35 0 70l84 84q35 35 70 0l495 -494q34 -34 0 -69z" />
    <glyph glyph-name="arrowdown" unicode="&#x2193;" horiz-adv-x="1355"
d="M692 41q-34 -35 -69 0l-496 496q-35 35 0 69l84 84q35 35 70 0l256 -254v838q0 49 49 49h143q49 0 49 -49v-838l254 254q35 35 70 0l86 -86q34 -34 0 -69z" />
    <glyph glyph-name="arrowboth" unicode="&#x2194;" horiz-adv-x="2004"
d="M686 129q-35 -35 -70 0l-493 496q-35 35 0 69l493 494q35 35 70 0l86 -84q35 -35 0 -70l-256 -256h942l-256 256q-35 35 0 70l84 84q35 35 70 0l495 -494q35 -34 0 -69l-495 -496q-35 -35 -70 0l-84 84q-35 35 0 70l254 256h-938l254 -256q35 -35 0 -70z" />
    <glyph glyph-name="arrowupdn" unicode="&#x2195;" horiz-adv-x="1286"
d="M655 -98q-35 -34 -69 0l-455 454q-35 35 0 70l84 86q35 35 70 0l215 -213v725l-217 -215q-35 -35 -70 0l-86 84q-35 35 0 70l457 458q34 35 69 0l465 -458q35 -35 0 -70l-84 -84q-34 -35 -69 0l-226 219v-731l226 223q35 34 69 0l84 -84q34 -34 0 -69z" />
    <glyph glyph-name="uni2196" unicode="&#x2196;" horiz-adv-x="1245"
d="M977 346q-35 -35 -70 0l-596 596v-360q0 -23 -13 -36.5t-36 -13.5h-121q-23 0 -36 13.5t-13 36.5v700q0 49 49 49h701q49 0 49 -49v-121q0 -49 -49 -49h-361l596 -596q35 -35 0 -70z" />
    <glyph glyph-name="uni2197" unicode="&#x2197;" horiz-adv-x="1245"
d="M299 346q-35 -35 -70 0l-102 100q-35 35 0 70l596 596h-361q-49 0 -49 49v121q0 49 49 49h701q49 0 49 -49v-700q0 -23 -13 -36.5t-36 -13.5h-119q-23 0 -36 13.5t-13 36.5v360z" />
    <glyph glyph-name="uni2198" unicode="&#x2198;" horiz-adv-x="1245"
d="M362 0q-49 0 -49 49v121q0 49 49 49h361l-596 596q-35 35 0 70l102 102q35 35 70 0l596 -596v359q0 49 49 49h119q49 0 49 -49v-701q0 -49 -49 -49h-701z" />
    <glyph glyph-name="uni2199" unicode="&#x2199;" horiz-adv-x="1245"
d="M141 0q-49 0 -49 49v701q0 49 49 49h121q49 0 49 -49v-359l596 596q35 35 70 0l100 -102q35 -35 0 -70l-596 -596h361q49 0 49 -49v-121q0 -49 -49 -49h-701z" />
    <glyph glyph-name="partialdiff" unicode="&#x2202;" horiz-adv-x="1159"
d="M559 -33q-202 0 -334.5 132.5t-132.5 340.5q0 206 132.5 337.5t334.5 131.5h21q-144 221 -301 363q-25 23 -18.5 41t40.5 18h156q35 0 61 -20q166 -140 315.5 -355t178.5 -385q14 -72 14 -131q0 -208 -133 -340.5t-334 -132.5zM559 211q98 0 161.5 63.5t63.5 165.5
q0 99 -62 163.5t-163 64.5q-98 0 -161.5 -62.5t-63.5 -165.5q0 -102 63.5 -165.5t161.5 -63.5z" />
    <glyph glyph-name="emptyset" unicode="&#x2205;" horiz-adv-x="1167"
d="M242 133q-26 0 -34 17t7 43l49 79q-82 65 -127 164.5t-45 220.5q0 212 131 349t342 137q112 0 209 -43l31 49q20 33 59 33h17q29 0 38 -17t-6 -43l-49 -80q81 -65 125.5 -165t44.5 -220q0 -212 -130 -348.5t-339 -136.5q-116 0 -211 45l-30 -51q-18 -33 -60 -33h-22z
M371 444l299 486q-46 18 -105 18q-122 0 -199 -82t-77 -209q0 -131 82 -213zM565 369q123 0 198 80.5t75 207.5q0 133 -80 213l-297 -483q47 -18 104 -18z" />
    <glyph glyph-name="product" unicode="&#x220f;" horiz-adv-x="1355"
d="M346 0q-49 0 -49 49v1041h-156q-49 0 -49 49v143q0 49 49 49h1033q49 0 49 -49v-143q0 -49 -49 -49h-150v-1041q0 -49 -49 -49h-144q-49 0 -49 49v1041h-243v-1041q0 -23 -13.5 -36t-36.5 -13h-143z" />
    <glyph glyph-name="summation" unicode="&#x2211;" horiz-adv-x="1159"
d="M141 -16q-49 0 -49 49v125q0 35 23 61l379 440l-379 449q-23 29 -23 61v129q0 23 13 36.5t36 13.5h836q23 0 36 -13.5t13 -36.5v-143q0 -49 -49 -49h-533l349 -412q27 -34 0 -69l-336 -400h520q49 0 49 -49v-143q0 -49 -49 -49h-836z" />
    <glyph glyph-name="minus" unicode="&#x2212;" horiz-adv-x="1054"
d="M141 557q-49 0 -49 49v99q0 49 49 49h731q23 0 36.5 -13t13.5 -36v-99q0 -23 -13.5 -36t-36.5 -13h-731z" />
    <glyph glyph-name="radical" unicode="&#x221a;" horiz-adv-x="1554"
d="M406 -98q-42 0 -56 39l-237 641q-9 25 2 41t37 16h141q41 0 55 -39l139 -373l420 1151q14 39 56 39h409q49 0 49 -49v-96q0 -49 -49 -49h-278l-467 -1282q-14 -39 -56 -39h-165z" />
    <glyph glyph-name="infinity" unicode="&#x221e;" horiz-adv-x="1695"
d="M412 352q-134 0 -227 92t-93 218q0 125 93.5 216t226.5 91q115 0 201 -38.5t221 -154.5q132 115 226.5 154t182.5 39q139 0 229.5 -90.5t90.5 -216.5q0 -128 -90.5 -219t-229.5 -91q-112 0 -191 38.5t-218 164.5q-135 -126 -217.5 -164.5t-204.5 -38.5zM412 526
q60 0 132.5 33.5t143.5 104.5q-97 83 -157 108t-119 25q-54 0 -104 -34.5t-50 -100.5q0 -67 50 -101.5t104 -34.5zM1243 526q57 0 106.5 34t49.5 102q0 67 -49.5 101t-106.5 34q-58 0 -116 -25t-144 -106q81 -79 139.5 -109.5t120.5 -30.5z" />
    <glyph glyph-name="integral" unicode="&#x222b;" horiz-adv-x="1130"
d="M141 -98q-49 0 -49 49v96q0 49 49 49h60q78 0 121.5 45t52.5 127l88 809q10 90 44.5 158t84 106.5t104 57t111.5 18.5h141q49 0 49 -49v-96q0 -49 -49 -49h-61q-78 0 -122 -45.5t-52 -126.5l-88 -828q-18 -160 -115 -240.5t-229 -80.5h-140z" />
    <glyph glyph-name="approxequal" unicode="&#x2248;" horiz-adv-x="1198"
d="M754 678q-55 0 -101 16.5t-70 34t-57 47.5q-7 7 -23.5 22.5t-22 20t-17.5 14t-20 12.5t-20.5 6t-25.5 3q-81 0 -104 -96q-9 -47 -51 -47h-99q-24 0 -37 13.5t-12 37.5q13 133 89 214t208 81q51 0 95 -17t67.5 -35.5t53.5 -45.5l9 -9q44 -41 74.5 -58.5t63.5 -17.5
q93 0 112 101q9 49 52 49h96q24 0 37 -12t12 -35q-11 -135 -89.5 -217t-219.5 -82zM754 262q-55 0 -101 16.5t-70 34t-57 47.5q-6 6 -20.5 19.5t-19 17.5t-15.5 13t-17 12t-16 7.5t-19.5 5.5t-21.5 1q-81 0 -104 -96q-9 -45 -51 -45h-99q-24 0 -37 13.5t-12 37.5
q13 132 89.5 213.5t207.5 81.5q34 0 65 -8t49 -15t45.5 -27.5t33 -25.5t32.5 -30q44 -41 74.5 -58.5t63.5 -17.5q93 0 112 98q9 49 52 49h96q24 0 37 -12t12 -35q-11 -134 -89.5 -215.5t-219.5 -81.5z" />
    <glyph glyph-name="notequal" unicode="&#x2260;" horiz-adv-x="1054"
d="M279 166q-28 0 -39 16t0 41l51 125h-150q-49 0 -49 49v99q0 49 49 49h228l90 225h-318q-49 0 -49 49v96q0 23 13 36.5t36 13.5h396l59 145q16 39 55 39h84q28 0 39 -16t0 -41l-51 -127h149q23 0 36.5 -13.5t13.5 -36.5v-96q0 -23 -13.5 -36t-36.5 -13h-227l-90 -225h317
q23 0 36.5 -13t13.5 -36v-99q0 -23 -13.5 -36t-36.5 -13h-395l-57 -143q-16 -39 -58 -39h-83z" />
    <glyph glyph-name="lessequal" unicode="&#x2264;" horiz-adv-x="907"
d="M774 537q0 -26 -15 -37.5t-40 -3.5l-580 172q-41 12 -41 55v106q0 44 41 56l580 172q25 8 40 -3.5t15 -37.5v-80q0 -43 -41 -55l-364 -105l364 -104q41 -12 41 -56v-79zM141 244q-49 0 -49 49v67q0 23 13 36.5t36 13.5h584q23 0 36 -13.5t13 -36.5v-67q0 -49 -49 -49
h-584z" />
    <glyph glyph-name="greaterequal" unicode="&#x2265;" horiz-adv-x="907"
d="M147 496q-25 -8 -40 3.5t-15 37.5v79q0 44 41 56l365 104l-365 105q-41 12 -41 55v80q0 26 15 37.5t40 3.5l580 -172q41 -12 41 -56v-106q0 -43 -41 -55zM141 244q-49 0 -49 49v67q0 23 13 36.5t36 13.5h584q23 0 36 -13.5t13 -36.5v-67q0 -49 -49 -49h-584z" />
    <glyph glyph-name="lozenge" unicode="&#x25ca;" horiz-adv-x="1318"
d="M547 0q-40 0 -60 33l-374 592q-19 35 0 69l383 604q20 33 59 33h168q39 0 59 -33l383 -604q19 -34 0 -69l-374 -592q-20 -33 -60 -33h-184zM639 176l305 483l-305 484l-305 -484z" />
    <glyph glyph-name="A.ss01" horiz-adv-x="1361"
d="M92 0q-28 0 -39 16t0 41l502 1235q16 39 57 39h119q41 0 57 -39l500 -1235q11 -25 0 -41t-39 -16h-178q-39 0 -55 39l-346 864l-344 -864q-16 -39 -56 -39h-178z" />
    <glyph glyph-name="I.ss01" horiz-adv-x="864"
d="M100 0q-49 0 -49 49v144q0 49 49 49h179v848h-179q-49 0 -49 49v143q0 49 49 49h623q49 0 49 -49v-143q0 -49 -49 -49h-178v-848h178q49 0 49 -49v-144q0 -49 -49 -49h-623z" />
    <glyph glyph-name="J.ss01" horiz-adv-x="1220"
d="M561 -16q-187 0 -316.5 89.5t-178.5 223.5q-15 44 30 61l166 64q43 17 62 -31q31 -76 93.5 -112.5t143.5 -36.5q113 0 187.5 69t74.5 213v563h-450q-23 0 -36 13.5t-13 36.5v145q0 49 49 49h665q49 0 49 -49v-799q0 -229 -147 -364t-379 -135z" />
    <glyph glyph-name="R.ss01" horiz-adv-x="1249"
d="M1157 45q0 -49 -49 -49q-184 8 -306 83t-229 261l-65 115h-152v-406q0 -49 -49 -49h-166q-49 0 -49 49v1233q0 49 49 49h596q78 0 149 -28.5t127.5 -82t90 -138.5t33.5 -189q0 -173 -87 -285t-221 -143l27 -47q90 -159 254 -178q47 -3 47 -50v-145zM356 713h332
q76 0 129 49.5t53 130.5q0 82 -53 132t-129 50h-332v-362z" />
    <glyph glyph-name="i.loclTRK" horiz-adv-x="493"
d="M227 1049q-46 0 -82 32.5t-36 85.5q0 51 36 82t82 31q45 0 81 -31t36 -82q0 -52 -36 -85t-81 -33zM147 0q-49 0 -49 49v844q0 49 49 49h158q49 0 49 -49v-844q0 -49 -49 -49h-158z" />
    <glyph glyph-name="a.ss01" horiz-adv-x="1079"
d="M432 -16q-104 0 -180 23t-117 63.5t-59.5 87t-18.5 102.5q0 58 19.5 104t51 77t82.5 53t100.5 34t120 19t126.5 8.5t133 1.5v14q0 95 -57.5 141t-136.5 46q-124 0 -181 -70q-29 -36 -65 -20l-113 47q-22 9 -29 26t5 39q49 79 146 130t239 51q219 0 333.5 -97.5
t114.5 -283.5v-531q0 -49 -49 -49h-158q-49 0 -49 41v41q-95 -98 -258 -98zM465 166q109 0 167 51t58 137v64q-219 -5 -302 -33t-83 -106q0 -55 42 -84t118 -29z" />
    <glyph glyph-name="n.ss01" horiz-adv-x="1114"
d="M141 0q-49 0 -49 49v844q0 49 49 49h457q165 0 274 -92t109 -266v-535q0 -49 -49 -49h-158q-49 0 -49 49v473q0 118 -49.5 167.5t-169.5 49.5h-158v-690q0 -49 -49 -49h-158z" />
    <glyph glyph-name="r.ss01" horiz-adv-x="673"
d="M141 0q-49 0 -49 49v453q0 434 459 452q51 3 51 -47v-147q0 -46 -47 -49q-207 -22 -207 -265v-397q0 -49 -49 -49h-158z" />
    <glyph glyph-name="u.ss01" horiz-adv-x="1114"
d="M475 0q-165 0 -274 92t-109 266v535q0 49 49 49h158q49 0 49 -49v-473q0 -117 49.5 -166t169.5 -49h158v688q0 49 49 49h158q49 0 49 -49v-844q0 -49 -49 -49h-457z" />
    </font>
</defs>
</svg>
