<svg xmlns="http://www.w3.org/2000/svg" xmlns:xlink="http://www.w3.org/1999/xlink" height="297"
  width="350"
>
  <defs id="SvgjsDefs1001">
    <linearGradient id="SvgjsLinearGradient1015">
      <stop id="SvgjsStop1016" stop-color="#ef4136" offset="0"></stop>
      <stop id="SvgjsStop1017" stop-color="#fbb040" offset="1"></stop>
    </linearGradient>
  </defs>
  <g id="SvgjsG1007" featurekey="symbolFeature-0"
    transform="matrix(60.048240615490805,0,0,60.048240615490805,24.943633776277984,-58.277085495755955)"
    fill="url(#SvgjsLinearGradient1015)">
    <title>metropoliscriativa</title>
    <path
      d="M2.52319,1.481c.07051-.04584.13985-.0936.21175-.13714.17382-.10525.34885-.20849.52332-.31267a.223.223,0,0,0,.03638-.02418A.13382.13382,0,0,1,3.46128.99335a.10627.10627,0,0,1,.03981.16023.0712.0712,0,0,0-.00889.054.11864.11864,0,0,1-.03957.14543c-.07111.05572-.14493.108-.21772.16152-.02725.02-.05487.0396-.08232.05938L3.1598,1.584c.077-.04651.15368-.09365.23122-.13928.04408-.02593.0896-.0494.1345-.07393L3.54124,1.363a.129.129,0,0,1,.16657.03071.11877.11877,0,0,1-.04344.162c-.11259.08856-.23349.16673-.34445.25717-.28337.231-.56319.46627-.84431.7a.04571.04571,0,0,0-.01669.02761c.03146-.0214.06322-.04234.09432-.06426a6.888,6.888,0,0,1,.76315-.49155,1.708,1.708,0,0,1,.25407-.106.12576.12576,0,0,1,.15821.05078.13612.13612,0,0,1-.0251.16593c-.03636.03933-.08216.06981-.12244.10571-.012.01073-.02941.02791-.02767.03968A.17843.17843,0,0,1,3.459,2.4121c-.18418.14192-.37061.28094-.556.42131-.01705.01291-.03275.02761-.04908.04148l.00545.00934c.04356-.01813.08842-.03369.13046-.05484.15407-.07753.30646-.15841.4611-.23478a.92889.92889,0,0,1,.16748-.063.10385.10385,0,0,1,.12688.05283.106.106,0,0,1-.04127.13476c-.04029.03047-.08384.05663-.12595.0847l.00677.0124c.06232-.03049.12454-.06122.187-.09138.03158-.01524.063-.03128.09564-.04376a.10758.10758,0,0,1,.11392.18233c-.07115.05832-.14634.11187-.22139.16524-.10609.07544-.21368.14875-.32044.22323a.08439.08439,0,0,0-.03258.0386c.0647-.02342.13006-.04517.19392-.0707.072-.02877.14224-.0618.214-.0911a.28411.28411,0,0,1,.07186-.01789.0874.0874,0,0,1,.09358.0435.09062.09062,0,0,1-.01082.10284l-.02325.03207c.01634.00593.02975.01014.04263.01561a.0693.0693,0,0,1,.04518.073.065.065,0,0,1-.05632.06889.69207.69207,0,0,0-.24954.10148c-.23219.11428-.46285.23169-.69482.34645a1.31235,1.31235,0,0,1-.13439.05356A.12389.12389,0,0,1,2.74613,3.906c-.018-.023-.0328-.02082-.056-.01207-.11622.04389-.23235.08825-.35013.12762a.26071.26071,0,0,1-.10368.00482A.1082.1082,0,0,1,2.13913,3.949a.113.113,0,0,1,.02939-.12126.43336.43336,0,0,0,.06275-.06884.73682.73682,0,0,1-.08348.03129.52516.52516,0,0,1-.13173.02389.113.113,0,0,1-.09638-.1783l.01147-.02288c-.01768,0-.031-.00109-.04407.00019a.14331.14331,0,0,1-.15078-.05749.04123.04123,0,0,0-.03946-.005c-.07614.04622-.14878.09846-.22638.14191a1.20816,1.20816,0,0,1-.20169.09153.12521.12521,0,0,1-.14589-.05443.09926.09926,0,0,0-.052-.03289.12266.12266,0,0,1-.07767-.19724,2.19992,2.19992,0,0,1,.18229-.18905q.1752-.17542.35142-.34983a.06507.06507,0,0,0,.02031-.037.53773.53773,0,0,1-.056.02489.55694.55694,0,0,1-.11713.03228.11433.11433,0,0,1-.12927-.14008c.0045-.02827-.00522-.0386-.02811-.04955A.12588.12588,0,0,1,1.145,2.62127.26451.26451,0,0,1,1.24855,2.489c.04307-.03186.08495-.06533.12656-.09748a.1515.1515,0,0,1,.03-.2243c.09379-.09592.17793-.20194.27664-.29223.13575-.12418.2799-.23937.42287-.35542A3.78,3.78,0,0,1,2.81145,1.056a.763.763,0,0,1,.08013-.03543.06585.06585,0,0,1,.08147.02512.06318.06318,0,0,1-.00743.08093.20419.20419,0,0,1-.04266.03728q-.18786.14075-.37606.281c-.01089.00816-.02049.018-.03069.02713Z"></path>
  </g>
  <g id="SvgjsG1008" featurekey="nameFeature-0"
    transform="matrix(1.0624557765567162,0,0,1.0624557765567162,-2.0752953741560374,202.8582847890624)"
    fill="#ffffff">
    <path
      d="M37.715 40 l-7.4414 0 l-1.875 -20.234 l-6.0742 20.234 l-4.9219 0 l-6.0742 -20.332 l-1.8945 20.332 l-7.4805 0 l2.5195 -28.711 l10.879 0 l4.4922 14.668 l4.5508 -14.668 l10.84 0 z M68.27 17.754 l-10 0 l0 4.6875 l8.9063 0 l0 6.4063 l-8.9063 0 l0 4.6289 l10 0 l0 6.5234 l-17.441 0 l0 -28.711 l17.441 0 l0 6.4648 z M99.527375 11.289000000000001 l0 6.4648 l-6.4844 0 l0 22.246 l-7.3633 0 l0 -22.246 l-6.5039 0 l0 -6.4648 l20.352 0 z M134.98425 40 l-8.8281 0 l-7.4805 -12.305 l0 12.305 l-7.4414 0 l0 -28.711 l10.996 0 c6.875 0 9.6094 3.9453 9.6094 8.8672 c0 4.043 -2.3828 6.4063 -5.8203 7.1484 z M124.75025 20.234 c0 -1.7578 -0.99609 -2.8711 -3.75 -2.8711 l-2.3242 0 l0 5.7617 l2.3242 0 c2.7539 0 3.75 -1.1328 3.75 -2.8906 z M157.062875 8.809000000000001 l5.293 -7.7344 l3.3984 2.4023 l-4.4531 5.332 l-4.2383 0 z M159.112875 40.39063 c-8.6719 0 -14.902 -5.8789 -14.902 -14.746 c0 -8.9258 6.2305 -14.766 14.902 -14.766 c8.6914 0 14.922 5.8398 14.922 14.766 c0 8.8672 -6.2305 14.746 -14.922 14.746 z M159.112875 33.6328 c4.3359 0 7.5781 -3.0664 7.5781 -7.9883 s-3.2422 -8.0078 -7.5781 -8.0078 c-4.3164 0 -7.5195 3.0859 -7.5195 8.0078 s3.2031 7.9883 7.5195 7.9883 z M199.10171875 11.289000000000001 c5.8789 0 9.4727 4.3164 9.4727 9.5898 c0 5.4102 -3.5938 9.3945 -9.4727 9.3945 l-5.1953 0 l0 9.7266 l-7.4414 0 l0 -28.711 l12.637 0 z M197.81271875 24.121000000000002 c2.6563 0 3.6914 -1.25 3.6914 -3.3594 c0 -1.9922 -1.0352 -3.3203 -3.6914 -3.3203 l-3.9063 0 l0 6.6797 l3.9063 0 z M233.581625 40.39063 c-8.6719 0 -14.902 -5.8789 -14.902 -14.746 c0 -8.9258 6.2305 -14.766 14.902 -14.766 c8.6914 0 14.922 5.8398 14.922 14.766 c0 8.8672 -6.2305 14.746 -14.922 14.746 z M233.581625 33.6328 c4.3359 0 7.5781 -3.0664 7.5781 -7.9883 s-3.2422 -8.0078 -7.5781 -8.0078 c-4.3164 0 -7.5195 3.0859 -7.5195 8.0078 s3.2031 7.9883 7.5195 7.9883 z M268.37546875 33.4766 l8.3984 0 l0 6.5234 l-15.84 0 l0 -28.711 l7.4414 0 l0 22.188 z M288.51950625 40 l0 -28.711 l7.4414 0 l0 28.711 l-7.4414 0 z M320.2655625 40.39063 c-6.2891 0 -11.406 -3.0273 -12.207 -8.7891 l7.7148 -1.7578 c0.21484 3.125 2.168 4.5898 4.8047 4.5898 c1.9141 0 3.0859 -0.91797 3.0859 -2.5586 c0 -2.1484 -2.7539 -2.9492 -5.957 -4.043 c-4.043 -1.3477 -8.5742 -3.0273 -8.5742 -8.3203 c0 -5.3516 4.3359 -8.6328 10.527 -8.6328 c5.0391 0 10.527 1.9922 11.719 7.9297 l-7.1484 1.7578 c-0.41016 -2.5977 -1.7773 -3.7305 -4.082 -3.7305 c-2.0508 0 -3.4961 0.80078 -3.4961 2.4805 c0 1.6016 2.5781 2.2461 5.5273 3.2031 c4.1211 1.3672 9.1992 3.2422 9.1992 8.9258 c0 6.3086 -5.3125 8.9453 -11.113 8.9453 z"></path>
  </g>
  <g id="SvgjsG1009" featurekey="nameFeature-1"
    transform="matrix(1.3853029704027497,0,0,1.3853029704027497,-1.785654915845816,240.92980726873378)"
    fill="#ffffff">
    <path
      d="M16.191 40.39063 c-8.6719 0 -14.902 -5.8398 -14.902 -14.746 c0 -8.9258 6.2305 -14.766 14.902 -14.766 c6.8555 0 12.207 3.5938 14.121 9.4336 l-6.9531 2.4414 c-0.95703 -3.2031 -3.7109 -5.1172 -7.168 -5.1172 c-4.3164 0 -7.5195 3.0859 -7.5195 8.0078 s3.2031 7.9883 7.5195 7.9883 c3.457 0 6.2109 -1.9141 7.168 -5.1172 l6.9531 2.4414 c-1.9141 5.8398 -7.2656 9.4336 -14.121 9.4336 z M66.00378125 40 l-8.8281 0 l-7.4805 -12.305 l0 12.305 l-7.4414 0 l0 -28.711 l10.996 0 c6.875 0 9.6094 3.9453 9.6094 8.8672 c0 4.043 -2.3828 6.4063 -5.8203 7.1484 z M55.76978125 20.234 c0 -1.7578 -0.99609 -2.8711 -3.75 -2.8711 l-2.3242 0 l0 5.7617 l2.3242 0 c2.7539 0 3.75 -1.1328 3.75 -2.8906 z M77.14450625 40 l0 -28.711 l7.4414 0 l0 28.711 l-7.4414 0 z M118.6565625 40 l-1.8555 -5.3125 l-11.484 0 l-1.8359 5.3125 l-7.5586 0 l10.566 -28.711 l9.1602 0 l10.566 28.711 l-7.5586 0 z M107.4455625 28.555 l7.2266 0 l-3.6133 -10.391 z M155.26565625 11.289000000000001 l0 6.4648 l-6.4844 0 l0 22.246 l-7.3633 0 l0 -22.246 l-6.5039 0 l0 -6.4648 l20.352 0 z M166.97263125 40 l0 -28.711 l7.4414 0 l0 28.711 l-7.4414 0 z M207.3906875 11.289000000000001 l7.9297 0 l-10.645 28.711 l-8.3594 0 l-10.566 -28.711 l7.9297 0 l6.8555 20.176 z M246.383125 40 l-1.8555 -5.3125 l-11.484 0 l-1.8359 5.3125 l-7.5586 0 l10.566 -28.711 l9.1602 0 l10.566 28.711 l-7.5586 0 z M235.172125 28.555 l7.2266 0 l-3.6133 -10.391 z"></path>
  </g>
</svg>
